<svg width="282" height="277" viewBox="0 0 282 277" fill="none" xmlns="http://www.w3.org/2000/svg">
<path d="M24.1747 239.818H18.6648V256.284H18.4347L7.13352 239.818H2.27557V266H7.81108V249.521H8.00284L19.3935 266H24.1747V239.818ZM37.5181 266.384C43.4755 266.384 47.1829 262.305 47.1829 256.259C47.1829 250.173 43.4755 246.108 37.5181 246.108C31.5607 246.108 27.8533 250.173 27.8533 256.259C27.8533 262.305 31.5607 266.384 37.5181 266.384ZM37.5437 262.165C34.7951 262.165 33.3888 259.646 33.3888 256.22C33.3888 252.794 34.7951 250.263 37.5437 250.263C40.2411 250.263 41.6474 252.794 41.6474 256.22C41.6474 259.646 40.2411 262.165 37.5437 262.165ZM61.1687 246.364H57.4741V241.659H52.0281V246.364H49.3434V250.455H52.0281V260.682C52.0025 264.53 54.6232 266.435 58.5735 266.268C59.9798 266.217 60.9769 265.936 61.5266 265.757L60.6701 261.705C60.4016 261.756 59.8264 261.884 59.315 261.884C58.2283 261.884 57.4741 261.474 57.4741 259.966V250.455H61.1687V246.364ZM70.5842 254.648C70.5969 252.116 72.1438 250.634 74.3683 250.634C76.5799 250.634 77.8839 252.053 77.8711 254.469V266H83.3171V253.497C83.3299 248.895 80.6197 246.108 76.5288 246.108C73.5501 246.108 71.5558 247.514 70.6609 249.828H70.4308V239.818H65.1381V266H70.5842V254.648ZM87.603 266H93.049V246.364H87.603V266ZM90.3388 243.832C91.9624 243.832 93.2919 242.592 93.2919 241.071C93.2919 239.562 91.9624 238.322 90.3388 238.322C88.728 238.322 87.3984 239.562 87.3984 241.071C87.3984 242.592 88.728 243.832 90.3388 243.832ZM102.858 254.648C102.87 252.116 104.379 250.634 106.578 250.634C108.764 250.634 110.081 252.065 110.068 254.469V266H115.514V253.497C115.514 248.92 112.829 246.108 108.738 246.108C105.824 246.108 103.714 247.54 102.832 249.828H102.602V246.364H97.4116V266H102.858V254.648ZM128.653 273.773C134.265 273.773 138.254 271.216 138.254 266.192V246.364H132.846V249.662H132.641C131.913 248.064 130.315 246.108 127.029 246.108C122.721 246.108 119.077 249.457 119.077 256.143C119.077 262.676 122.619 265.719 127.042 265.719C130.174 265.719 131.925 264.146 132.641 262.523H132.871V266.115C132.871 268.812 131.146 269.861 128.781 269.861C126.377 269.861 125.163 268.812 124.715 267.624L119.678 268.301C120.33 271.395 123.36 273.773 128.653 273.773ZM128.768 261.628C126.096 261.628 124.638 259.506 124.638 256.118C124.638 252.781 126.07 250.442 128.768 250.442C131.414 250.442 132.897 252.679 132.897 256.118C132.897 259.582 131.388 261.628 128.768 261.628ZM161.479 246.364H157.58V245.047C157.58 243.717 158.117 242.938 159.715 242.938C160.367 242.938 161.032 243.078 161.466 243.219L162.425 239.128C161.748 238.923 160.252 238.591 158.577 238.591C154.882 238.591 152.134 240.675 152.134 244.945V246.364H149.36V250.455H152.134V266H157.58V250.455H161.479V246.364ZM172.975 266.384C178.933 266.384 182.64 262.305 182.64 256.259C182.64 250.173 178.933 246.108 172.975 246.108C167.018 246.108 163.31 250.173 163.31 256.259C163.31 262.305 167.018 266.384 172.975 266.384ZM173.001 262.165C170.252 262.165 168.846 259.646 168.846 256.22C168.846 252.794 170.252 250.263 173.001 250.263C175.698 250.263 177.104 252.794 177.104 256.22C177.104 259.646 175.698 262.165 173.001 262.165ZM186.181 266H191.627V254.891C191.627 252.474 193.391 250.812 195.795 250.812C196.549 250.812 197.585 250.94 198.096 251.107V246.274C197.61 246.159 196.933 246.082 196.383 246.082C194.184 246.082 192.381 247.361 191.665 249.79H191.461V246.364H186.181V266ZM214.69 254.648C214.702 252.116 216.211 250.634 218.41 250.634C220.596 250.634 221.913 252.065 221.9 254.469V266H227.346V253.497C227.346 248.92 224.661 246.108 220.57 246.108C217.656 246.108 215.546 247.54 214.664 249.828H214.434V246.364H209.244V266H214.69V254.648ZM240.51 266.384C246.468 266.384 250.175 262.305 250.175 256.259C250.175 250.173 246.468 246.108 240.51 246.108C234.553 246.108 230.846 250.173 230.846 256.259C230.846 262.305 234.553 266.384 240.51 266.384ZM240.536 262.165C237.787 262.165 236.381 259.646 236.381 256.22C236.381 252.794 237.787 250.263 240.536 250.263C243.233 250.263 244.64 252.794 244.64 256.22C244.64 259.646 243.233 262.165 240.536 262.165ZM257.098 266H262.85L266.225 253.651H266.468L269.843 266H275.609L280.94 246.364H275.443L272.451 259.48H272.285L269.064 246.364H263.656L260.485 259.557H260.306L257.264 246.364H251.754L257.098 266Z" fill="black"/>
<path className='empty' d="M218.324 34.2056H114.002V115.832H245.658V59.4385C245.658 45.5228 233.417 34.2056 218.324 34.2056Z" fill="#5F6CAD"/>
<path d="M245.658 116.278H114.002C113.88 116.276 113.764 116.225 113.678 116.138C113.593 116.051 113.545 115.934 113.545 115.812V34.2055C113.545 34.0844 113.593 33.9682 113.679 33.8826C113.765 33.7969 113.881 33.7488 114.002 33.7488H218.324C233.65 33.7488 246.124 45.2893 246.124 59.4689V115.832C246.117 115.951 246.065 116.063 245.978 116.146C245.892 116.229 245.777 116.276 245.658 116.278ZM114.469 115.345H245.191V59.4384C245.191 45.7664 233.143 34.642 218.324 34.642H114.469V115.345Z" fill="#231F20"/>
<path d="M141.336 116.349H86.668C86.5342 116.347 86.4067 116.292 86.3121 116.198C86.2174 116.103 86.1631 115.976 86.1605 115.842V60.4533C86.1632 53.3501 88.9862 46.5386 94.0089 41.5158C99.0316 36.4931 105.843 33.6702 112.946 33.6675H115.281C120.671 33.7173 125.921 35.3903 130.346 38.4683C134.771 41.5463 138.166 45.8864 140.087 50.9225C140.496 51.9128 140.835 52.9302 141.102 53.9675C141.145 54.0992 141.172 54.2355 141.184 54.3735C141.655 56.3449 141.89 58.3654 141.884 60.3924V115.751C141.899 115.828 141.895 115.908 141.873 115.983C141.852 116.059 141.813 116.129 141.76 116.187C141.706 116.245 141.64 116.29 141.567 116.318C141.493 116.346 141.414 116.357 141.336 116.349ZM87.1755 115.334H140.828V60.4533C140.832 58.4812 140.604 56.5156 140.148 54.5968C140.157 54.5158 140.157 54.4342 140.148 54.3532V54.2415C139.877 53.2476 139.545 52.2714 139.154 51.3183C137.298 46.4787 134.028 42.3095 129.771 39.3534C125.513 36.3973 120.464 34.7909 115.281 34.7434H112.957C109.575 34.7367 106.225 35.3966 103.099 36.6855C99.9728 37.9743 97.1313 39.8667 94.7369 42.2545C92.3425 44.6422 90.4422 47.4786 89.1448 50.6013C87.8474 53.724 87.1782 57.0718 87.1755 60.4533V115.334Z" fill="#231F20"/>
<path d="M86.6781 115.832H141.336V164.268C141.336 170.874 138.712 177.209 134.04 181.88C129.369 186.551 123.034 189.176 116.428 189.176H111.576C104.97 189.176 98.6346 186.551 93.9634 181.88C89.2922 177.209 86.668 170.874 86.668 164.268V115.832H86.6781Z" fill="white"/>
<path d="M116.428 189.643H111.586C104.856 189.643 98.4022 186.969 93.6435 182.211C88.8847 177.452 86.2113 170.998 86.2113 164.268V115.832C86.2139 115.709 86.2639 115.592 86.3509 115.505C86.4379 115.418 86.5552 115.368 86.6782 115.365H141.336C141.459 115.368 141.576 115.418 141.663 115.505C141.75 115.592 141.8 115.709 141.803 115.832V164.268C141.803 170.998 139.129 177.452 134.371 182.211C129.612 186.969 123.158 189.643 116.428 189.643ZM87.135 116.278V164.247C87.143 170.729 89.722 176.942 94.3061 181.525C98.8902 186.107 105.105 188.683 111.586 188.689H116.428C122.908 188.683 129.122 186.106 133.704 181.524C138.287 176.942 140.864 170.728 140.869 164.247V116.278H87.135Z" fill="#231F20"/>
<path d="M127.512 160.218H100.502C100.368 160.218 100.239 160.164 100.144 160.069C100.048 159.974 99.995 159.845 99.995 159.71C99.995 159.576 100.048 159.446 100.144 159.351C100.239 159.256 100.368 159.203 100.502 159.203H127.512C127.646 159.203 127.775 159.256 127.871 159.351C127.966 159.446 128.019 159.576 128.019 159.71C128.019 159.845 127.966 159.974 127.871 160.069C127.775 160.164 127.646 160.218 127.512 160.218Z" fill="#D1D3D4"/>
<path d="M170.68 75.2724C173.567 75.2724 175.907 72.932 175.907 70.0451C175.907 67.1582 173.567 64.8179 170.68 64.8179C167.793 64.8179 165.452 67.1582 165.452 70.0451C165.452 72.932 167.793 75.2724 170.68 75.2724Z" fill="white"/>
<path d="M170.68 75.7291C169.553 75.7311 168.45 75.3986 167.512 74.7737C166.574 74.1488 165.843 73.2596 165.411 72.2187C164.978 71.1778 164.865 70.0321 165.084 68.9266C165.304 67.8211 165.846 66.8056 166.643 66.0086C167.44 65.2116 168.456 64.6691 169.561 64.4497C170.667 64.2304 171.812 64.344 172.853 64.7762C173.894 65.2084 174.783 65.9398 175.408 66.8778C176.033 67.8157 176.366 68.9181 176.364 70.0451C176.361 71.5518 175.761 72.996 174.696 74.0613C173.63 75.1267 172.186 75.7264 170.68 75.7291ZM170.68 65.2848C169.738 65.2848 168.818 65.564 168.035 66.087C167.252 66.6101 166.642 67.3536 166.282 68.2234C165.921 69.0932 165.827 70.0504 166.011 70.9738C166.194 71.8972 166.648 72.7454 167.314 73.4112C167.979 74.0769 168.828 74.5303 169.751 74.714C170.674 74.8977 171.631 74.8034 172.501 74.4431C173.371 74.0828 174.115 73.4727 174.638 72.6898C175.161 71.907 175.44 70.9866 175.44 70.0451C175.44 69.42 175.317 68.801 175.078 68.2234C174.838 67.6459 174.488 67.1211 174.046 66.679C173.604 66.237 173.079 65.8864 172.501 65.6471C171.924 65.4079 171.305 65.2848 170.68 65.2848Z" fill="#231F20"/>
<path d="M170.68 65.2848C170.557 65.2822 170.439 65.2322 170.352 65.1452C170.265 65.0582 170.215 64.9409 170.213 64.8179V0.507528C170.215 0.385466 170.266 0.269302 170.353 0.183925C170.44 0.0985475 170.557 0.0507524 170.68 0.0507813C170.801 0.0507813 170.917 0.0989027 171.003 0.18456C171.088 0.270217 171.136 0.386391 171.136 0.507528V64.8179C171.136 64.94 171.089 65.0573 171.003 65.1445C170.918 65.2318 170.802 65.2822 170.68 65.2848Z" fill="#231F20"/>
<path d="M189.894 5.36942L170.68 14.0172V0.507568H189.894V5.36942Z" fill="white"/>
<path d="M170.68 14.5247C170.582 14.5244 170.487 14.4962 170.406 14.4434C170.333 14.399 170.273 14.3363 170.232 14.2615C170.191 14.1867 170.17 14.1024 170.172 14.0172V0.5075C170.172 0.372903 170.226 0.243818 170.321 0.148643C170.416 0.0534682 170.545 0 170.68 0H189.904C190.037 0.00259847 190.165 0.0569025 190.26 0.15152C190.354 0.246137 190.409 0.373716 190.411 0.5075V5.3592C190.41 5.45797 190.381 5.55441 190.327 5.63714C190.273 5.71987 190.197 5.78544 190.107 5.8261L170.883 14.4739C170.82 14.506 170.75 14.5233 170.68 14.5247ZM171.187 1.015V13.195L189.386 5.00395V0.94395L171.187 1.015Z" fill="#231F20"/>
<path d="M181.611 115.832H159.586V121.089H181.611V115.832Z" fill="white"/>
<path d="M181.611 121.546H159.586C159.464 121.546 159.346 121.499 159.259 121.413C159.172 121.328 159.121 121.212 159.119 121.09V115.832C159.121 115.709 159.171 115.592 159.258 115.505C159.345 115.418 159.463 115.368 159.586 115.365H181.611C181.734 115.368 181.851 115.418 181.938 115.505C182.025 115.592 182.075 115.709 182.078 115.832V121.09C182.075 121.212 182.025 121.328 181.938 121.413C181.851 121.499 181.733 121.546 181.611 121.546ZM160.053 120.623H181.144V116.278H160.053V120.623Z" fill="#231F20"/>
<path d="M163.128 194.667V121.09H176.384V194.667" fill="white"/>
<path d="M176.384 195.134C176.262 195.131 176.146 195.081 176.06 194.993C175.975 194.906 175.927 194.789 175.927 194.667V121.587H163.585V194.667C163.595 194.733 163.59 194.801 163.571 194.865C163.553 194.93 163.52 194.99 163.476 195.04C163.433 195.091 163.378 195.132 163.317 195.16C163.256 195.188 163.19 195.202 163.123 195.202C163.056 195.202 162.989 195.188 162.928 195.16C162.867 195.132 162.813 195.091 162.769 195.04C162.725 194.99 162.693 194.93 162.674 194.865C162.656 194.801 162.651 194.733 162.661 194.667V121.089C162.661 121.028 162.673 120.967 162.697 120.911C162.72 120.854 162.754 120.803 162.798 120.759C162.841 120.716 162.893 120.682 162.949 120.658C163.006 120.635 163.067 120.623 163.128 120.623H176.384C176.445 120.623 176.506 120.635 176.563 120.658C176.619 120.682 176.671 120.716 176.714 120.759C176.757 120.803 176.792 120.854 176.815 120.911C176.839 120.967 176.851 121.028 176.851 121.089V194.667C176.851 194.728 176.839 194.789 176.815 194.845C176.792 194.902 176.757 194.954 176.714 194.997C176.671 195.04 176.619 195.075 176.563 195.098C176.506 195.122 176.445 195.134 176.384 195.134Z" fill="#231F20"/>
<path d="M163.128 132.579L176.384 142.334V121.09H163.128V132.579Z" fill="#231F20"/>
<path d="M176.384 142.841C176.279 142.842 176.176 142.81 176.09 142.75L162.823 132.995C162.761 132.948 162.71 132.886 162.675 132.816C162.64 132.746 162.621 132.668 162.62 132.589V121.09C162.62 120.955 162.674 120.826 162.769 120.731C162.864 120.635 162.993 120.582 163.128 120.582H176.384C176.518 120.582 176.648 120.635 176.743 120.731C176.838 120.826 176.891 120.955 176.891 121.09V142.333C176.894 142.428 176.869 142.521 176.821 142.602C176.772 142.682 176.702 142.748 176.617 142.79C176.545 142.827 176.465 142.845 176.384 142.841ZM163.635 132.326L175.876 141.339V121.597H163.635V132.326Z" fill="#231F20"/>
<path d="M118.691 82.9965H118.6L117.585 82.8138C117.518 82.8025 117.455 82.7781 117.397 82.7421C117.34 82.7062 117.291 82.6593 117.251 82.6041C117.212 82.549 117.184 82.4867 117.169 82.4208C117.154 82.3549 117.152 82.2867 117.164 82.22C117.175 82.1534 117.199 82.0896 117.235 82.0324C117.271 81.9751 117.318 81.9255 117.373 81.8864C117.429 81.8473 117.491 81.8194 117.557 81.8044C117.623 81.7894 117.691 81.7875 117.758 81.7988L118.773 81.9713C118.905 81.9984 119.022 82.0761 119.098 82.188C119.173 82.3 119.202 82.4371 119.179 82.5702C119.162 82.6877 119.103 82.7953 119.014 82.8735C118.924 82.9516 118.81 82.9953 118.691 82.9965Z" fill="#D1D3D4"/>
<path d="M49.7119 116.898C49.645 116.912 49.5758 116.912 49.5089 116.898C49.4475 116.871 49.3918 116.833 49.3453 116.785C49.2987 116.737 49.2621 116.68 49.2376 116.617C49.2131 116.555 49.2011 116.489 49.2024 116.422C49.2036 116.355 49.2181 116.289 49.245 116.228C49.5191 115.598 49.8134 114.979 50.1179 114.36C50.147 114.3 50.1879 114.246 50.2382 114.202C50.2884 114.158 50.347 114.125 50.4105 114.104C50.474 114.083 50.541 114.075 50.6076 114.081C50.6741 114.087 50.7389 114.106 50.798 114.137C50.858 114.166 50.9117 114.207 50.956 114.257C51.0002 114.307 51.0342 114.365 51.0559 114.428C51.0776 114.491 51.0866 114.558 51.0824 114.625C51.0782 114.692 51.0609 114.757 51.0314 114.817C50.7269 115.416 50.4427 116.025 50.1788 116.634C50.1334 116.717 50.0656 116.786 49.9831 116.832C49.9005 116.879 49.8066 116.902 49.7119 116.898ZM51.5389 113.264C51.4499 113.261 51.3629 113.236 51.2852 113.193C51.1702 113.125 51.0859 113.015 51.05 112.886C51.014 112.758 51.0292 112.62 51.0923 112.503C51.4374 111.904 51.7927 111.315 52.1682 110.736C52.2442 110.631 52.3577 110.559 52.4853 110.535C52.613 110.51 52.7451 110.536 52.8544 110.606C52.9637 110.676 53.0419 110.786 53.0729 110.912C53.1038 111.038 53.0852 111.172 53.0208 111.285C52.6554 111.853 52.3103 112.421 52.0058 113C51.9573 113.078 51.8879 113.142 51.8055 113.183C51.723 113.224 51.6307 113.242 51.5389 113.233V113.264ZM53.7415 109.833C53.6332 109.833 53.5275 109.801 53.437 109.742C53.3299 109.661 53.2584 109.542 53.2376 109.409C53.2168 109.277 53.2482 109.141 53.3253 109.031C53.7313 108.473 54.1475 107.925 54.5839 107.397C54.6676 107.293 54.7893 107.225 54.9224 107.21C55.0555 107.195 55.1892 107.233 55.2944 107.316C55.399 107.4 55.4662 107.521 55.4814 107.654C55.4966 107.788 55.4586 107.921 55.3756 108.026C54.9493 108.554 54.5433 109.041 54.1475 109.63C54.1007 109.694 54.0396 109.745 53.969 109.781C53.8984 109.816 53.8204 109.834 53.7415 109.833ZM75.9192 109.762C75.1832 109.706 74.4623 109.524 73.7877 109.224C73.6639 109.17 73.5665 109.069 73.517 108.944C73.4675 108.818 73.47 108.678 73.5238 108.554C73.5776 108.43 73.6785 108.333 73.8041 108.284C73.9297 108.234 74.0699 108.236 74.1937 108.29C74.7609 108.548 75.3691 108.702 75.9903 108.747C76.0565 108.751 76.1214 108.768 76.1809 108.797C76.2405 108.827 76.2936 108.867 76.3371 108.918C76.3807 108.968 76.4137 109.026 76.4343 109.089C76.4549 109.152 76.4627 109.219 76.4572 109.285C76.4546 109.352 76.4385 109.418 76.4098 109.479C76.3811 109.54 76.3404 109.594 76.2901 109.639C76.2399 109.683 76.1811 109.717 76.1173 109.738C76.0536 109.759 75.9862 109.768 75.9192 109.762ZM77.9492 109.518C77.8146 109.539 77.6775 109.505 77.5681 109.424C77.4586 109.343 77.3858 109.222 77.3656 109.087C77.3454 108.952 77.3795 108.815 77.4604 108.706C77.5413 108.596 77.6624 108.524 77.797 108.503C78.3693 108.326 78.8935 108.021 79.3296 107.61C79.3768 107.563 79.4329 107.525 79.4948 107.499C79.5566 107.473 79.6229 107.46 79.6899 107.46C79.7569 107.46 79.8233 107.473 79.8851 107.499C79.9469 107.525 80.0031 107.563 80.0503 107.61C80.1439 107.707 80.1963 107.836 80.1963 107.971C80.1963 108.105 80.1439 108.234 80.0503 108.331C79.4968 108.855 78.8299 109.244 78.1015 109.468L77.9492 109.518ZM72.2449 108.199C72.1264 108.204 72.0103 108.164 71.9201 108.087C71.3626 107.631 70.8617 107.11 70.4281 106.534C70.3499 106.426 70.3168 106.291 70.3357 106.159C70.3546 106.026 70.4241 105.906 70.5296 105.824C70.5823 105.783 70.6429 105.752 70.7077 105.735C70.7725 105.718 70.8401 105.714 70.9064 105.723C70.9728 105.733 71.0366 105.755 71.0939 105.79C71.1512 105.825 71.2009 105.871 71.2401 105.925C71.6269 106.433 72.0695 106.896 72.5596 107.306C72.6117 107.347 72.6551 107.399 72.687 107.457C72.7189 107.515 72.7388 107.58 72.7454 107.646C72.7521 107.712 72.7453 107.779 72.7256 107.843C72.7059 107.906 72.6736 107.965 72.6306 108.016C72.5779 108.069 72.514 108.109 72.4438 108.133C72.3735 108.158 72.2986 108.167 72.2246 108.158L72.2449 108.199ZM80.6085 106.727H80.5273C80.3952 106.705 80.2769 106.632 80.1974 106.524C80.1179 106.416 80.0833 106.282 80.101 106.149C80.1161 105.993 80.1161 105.837 80.101 105.682C80.0957 105.242 80.0168 104.806 79.8676 104.393C79.8231 104.258 79.834 104.111 79.8978 103.985C79.9615 103.858 80.073 103.762 80.2076 103.718C80.3422 103.673 80.4889 103.684 80.6155 103.748C80.7421 103.812 80.8381 103.923 80.8826 104.058C81.0636 104.58 81.1596 105.129 81.1668 105.682C81.1814 105.891 81.1814 106.102 81.1668 106.311C81.1444 106.443 81.0711 106.56 80.9628 106.638C80.8546 106.716 80.72 106.748 80.5882 106.727H80.6085ZM56.3196 106.676C56.1929 106.673 56.0712 106.626 55.9745 106.545C55.9269 106.497 55.8891 106.441 55.8634 106.379C55.8376 106.318 55.8243 106.251 55.8243 106.184C55.8243 106.117 55.8376 106.051 55.8634 105.989C55.8891 105.927 55.9269 105.871 55.9745 105.824C56.4312 105.316 56.9184 104.809 57.4056 104.332C57.5025 104.238 57.6329 104.186 57.768 104.188C57.9032 104.19 58.032 104.245 58.1263 104.342C58.2205 104.439 58.2723 104.569 58.2704 104.704C58.2685 104.84 58.213 104.968 58.1161 105.063C57.6391 105.53 57.1722 106.007 56.7256 106.504C56.6731 106.564 56.6072 106.611 56.5331 106.641C56.459 106.671 56.3789 106.683 56.2993 106.676H56.3196ZM69.8089 104.981C69.711 104.983 69.6148 104.955 69.5319 104.903C69.4491 104.851 69.3831 104.776 69.342 104.687C69.0472 104.039 68.8325 103.357 68.7026 102.657C68.6783 102.522 68.7086 102.384 68.7866 102.271C68.8646 102.159 68.9841 102.082 69.1187 102.058C69.2533 102.034 69.392 102.064 69.5043 102.142C69.6166 102.22 69.6933 102.34 69.7176 102.474C69.8258 103.104 70.0133 103.718 70.2758 104.301C70.3307 104.424 70.3349 104.563 70.2873 104.689C70.2397 104.814 70.1444 104.916 70.0221 104.971C69.946 104.992 69.8662 104.996 69.7886 104.981H69.8089ZM59.2428 103.834C59.1394 103.833 59.0389 103.801 58.9546 103.741C58.8702 103.682 58.8061 103.598 58.7708 103.5C58.7355 103.403 58.7307 103.298 58.757 103.198C58.7833 103.098 58.8394 103.008 58.918 102.941C59.4559 102.495 60.004 102.058 60.5623 101.673C60.616 101.634 60.6769 101.606 60.7414 101.591C60.806 101.577 60.8728 101.575 60.938 101.586C61.0033 101.597 61.0656 101.622 61.1213 101.658C61.1771 101.693 61.2251 101.74 61.2626 101.794C61.3016 101.849 61.3293 101.911 61.3443 101.976C61.3592 102.041 61.3611 102.109 61.3498 102.175C61.3385 102.241 61.3142 102.304 61.2783 102.361C61.2424 102.417 61.1957 102.466 61.1408 102.505C60.613 102.87 60.1258 103.286 59.5676 103.723C59.4712 103.803 59.3476 103.843 59.2225 103.834H59.2428ZM79.421 102.941C79.342 102.942 79.264 102.924 79.1934 102.889C79.1228 102.853 79.0617 102.802 79.015 102.738C78.6572 102.274 78.241 101.858 77.7767 101.5L77.665 101.419C77.5573 101.338 77.4861 101.218 77.4671 101.085C77.4481 100.951 77.4827 100.816 77.5635 100.708C77.6444 100.601 77.7637 100.53 77.8962 100.509C78.0287 100.488 78.1642 100.52 78.274 100.597L78.3958 100.688C78.9312 101.103 79.409 101.588 79.8168 102.129C79.877 102.203 79.9148 102.292 79.9258 102.387C79.9367 102.481 79.9204 102.577 79.8788 102.662C79.8371 102.747 79.7719 102.819 79.6907 102.869C79.6096 102.918 79.516 102.943 79.421 102.941ZM62.572 101.5C62.4804 101.501 62.3903 101.477 62.3115 101.431C62.2327 101.384 62.1683 101.317 62.1254 101.236C62.0623 101.118 62.0471 100.981 62.083 100.852C62.119 100.724 62.2032 100.614 62.3182 100.546C62.923 100.2 63.5465 99.8886 64.1858 99.6121C64.3051 99.5745 64.434 99.5824 64.5478 99.634C64.6616 99.6857 64.7524 99.7775 64.8027 99.8919C64.853 100.006 64.8593 100.135 64.8204 100.254C64.7815 100.373 64.7001 100.473 64.5918 100.536C64.0031 100.8 63.4043 101.094 62.8156 101.429C62.7378 101.481 62.645 101.506 62.5517 101.5H62.572ZM69.1187 101.053C68.985 101.043 68.8605 100.981 68.7715 100.881C68.6826 100.78 68.636 100.649 68.6417 100.515C68.6957 99.8057 68.8146 99.1024 68.9969 98.4144C69.0135 98.3496 69.0426 98.2888 69.0827 98.2354C69.1229 98.182 69.1731 98.1371 69.2306 98.1031C69.2881 98.0692 69.3518 98.0469 69.4179 98.0376C69.4841 98.0283 69.5514 98.0322 69.6161 98.049C69.7032 98.0734 69.7825 98.1199 69.8465 98.1839C69.9105 98.2479 69.957 98.3272 69.9815 98.4144C70.0275 98.3666 70.0827 98.3285 70.1437 98.3023C70.2047 98.2762 70.2703 98.2625 70.3367 98.2621H70.6615C71.2551 98.2599 71.8483 98.2938 72.4378 98.3636C72.5716 98.3814 72.6933 98.4508 72.7767 98.5569C72.8601 98.6631 72.8988 98.7977 72.8844 98.932C72.8667 99.0652 72.7969 99.1859 72.6904 99.2677C72.5838 99.3495 72.4492 99.3857 72.316 99.3685C71.7666 99.3071 71.2143 99.2766 70.6615 99.2771H70.357C70.2617 99.2778 70.1679 99.2528 70.0857 99.2045C70.0035 99.1562 69.9359 99.0866 69.8901 99.0031C69.7727 99.5243 69.6946 100.054 69.6567 100.586C69.6463 100.719 69.584 100.843 69.4834 100.93C69.3827 101.017 69.2517 101.062 69.1187 101.053ZM76.2237 100.505C76.1501 100.521 76.0741 100.521 76.0004 100.505C75.4167 100.221 74.8086 99.9902 74.1836 99.8151C74.049 99.7787 73.9343 99.6904 73.8648 99.5695C73.7954 99.4487 73.7767 99.3051 73.8131 99.1705C73.8494 99.0359 73.9377 98.9213 74.0586 98.8518C74.1795 98.7823 74.323 98.7637 74.4576 98.8001C75.1543 98.9968 75.8333 99.2514 76.4876 99.5613C76.6063 99.6204 76.6972 99.7235 76.7408 99.8487C76.7845 99.9739 76.7774 100.111 76.7211 100.231C76.6684 100.313 76.5939 100.378 76.5059 100.419C76.418 100.461 76.3202 100.476 76.2237 100.465V100.505ZM66.2869 99.9166C66.1766 99.9183 66.069 99.8833 65.9808 99.8171C65.8926 99.751 65.8289 99.6574 65.7997 99.5512C65.7616 99.4233 65.7753 99.2856 65.838 99.1678C65.9007 99.05 66.0073 98.9617 66.1346 98.9219C66.799 98.7169 67.4775 98.5609 68.1646 98.455C68.2313 98.4443 68.2993 98.4469 68.365 98.4625C68.4307 98.4782 68.4926 98.5066 68.5472 98.5462C68.6019 98.5858 68.6482 98.6357 68.6836 98.6932C68.719 98.7507 68.7426 98.8146 68.7533 98.8813C68.764 98.9479 68.7614 99.016 68.7458 99.0817C68.7301 99.1473 68.7017 99.2092 68.6621 99.2639C68.6225 99.3186 68.5725 99.3649 68.515 99.4003C68.4575 99.4356 68.3937 99.4593 68.327 99.47C67.6787 99.5779 67.038 99.7271 66.4087 99.9166H66.2869ZM70.1337 97.0949C70.0633 97.1088 69.9909 97.1088 69.9206 97.0949C69.7983 97.0395 69.7029 96.9379 69.6553 96.8123C69.6078 96.6868 69.6119 96.5475 69.6668 96.425C69.9589 95.7849 70.2982 95.1674 70.6818 94.5777C70.7531 94.4632 70.867 94.3819 70.9983 94.3514C71.1297 94.321 71.2678 94.3439 71.3822 94.4153C71.4966 94.4866 71.5779 94.6005 71.6084 94.7318C71.6389 94.8631 71.6159 95.0012 71.5446 95.1156C71.1962 95.6699 70.8842 96.2463 70.6108 96.8411C70.5642 96.9249 70.4943 96.9934 70.4097 97.0384C70.3251 97.0834 70.2292 97.103 70.1337 97.0949ZM72.2754 93.6439C72.161 93.6424 72.0504 93.6032 71.9607 93.5322C71.9075 93.4906 71.863 93.4389 71.8301 93.3799C71.7971 93.321 71.7762 93.2561 71.7686 93.189C71.7611 93.1218 71.767 93.0539 71.786 92.9891C71.8051 92.9243 71.8368 92.8639 71.8795 92.8116C72.2957 92.2838 72.7626 91.7966 73.2498 91.2485C73.344 91.1515 73.4728 91.096 73.608 91.0941C73.7431 91.0922 73.8735 91.1441 73.9704 91.2383C74.0673 91.3325 74.1228 91.4614 74.1247 91.5965C74.1266 91.7317 74.0748 91.862 73.9806 91.959C73.5193 92.4339 73.0823 92.9319 72.6712 93.451C72.6208 93.5124 72.5572 93.5616 72.4852 93.595C72.4131 93.6284 72.3345 93.6451 72.2551 93.6439H72.2754ZM75.4929 90.5278L75.0971 90.203L74.7621 89.8173C75.3305 89.3301 75.838 88.914 76.3557 88.508C76.4621 88.4261 76.5966 88.3898 76.7298 88.4069C76.8629 88.424 76.9839 88.4932 77.0662 88.5993C77.108 88.6515 77.1389 88.7115 77.157 88.7759C77.1751 88.8403 77.1801 88.9077 77.1715 88.974C77.163 89.0403 77.1412 89.1042 77.1074 89.1619C77.0736 89.2196 77.0285 89.2699 76.9748 89.3098C76.4572 89.7057 75.9598 90.1015 75.4726 90.5278H75.4929ZM78.3248 88.2339C78.2411 88.2331 78.1588 88.2125 78.0847 88.1737C78.0106 88.1348 77.9467 88.0789 77.8985 88.0106C77.8245 87.8971 77.7979 87.7592 77.8245 87.6264C77.851 87.4935 77.9286 87.3764 78.0406 87.3001C78.609 86.9144 79.1875 86.549 79.7864 86.2039C79.9011 86.1364 80.0377 86.1167 80.1668 86.149C80.2958 86.1813 80.4071 86.2629 80.4766 86.3765C80.5445 86.4927 80.5646 86.6309 80.5323 86.7616C80.5001 86.8924 80.4182 87.0054 80.304 87.0768C79.7288 87.4151 79.1604 87.7704 78.5988 88.1426C78.5139 88.2054 78.4101 88.2376 78.3045 88.2339H78.3248ZM81.8265 86.2039C81.7327 86.2039 81.6406 86.1784 81.5602 86.1301C81.4797 86.0819 81.4139 86.0126 81.3698 85.9299C81.3096 85.81 81.2993 85.6712 81.3411 85.5438C81.3829 85.4163 81.4735 85.3106 81.5931 85.2498C82.2122 84.9352 82.8314 84.6408 83.4607 84.3566C83.5847 84.3051 83.724 84.3038 83.849 84.353C83.974 84.4023 84.075 84.4982 84.1306 84.6205C84.1574 84.6818 84.1719 84.7478 84.1732 84.8147C84.1745 84.8816 84.1625 84.9481 84.138 85.0104C84.1134 85.0726 84.0769 85.1294 84.0303 85.1775C83.9837 85.2256 83.9281 85.2639 83.8667 85.2904C83.2577 85.5543 82.6487 85.8487 82.06 86.1532C81.9769 86.1732 81.8906 86.1767 81.8062 86.1633L81.8265 86.2039ZM85.5516 84.5596C85.417 84.5838 85.2783 84.5536 85.166 84.4756C85.0536 84.3975 84.9769 84.2781 84.9527 84.1435C84.9285 84.0089 84.9587 83.8701 85.0368 83.7578C85.1148 83.6455 85.2343 83.5688 85.3689 83.5446C86.0083 83.301 86.6579 83.0777 87.3177 82.8646C87.4455 82.8229 87.5847 82.8338 87.7046 82.8947C87.8245 82.9556 87.9153 83.0615 87.9571 83.1894C87.9955 83.3186 87.982 83.4577 87.9195 83.5771C87.8569 83.6965 87.7503 83.7868 87.6222 83.8288C86.9827 84.0318 86.3534 84.2551 85.7241 84.4886C85.6643 84.5176 85.5971 84.5282 85.5313 84.519L85.5516 84.5596ZM89.4187 83.301C89.3085 83.3027 89.2008 83.2677 89.1126 83.2016C89.0245 83.1355 88.9607 83.0419 88.9315 82.9356C88.897 82.8051 88.9148 82.6663 88.9812 82.5487C89.0475 82.4311 89.1572 82.3442 89.2868 82.3063C89.9465 82.1338 90.6164 81.9612 91.3168 81.8191C91.3821 81.8041 91.4497 81.8023 91.5158 81.8136C91.5818 81.8249 91.645 81.8492 91.7016 81.885C91.7583 81.9209 91.8072 81.9676 91.8457 82.0225C91.8842 82.0774 91.9114 82.1393 91.9258 82.2048C91.9406 82.2695 91.9424 82.3365 91.931 82.4019C91.9195 82.4673 91.8951 82.5298 91.8592 82.5856C91.8232 82.6414 91.7765 82.6894 91.7217 82.7269C91.6669 82.7643 91.6051 82.7904 91.5401 82.8037C90.8803 82.9559 90.2307 83.1082 89.5811 83.2909L89.4187 83.301ZM115.707 82.5296H115.626L113.596 82.2454C113.531 82.2379 113.467 82.2174 113.41 82.1852C113.352 82.1529 113.302 82.1096 113.261 82.0576C113.22 82.0057 113.19 81.9462 113.173 81.8826C113.156 81.819 113.151 81.7525 113.16 81.6872C113.177 81.5533 113.247 81.4316 113.353 81.3482C113.459 81.2648 113.594 81.2261 113.728 81.2406L115.758 81.5248C115.893 81.5342 116.018 81.5967 116.106 81.6985C116.195 81.8004 116.239 81.9332 116.23 82.0678C116.221 82.2024 116.158 82.3277 116.056 82.4162C115.954 82.5048 115.822 82.5492 115.687 82.5398L115.707 82.5296ZM93.3772 82.418C93.3106 82.424 93.2434 82.4168 93.1795 82.3968C93.1157 82.3768 93.0563 82.3445 93.005 82.3016C92.9012 82.215 92.8361 82.0907 92.824 81.9561C92.8119 81.8215 92.8538 81.6876 92.9404 81.5839C93.027 81.4802 93.1513 81.4151 93.2859 81.403C93.9558 81.2812 94.6358 81.1797 95.3159 81.0782C95.4502 81.0607 95.5861 81.0966 95.6943 81.1782C95.8024 81.2598 95.8743 81.3806 95.8944 81.5146C95.9117 81.6478 95.8755 81.7825 95.7937 81.889C95.7118 81.9956 95.5911 82.0653 95.458 82.083L93.428 82.3977L93.3772 82.418ZM111.647 82.0018H111.586L109.556 81.809C109.422 81.7982 109.297 81.7344 109.209 81.6316C109.122 81.5288 109.079 81.3955 109.089 81.2609C109.1 81.1263 109.164 81.0014 109.267 80.9139C109.37 80.8263 109.503 80.7832 109.638 80.794C110.318 80.8447 110.998 80.9056 111.668 80.9868C111.801 81.0021 111.922 81.0694 112.006 81.1739C112.089 81.2785 112.128 81.4119 112.114 81.5451C112.096 81.6574 112.039 81.76 111.954 81.8357C111.869 81.9115 111.761 81.9557 111.647 81.9612V82.0018ZM97.4372 81.8597C97.3026 81.8664 97.1709 81.8194 97.0709 81.729C96.971 81.6386 96.9111 81.5122 96.9043 81.3776C96.8976 81.243 96.9446 81.1112 97.035 81.0113C97.1255 80.9114 97.2519 80.8514 97.3865 80.8447C98.0665 80.7737 98.7567 80.7128 99.4165 80.6722C99.4837 80.6651 99.5517 80.6721 99.6161 80.6928C99.6805 80.7135 99.7399 80.7473 99.7905 80.7922C99.8411 80.8371 99.8818 80.892 99.91 80.9534C99.9383 81.0149 99.9534 81.0816 99.9544 81.1492C99.9628 81.2822 99.9186 81.4132 99.8312 81.5139C99.7438 81.6145 99.6204 81.6768 99.4875 81.6872C98.8075 81.6872 98.1376 81.7887 97.4575 81.8496L97.4372 81.8597ZM107.587 81.677C106.917 81.677 106.237 81.6161 105.557 81.5958C105.491 81.5945 105.425 81.5801 105.364 81.5533C105.303 81.5266 105.247 81.4881 105.201 81.44C105.155 81.3919 105.119 81.3352 105.095 81.2732C105.07 81.2111 105.059 81.1448 105.06 81.0782C105.07 80.9461 105.128 80.8223 105.224 80.7305C105.319 80.6387 105.445 80.5854 105.578 80.5808C106.268 80.5808 106.948 80.5808 107.608 80.662C107.743 80.6699 107.87 80.7307 107.961 80.8313C108.052 80.9319 108.1 81.0643 108.095 81.2C108.077 81.3219 108.016 81.4334 107.923 81.5137C107.83 81.594 107.71 81.6376 107.587 81.6364V81.677ZM101.497 81.5958C101.363 81.5958 101.234 81.5423 101.138 81.4472C101.043 81.352 100.99 81.2229 100.99 81.0883C100.99 80.9537 101.043 80.8246 101.138 80.7294C101.234 80.6343 101.363 80.5808 101.497 80.5808H103.527C103.662 80.5808 103.791 80.6343 103.886 80.7294C103.981 80.8246 104.035 80.9537 104.035 81.0883C104.036 81.1545 104.024 81.2202 104 81.2818C103.975 81.3433 103.939 81.3993 103.893 81.4466C103.846 81.4938 103.791 81.5314 103.73 81.557C103.669 81.5826 103.604 81.5958 103.537 81.5958C102.857 81.5958 102.187 81.5958 101.507 81.5958H101.497Z" fill="#D1D3D4"/>
<path d="M48.5853 119.801H48.4229C48.2969 119.757 48.1933 119.665 48.1344 119.545C48.0755 119.426 48.0661 119.288 48.1082 119.161C48.2199 118.836 48.3315 118.511 48.4533 118.146C48.5011 118.021 48.5961 117.921 48.7177 117.866C48.8393 117.81 48.9777 117.805 49.1029 117.852C49.2294 117.898 49.3325 117.992 49.3896 118.113C49.4467 118.235 49.4531 118.375 49.4074 118.501C49.2856 118.819 49.174 119.134 49.0725 119.445C49.0399 119.549 48.975 119.639 48.8873 119.703C48.7997 119.767 48.6938 119.801 48.5853 119.801Z" fill="#D1D3D4"/>
<path d="M105.852 67.8325C105.734 67.8301 105.62 67.7876 105.53 67.7119C105.439 67.6363 105.377 67.532 105.354 67.4163C105.33 67.2845 105.36 67.1486 105.436 67.0383C105.512 66.9281 105.629 66.8523 105.76 66.8276C106.073 66.7613 106.379 66.6661 106.674 66.5434C106.736 66.5187 106.802 66.5065 106.869 66.5074C106.935 66.5083 107.001 66.5223 107.063 66.5487C107.124 66.5751 107.179 66.6134 107.226 66.6612C107.272 66.7091 107.309 66.7656 107.333 66.8276C107.381 66.953 107.377 67.0918 107.324 67.2148C107.271 67.3379 107.173 67.4356 107.049 67.4874C106.703 67.6195 106.347 67.7214 105.984 67.7919L105.852 67.8325Z" fill="#D1D3D4"/>
<path d="M103.862 67.9035C103.176 67.8285 102.497 67.6961 101.832 67.5077C101.765 67.4904 101.703 67.4601 101.648 67.4186C101.593 67.3771 101.547 67.3251 101.512 67.2658C101.477 67.2064 101.454 67.1407 101.445 67.0725C101.435 67.0043 101.439 66.9349 101.457 66.8683C101.474 66.8016 101.504 66.739 101.546 66.6841C101.587 66.6291 101.639 66.5829 101.699 66.548C101.758 66.5132 101.824 66.4903 101.892 66.4808C101.96 66.4713 102.029 66.4754 102.096 66.4927C102.714 66.6628 103.346 66.7817 103.984 66.848C104.051 66.8543 104.116 66.8738 104.175 66.9054C104.234 66.9369 104.286 66.9799 104.329 67.0318C104.371 67.0837 104.403 67.1435 104.422 67.2078C104.441 67.2721 104.448 67.3395 104.441 67.4062C104.442 67.4789 104.427 67.551 104.397 67.6173C104.367 67.6837 104.323 67.7426 104.268 67.79C104.212 67.8375 104.148 67.8722 104.077 67.8918C104.007 67.9114 103.934 67.9154 103.862 67.9035ZM99.9747 66.8885C99.9176 66.8982 99.8592 66.8982 99.8021 66.8885L97.9142 66.2085C97.8498 66.1872 97.7903 66.1533 97.7392 66.1086C97.6881 66.0639 97.6465 66.0095 97.6168 65.9484C97.5872 65.8874 97.57 65.8211 97.5665 65.7533C97.5629 65.6856 97.573 65.6178 97.596 65.554C97.6191 65.4901 97.6547 65.4316 97.7008 65.3818C97.7469 65.332 97.8026 65.292 97.8644 65.264C97.9262 65.2361 97.993 65.2209 98.0609 65.2192C98.1287 65.2176 98.1962 65.2295 98.2593 65.2544L100.147 65.9345C100.214 65.9458 100.278 65.9701 100.335 66.0061C100.392 66.0421 100.442 66.089 100.481 66.1441C100.52 66.1992 100.548 66.2615 100.563 66.3274C100.578 66.3934 100.58 66.4616 100.568 66.5282C100.557 66.5949 100.533 66.6586 100.497 66.7159C100.461 66.7731 100.414 66.8227 100.359 66.8618C100.304 66.9009 100.241 66.9288 100.175 66.9438C100.11 66.9589 100.041 66.9608 99.9747 66.9495V66.8885ZM96.1989 65.5285C96.1418 65.5381 96.0834 65.5381 96.0263 65.5285L94.1384 64.818C94.0759 64.7954 94.0185 64.7606 93.9696 64.7154C93.9208 64.6703 93.8815 64.6159 93.854 64.5553C93.8266 64.4948 93.8116 64.4293 93.8099 64.3629C93.8081 64.2964 93.8198 64.2303 93.8441 64.1684C93.8677 64.1054 93.9036 64.0478 93.9497 63.9989C93.9957 63.95 94.051 63.9106 94.1124 63.8833C94.1738 63.8559 94.24 63.841 94.3072 63.8394C94.3744 63.8378 94.4412 63.8496 94.5038 63.874L96.3816 64.5744C96.5062 64.6222 96.607 64.7171 96.6621 64.8387C96.7172 64.9603 96.7221 65.0987 96.6759 65.224C96.638 65.3181 96.5717 65.398 96.4861 65.4526C96.4006 65.5072 96.3002 65.5337 96.1989 65.5285ZM92.4637 64.1176C92.4003 64.1327 92.3342 64.1327 92.2708 64.1176C91.6517 63.874 91.0224 63.6203 90.4032 63.3564C90.2815 63.3027 90.1852 63.2042 90.1341 63.0813C90.0831 62.9585 90.0813 62.8207 90.1292 62.6966C90.1849 62.5742 90.2852 62.4776 90.4097 62.4267C90.5343 62.3757 90.6735 62.3743 90.7991 62.4226C91.4081 62.6865 92.0272 62.9301 92.6464 63.1737C92.7084 63.1983 92.7649 63.2349 92.8128 63.2814C92.8607 63.3278 92.8989 63.3833 92.9253 63.4446C92.9517 63.5059 92.9657 63.5718 92.9666 63.6385C92.9676 63.7052 92.9553 63.7714 92.9306 63.8334C92.889 63.9212 92.8226 63.9949 92.7397 64.0454C92.6567 64.0959 92.5607 64.121 92.4637 64.1176ZM88.7589 62.5647C88.6921 62.5799 88.6227 62.5799 88.5559 62.5647L86.7188 61.7222C86.6578 61.6939 86.6031 61.6538 86.5578 61.6041C86.5125 61.5545 86.4775 61.4964 86.4548 61.4331C86.4322 61.3698 86.4223 61.3027 86.4258 61.2356C86.4293 61.1685 86.4461 61.1027 86.4752 61.0422C86.5344 60.9209 86.6387 60.8276 86.7657 60.7821C86.8927 60.7366 87.0325 60.7425 87.1552 60.7985C87.7541 61.0929 88.3529 61.367 88.9619 61.6309C89.0965 61.6578 89.2149 61.7371 89.2911 61.8513C89.3672 61.9655 89.3948 62.1053 89.3679 62.2399C89.341 62.3745 89.2617 62.4928 89.1475 62.569C89.0333 62.6451 88.8935 62.6728 88.7589 62.6459V62.5647ZM85.1354 60.8392C85.0536 60.8397 84.9731 60.8187 84.9019 60.7783C84.3031 60.4738 83.7042 60.1591 83.1155 59.8242C83.0566 59.7924 83.0047 59.7492 82.9629 59.6969C82.9211 59.6447 82.8903 59.5845 82.8723 59.5201C82.8543 59.4556 82.8495 59.3882 82.8581 59.3219C82.8668 59.2555 82.8887 59.1916 82.9227 59.134C82.9888 59.017 83.0985 58.931 83.2279 58.8949C83.3573 58.8587 83.4957 58.8754 83.6129 58.9411C84.1914 59.2659 84.7801 59.5806 85.3688 59.8851C85.4281 59.915 85.4808 59.9566 85.5237 60.0073C85.5667 60.0579 85.599 60.1167 85.6189 60.1801C85.6388 60.2435 85.6457 60.3102 85.6394 60.3763C85.6331 60.4425 85.6135 60.5066 85.582 60.5651C85.5387 60.6486 85.4731 60.7185 85.3924 60.7669C85.3118 60.8153 85.2193 60.8403 85.1252 60.8392H85.1354ZM81.6336 58.8802C81.5414 58.8772 81.451 58.8529 81.3697 58.8092C80.7912 58.4539 80.2228 58.0885 79.6544 57.713C79.5987 57.6753 79.551 57.6269 79.5142 57.5707C79.4774 57.5144 79.4521 57.4514 79.4398 57.3853C79.4275 57.3192 79.4285 57.2513 79.4427 57.1856C79.4569 57.1199 79.484 57.0576 79.5224 57.0025C79.5591 56.9471 79.6066 56.8997 79.662 56.863C79.7173 56.8262 79.7795 56.801 79.8448 56.7887C79.91 56.7764 79.9771 56.7773 80.042 56.7913C80.107 56.8054 80.1684 56.8323 80.2228 56.8705C80.7709 57.2359 81.3291 57.5742 81.8975 57.8855C81.9935 57.9425 82.0681 58.0295 82.1096 58.1331C82.1512 58.2367 82.1574 58.3511 82.1273 58.4586C82.0973 58.5661 82.0326 58.6607 81.9434 58.7278C81.8541 58.7948 81.7452 58.8305 81.6336 58.8295V58.8802ZM78.2537 56.6371C78.1435 56.6394 78.0359 56.6035 77.9492 56.5356L77.3402 56.0687C77.0052 55.8149 76.6703 55.551 76.3252 55.277C76.2739 55.2343 76.2314 55.182 76.2004 55.1229C76.1693 55.0639 76.1501 54.9993 76.144 54.9328C76.1379 54.8664 76.1449 54.7994 76.1646 54.7356C76.1844 54.6719 76.2165 54.6127 76.2592 54.5614C76.3019 54.5101 76.3542 54.4677 76.4132 54.4366C76.4723 54.4055 76.5369 54.3863 76.6033 54.3802C76.6698 54.3741 76.7368 54.3811 76.8005 54.4009C76.8642 54.4206 76.9235 54.4527 76.9748 54.4954C77.2996 54.7593 77.6142 55.0232 77.9898 55.2668L78.5886 55.7236C78.6738 55.7875 78.7368 55.8766 78.7685 55.9782C78.8003 56.0799 78.7993 56.189 78.7656 56.29C78.7319 56.3911 78.6673 56.479 78.5809 56.5413C78.4945 56.6035 78.3906 56.6371 78.2841 56.6371H78.2537ZM75.2087 54.0691C75.08 54.0663 74.9569 54.0156 74.8636 53.927C74.3662 53.4601 73.8486 52.9831 73.4223 52.4857C73.375 52.4394 73.3375 52.3841 73.3118 52.3231C73.2862 52.2621 73.273 52.1966 73.273 52.1305C73.273 52.0643 73.2862 51.9988 73.3118 51.9378C73.3375 51.8768 73.375 51.8215 73.4223 51.7752C73.4694 51.7276 73.5256 51.6899 73.5874 51.6641C73.6493 51.6384 73.7156 51.6251 73.7826 51.6251C73.8496 51.6251 73.9159 51.6384 73.9778 51.6641C74.0396 51.6899 74.0957 51.7276 74.1429 51.7752C74.5895 52.2523 75.0564 52.7192 75.5436 53.1658C75.5912 53.2129 75.6289 53.2691 75.6547 53.3309C75.6805 53.3927 75.6937 53.4591 75.6937 53.5261C75.6937 53.5931 75.6805 53.6594 75.6547 53.7213C75.6289 53.7831 75.5912 53.8392 75.5436 53.8864C75.5026 53.9374 75.4518 53.9798 75.3944 54.0111C75.3369 54.0425 75.2738 54.0622 75.2087 54.0691ZM72.458 51.1459C72.3841 51.1467 72.3109 51.1307 72.2441 51.099C72.1773 51.0674 72.1185 51.0209 72.0723 50.9632C71.6359 50.4456 71.2096 49.9482 70.8137 49.3595C70.7366 49.2497 70.7052 49.1142 70.726 48.9817C70.7468 48.8492 70.8183 48.7299 70.9254 48.649C70.9793 48.6095 71.0405 48.5811 71.1054 48.5654C71.1704 48.5496 71.2378 48.5469 71.3038 48.5572C71.3698 48.5676 71.4331 48.5909 71.4901 48.6258C71.5471 48.6607 71.5966 48.7066 71.6359 48.7607C72.0216 49.2885 72.4276 49.7757 72.8437 50.3136C72.9296 50.4179 72.9714 50.5517 72.96 50.6863C72.9486 50.821 72.885 50.9459 72.7828 51.0343C72.6893 51.1053 72.5755 51.1444 72.458 51.1459ZM70.1032 47.8979C70.0168 47.8985 69.9315 47.8775 69.8553 47.8367C69.779 47.7959 69.7142 47.7367 69.6668 47.6645C69.3014 47.0859 68.9563 46.4871 68.6518 45.8882C68.5899 45.7684 68.5781 45.6289 68.619 45.5004C68.6599 45.372 68.7502 45.265 68.87 45.2031C68.9898 45.1412 69.1293 45.1294 69.2578 45.1703C69.3862 45.2112 69.4932 45.3015 69.5551 45.4213C69.8596 45.9897 70.1844 46.5581 70.5701 47.1265C70.6056 47.1831 70.6295 47.2462 70.6405 47.312C70.6515 47.3779 70.6494 47.4453 70.6343 47.5104C70.6192 47.5755 70.5915 47.6369 70.5526 47.6912C70.5137 47.7455 70.4645 47.7916 70.4077 47.8269C70.3254 47.8771 70.23 47.9019 70.1337 47.8979H70.1032ZM68.2255 44.3556C68.1264 44.3559 68.0294 44.3273 67.9465 44.2731C67.8635 44.219 67.7982 44.1418 67.7586 44.051C67.4811 43.4082 67.2375 42.7688 67.0278 42.1327C66.9968 42.068 66.9799 41.9975 66.9781 41.9258C66.9764 41.8541 66.9898 41.7829 67.0176 41.7168C67.0454 41.6507 67.0869 41.5912 67.1394 41.5423C67.1918 41.4934 67.254 41.4561 67.3219 41.433C67.3898 41.4099 67.4618 41.4015 67.5332 41.4082C67.6046 41.415 67.6738 41.4368 67.7361 41.4722C67.7985 41.5076 67.8526 41.5558 67.895 41.6137C67.9373 41.6716 67.967 41.7378 67.9819 41.8079C68.1849 42.4169 68.4285 43.0361 68.6924 43.6451C68.7439 43.7691 68.7452 43.9084 68.696 44.0334C68.6467 44.1584 68.5508 44.2594 68.4285 44.315C68.3631 44.3382 68.2947 44.3519 68.2255 44.3556ZM66.9466 40.5493C66.8336 40.5499 66.7239 40.512 66.6353 40.4419C66.5468 40.3718 66.4847 40.2737 66.4594 40.1636C66.2963 39.494 66.1675 38.8164 66.0737 38.1336C66.0637 38.0674 66.0672 37.9999 66.0839 37.9352C66.1006 37.8704 66.1302 37.8096 66.171 37.7566C66.2117 37.7035 66.2628 37.6592 66.321 37.6263C66.3793 37.5934 66.4436 37.5726 66.5101 37.5652C66.6418 37.5477 66.7751 37.5826 66.8814 37.6623C66.9876 37.742 67.0584 37.8602 67.0785 37.9915C67.1699 38.631 67.2917 39.2806 67.4439 39.92C67.4718 40.0503 67.4483 40.1864 67.3783 40.2998C67.3083 40.4133 67.1973 40.4954 67.0684 40.529L66.9466 40.5493Z" fill="#D1D3D4"/>
<path d="M66.3985 36.5604C66.2673 36.5605 66.1412 36.5098 66.0466 36.419C65.952 36.3281 65.8962 36.2042 65.891 36.0732C65.891 35.7281 65.891 35.383 65.891 35.0582C65.888 34.9912 65.8991 34.9243 65.9237 34.862C65.9483 34.7996 65.9858 34.7431 66.0337 34.6961C66.0815 34.6492 66.1388 34.6129 66.2016 34.5896C66.2645 34.5663 66.3316 34.5565 66.3985 34.5608C66.5331 34.5608 66.6622 34.6143 66.7573 34.7095C66.8525 34.8046 66.906 34.9337 66.906 35.0683C66.906 35.4033 66.906 35.7281 66.906 36.0833C66.9087 36.15 66.8982 36.2165 66.8752 36.2791C66.8522 36.3418 66.8171 36.3992 66.7718 36.4482C66.7266 36.4973 66.6721 36.5369 66.6115 36.5648C66.5509 36.5928 66.4854 36.6085 66.4188 36.6111L66.3985 36.5604Z" fill="#D1D3D4"/>
<path d="M67.5555 22.6346C70.5835 19.9491 72.7044 16.3909 73.626 12.4499C74.5477 8.50893 74.2247 4.37916 72.7016 0.629395C72.7016 0.629395 65.5966 0.812093 63.2722 9.10464C60.9479 17.3972 67.5555 22.6346 67.5555 22.6346Z" fill="white"/>
<path d="M67.5556 23.142C67.4404 23.1458 67.328 23.106 67.2409 23.0304C67.1699 23.0304 60.4303 17.4986 62.7749 8.97262C65.1196 0.446624 72.6103 0.121826 72.6915 0.121826C72.7968 0.122647 72.8996 0.154984 72.9864 0.214679C73.0732 0.274373 73.1402 0.35869 73.1787 0.456774C74.7164 4.30954 75.0319 8.54208 74.0823 12.5802C73.1327 16.6184 70.9639 20.2667 67.8702 23.0304C67.7832 23.106 67.6708 23.1458 67.5556 23.142ZM72.3565 1.16727C70.9152 1.32967 65.6474 2.37512 63.7595 9.28727C61.8716 16.1994 66.3173 20.8481 67.5556 22.0052C70.3713 19.4262 72.3377 16.0533 73.195 12.3325C74.0523 8.61169 73.7599 4.71831 72.3565 1.16727Z" fill="#D1D3D4"/>
<path d="M68.459 27.9024C68.3562 27.9017 68.2559 27.8705 68.171 27.8126C68.086 27.7548 68.0202 27.673 67.9819 27.5776C63.9219 16.6359 71.91 1.05564 72.2449 0.395892C72.3095 0.277419 72.4178 0.18884 72.5467 0.149026C72.6756 0.109213 72.815 0.121308 72.9351 0.182739C73.0529 0.245348 73.1412 0.351795 73.1811 0.479057C73.221 0.606319 73.2092 0.744169 73.1483 0.862791C73.0671 1.02519 65.0283 16.7069 68.936 27.2528C68.9603 27.3147 68.9719 27.3808 68.9702 27.4473C68.9685 27.5138 68.9535 27.5792 68.926 27.6398C68.8986 27.7003 68.8593 27.7548 68.8105 27.7999C68.7616 27.845 68.7042 27.8798 68.6417 27.9024C68.5811 27.9121 68.5195 27.9121 68.459 27.9024Z" fill="#D1D3D4"/>
<path d="M55.1016 125.85C58.1283 128.536 60.2483 132.094 61.1698 136.035C62.0914 139.976 61.7692 144.105 60.2476 147.855C60.2476 147.855 53.1426 147.683 50.8183 139.38C48.4939 131.077 55.1016 125.85 55.1016 125.85Z" fill="white"/>
<path d="M60.2476 148.363C60.1765 148.363 52.696 148.078 50.3412 139.512C47.9864 130.945 54.726 125.505 54.797 125.454C54.8875 125.381 55.0003 125.341 55.1168 125.341C55.2332 125.341 55.3461 125.381 55.4365 125.454C58.5281 128.221 60.6944 131.872 61.6421 135.911C62.5898 139.951 62.2731 144.184 60.7348 148.038C60.6971 148.136 60.63 148.219 60.5428 148.277C60.4555 148.336 60.3524 148.365 60.2476 148.363ZM55.1015 126.52C53.3535 128.08 52.073 130.096 51.4028 132.341C50.7325 134.587 50.6988 136.974 51.3054 139.238C53.2035 146.109 58.4713 147.165 59.9025 147.358C61.2664 143.801 61.5381 139.918 60.6829 136.206C59.8276 132.494 57.8843 129.121 55.1015 126.52Z" fill="#D1D3D4"/>
<path d="M60.2475 148.363C60.1552 148.362 60.0648 148.336 59.9861 148.288C59.9074 148.239 59.8434 148.17 59.8009 148.089C59.4558 147.429 51.5084 131.849 55.5379 120.907C55.5857 120.782 55.6807 120.681 55.8023 120.626C55.9239 120.571 56.0623 120.566 56.1875 120.612C56.314 120.658 56.4171 120.752 56.4742 120.874C56.5313 120.996 56.5377 121.136 56.492 121.262C52.6147 131.788 60.6231 147.469 60.7043 147.652C60.7645 147.772 60.7748 147.911 60.7329 148.038C60.6911 148.166 60.6005 148.271 60.481 148.332C60.407 148.362 60.3267 148.373 60.2475 148.363Z" fill="#D1D3D4"/>
<path d="M59.1107 64.686C55.895 67.1432 51.9969 68.5436 47.9527 68.6944C43.9084 68.8453 39.9168 67.7392 36.527 65.5284C36.527 65.5284 38.0596 58.5554 46.677 57.8956C55.2943 57.2359 59.1107 64.686 59.1107 64.686Z" fill="white"/>
<path d="M47.1845 69.2231C43.3074 69.1825 39.5197 68.0535 36.253 65.9649C36.164 65.9101 36.0944 65.8286 36.0544 65.7321C36.0143 65.6355 36.0056 65.5287 36.0297 65.427C36.0297 65.3458 37.745 58.0682 46.606 57.3882C55.4669 56.7081 59.5168 64.3714 59.5574 64.4932C59.6118 64.5945 59.6295 64.7116 59.6073 64.8245C59.585 64.9374 59.5244 65.0391 59.4356 65.1123C55.8943 67.7531 51.602 69.1934 47.1845 69.2231ZM37.1157 65.295C40.3278 67.3386 44.0834 68.3615 47.8881 68.2293C51.6928 68.097 55.3683 66.8157 58.4307 64.5541C57.2306 62.5471 55.498 60.9118 53.4251 59.8297C51.3521 58.7475 49.0199 58.2608 46.6872 58.4235C39.5822 58.9411 37.542 63.9146 37.1157 65.295Z" fill="#D1D3D4"/>
<path d="M63.6072 66.9901C63.5143 66.9921 63.4227 66.9674 63.3433 66.9191C53.7617 61.1031 36.8417 65.965 36.6691 66.0157C36.5345 66.0534 36.3905 66.0361 36.2686 65.9675C36.1468 65.899 36.0572 65.7849 36.0195 65.6503C35.9818 65.5157 35.9992 65.3717 36.0677 65.2498C36.1362 65.128 36.2503 65.0384 36.3849 65.0007C37.0954 64.7977 53.8937 59.9257 63.8711 66.0157C63.9624 66.0746 64.0323 66.1612 64.0707 66.2628C64.1091 66.3644 64.1139 66.4756 64.0843 66.5802C64.0548 66.6847 63.9925 66.777 63.9066 66.8434C63.8207 66.9099 63.7158 66.9471 63.6072 66.9495V66.9901Z" fill="#D1D3D4"/>
</svg>
