<svg width="565px" height="465px" viewBox="0 0 567 469" fill="none" xmlns="http://www.w3.org/2000/svg">
<g clip-path="url(#clip0)">
<path opacity="0.18" d="M566.464 339.134C565.357 358.52 563.11 378.207 555.295 395.967C541.023 428.454 509.175 450.906 475.064 460.791C466.391 463.276 457.545 465.113 448.6 466.286C422.471 469.822 395.588 468.28 369.325 465.047C346.785 462.265 324.379 458.244 301.873 455.161C289.194 453.486 276.465 451.978 263.703 451.224C239.268 449.8 214.783 450.872 190.365 452.631C189.224 452.631 188.067 452.782 187.011 452.883C164.823 454.558 142.283 456.686 120.33 454.005C115.251 453.409 110.211 452.514 105.237 451.324C102.676 450.721 100.144 450.018 97.6396 449.213C72.3997 441.221 50.2624 424.45 30.7916 407.142C10.7507 389.332 1.3591 361.72 0.45348 335.482C-0.619844 304.586 -4.81251 252.998 100.105 168.386C122.142 150.526 120.28 115.525 130.762 89.153C145.855 51.3374 176.78 19.0845 215.638 6.80321C232.409 1.47519 250.236 -0.116518 267.862 0.101294C290.27 0.286219 312.572 3.20073 334.274 8.78027C375.261 19.252 423.896 40.5138 454.805 73.1689C460.15 78.7712 464.977 84.8443 469.228 91.3143C495.558 131.66 492.589 184.153 519.691 224.247C531.43 241.555 548.201 255.327 557.525 274.042C567.47 293.813 567.739 316.985 566.464 339.134Z" fill="white"/>
<path d="M190.364 452.631C189.224 452.631 188.066 452.781 187.01 452.882C164.822 454.557 142.282 456.685 120.33 454.004C115.25 453.408 110.21 452.513 105.236 451.324C102.676 450.721 100.143 450.017 97.6389 449.213C95.3916 377.737 156.823 283.072 164.302 271.712L187.329 272.684L260.097 275.75C194.305 338.145 188.133 413.19 190.364 452.631Z" fill="#5F6CAD"/>
<path d="M190.364 452.631C189.224 452.631 188.066 452.781 187.01 452.882C164.822 454.557 142.282 456.685 120.33 454.004C115.25 453.408 110.21 452.513 105.236 451.324C102.676 450.721 100.143 450.017 97.6389 449.213C95.3916 377.737 156.823 283.072 164.302 271.712L187.329 272.684L260.097 275.75C194.305 338.145 188.133 413.19 190.364 452.631Z" fill="url(#paint0_linear)"/>
<path d="M189.458 270.606C188.721 271.293 187.999 271.98 187.295 272.684C119.81 338.363 117.059 417.194 120.246 453.971C115.166 453.375 110.126 452.48 105.152 451.29C102.592 450.687 100.059 449.983 97.5551 449.179C95.3916 377.737 156.823 283.072 164.302 271.712L165.057 270.606H189.458Z" fill="#5F6CAD"/>
<path d="M357.283 118.875C354.532 123.901 355.388 129.967 354.18 135.512C353.821 137.082 353.362 138.626 352.805 140.137C350.692 146.202 348.025 152.435 342.944 156.372C341.379 157.276 340.087 158.584 339.204 160.159C338.948 160.975 338.892 161.841 339.041 162.684C339.19 163.527 339.539 164.321 340.059 165.001C341.126 166.309 342.394 167.44 343.816 168.352C343.531 171.25 343.614 174.685 343.313 177.567C342.659 183.951 342.239 191.138 346.465 195.997C349.82 199.734 354.985 201.024 359.882 201.593C364.779 202.163 369.944 202.465 374.338 204.944C383.596 210.088 386.078 223.157 395.285 228.401C398.027 229.85 401.033 230.733 404.123 230.998C410.646 231.922 417.292 230.699 423.057 227.513C428.675 224.162 447.056 218.7 442.075 214.461C436.642 209.853 428.306 196.785 424.416 189.831C420.084 182.102 417.139 173.676 415.712 164.934C414.538 157.646 414.42 150.24 413.33 142.952C412.24 135.663 409.976 128.291 405.297 122.628C398.237 114.251 386.698 110.9 375.73 110.28C372.668 109.972 369.575 110.199 366.59 110.95C365.095 111.328 363.693 112.009 362.473 112.952C361.252 113.894 360.239 115.078 359.496 116.429" fill="#F9BA9F"/>
<path d="M465.353 153.122C464.917 156.995 463.846 160.771 462.183 164.297C461.227 166.674 459.859 168.863 458.142 170.765C454.787 173.747 454.687 178.79 452.624 182.728C451.215 185.243 449.261 187.412 446.905 189.078C442.191 192.554 436.693 194.817 430.896 195.667C425.099 196.518 419.181 195.929 413.666 193.953L411.989 193.317C407.062 191.019 402.391 188.211 398.052 184.939C397.78 184.76 397.56 184.511 397.415 184.219C397.13 183.515 397.734 182.811 398.27 182.258C400.042 180.441 401.437 178.291 402.375 175.934C403.314 173.576 403.776 171.056 403.737 168.519C403.823 166.35 403.153 164.219 401.842 162.488C401.163 161.65 400.218 161.068 399.164 160.836C398.11 160.605 397.008 160.738 396.04 161.214C394.363 162.169 392.686 164.448 391.243 163.225C390.82 162.763 390.56 162.174 390.505 161.549C390.024 157.82 389.037 154.173 387.571 150.709C385.598 147.364 383.171 144.308 380.359 141.628C373.823 134.432 368.571 126.169 364.829 117.2C364.605 116.392 364.107 115.687 363.421 115.206C362.778 114.924 362.068 114.831 361.375 114.938C358.317 115.117 355.25 115.061 352.201 114.77C350.646 114.769 349.135 114.25 347.908 113.296C345.828 111.302 346.767 107.75 348.445 105.421C352.251 100.076 358.608 97.2781 364.662 94.7481C363.102 93.7261 360.637 91.481 359.077 90.4589C358.538 90.1776 358.103 89.7314 357.836 89.1855C357.501 88.1468 358.507 87.1415 359.513 86.6388C361.267 85.7508 363.254 85.4288 365.198 85.7173C364.913 81.093 359.949 76.8038 361.844 72.5816C363.136 69.8003 366.876 69.0798 369.861 69.817C372.846 70.5542 375.429 72.3805 378.33 73.3523C378.984 71.325 377.173 69.2138 377.508 67.1027C377.688 66.3465 378.078 65.6562 378.633 65.1109C379.187 64.5657 379.884 64.1876 380.644 64.0199C382.191 63.7156 383.789 63.8078 385.29 64.2879C388.802 65.2276 392.058 66.9456 394.815 69.3144C396.427 71.0159 398.247 72.5076 400.232 73.7544C404.157 75.7817 408.869 74.6592 413.28 74.6592C418.48 74.8682 423.596 76.0325 428.374 78.0939C431.544 79.2828 434.646 80.6477 437.665 82.182C441.69 84.1837 445.449 86.683 448.851 89.6212C457.437 97.1608 462.804 107.901 465.168 119.059C467.276 130.31 467.338 141.849 465.353 153.122Z" fill="black"/>
<path d="M74.7805 99.5066L83.3336 90.5596L286.611 99.5066L333.871 266.786L325.318 275.733H113.068L74.7805 99.5066Z" fill="#5F6CAD"/>
<path d="M74.7805 99.5066L83.3336 90.5596L286.611 99.5066L333.871 266.786L325.318 275.733H113.068L74.7805 99.5066Z" fill="url(#paint1_linear)"/>
<path d="M83.3335 90.5596H295.164L333.871 266.786H121.621L83.3335 90.5596Z" fill="#5F6CAD"/>
<path d="M91.8866 96.5747H289.261L325.318 260.772H127.558L91.8866 96.5747Z" fill="white"/>
<path d="M245.942 328.411C245.803 329.595 245.369 330.726 244.681 331.7C243.992 332.675 243.071 333.462 242.001 333.99C238.915 335.8 235.142 335.9 231.553 335.95C229.064 336.17 226.557 335.844 224.207 334.995C222.202 333.915 220.403 332.492 218.891 330.79C210.17 322.412 198.582 316.062 194.255 304.82C192.158 299.358 192.058 293.376 191.991 287.562C191.991 281.38 191.991 274.594 196.1 269.953C199.303 266.284 204.602 264.424 206.682 260.018C203.181 258.05 200.003 255.558 197.257 252.629C195.903 251.148 194.899 249.383 194.318 247.464C193.738 245.544 193.596 243.519 193.903 241.537C198.761 243.155 203.416 245.331 207.772 248.021C215.718 252.928 222.597 259.379 228.002 266.991C233.406 274.604 237.226 283.223 239.234 292.338C240.911 300.397 241.079 308.774 243.292 316.733C244.282 320.419 246.378 324.708 245.942 328.411Z" fill="#F9BA9F"/>
<path d="M245.942 328.41C245.144 328.766 244.43 329.285 243.846 329.935C241.582 333.286 235.997 332.432 233.146 329.5C230.295 326.567 229.188 322.429 227.243 318.827C222.379 309.695 211.847 302.826 211.881 292.488C211.881 284.496 218.589 277.409 217.985 269.551C217.65 265.396 215.386 262.011 212.954 258.861C210.695 255.531 208.959 251.875 207.806 248.021C215.752 252.928 222.631 259.379 228.035 266.991C233.44 274.604 237.259 283.223 239.267 292.337C240.944 300.396 241.112 308.774 243.326 316.732C244.282 320.418 246.378 324.708 245.942 328.41Z" fill="url(#paint2_linear)"/>
<path d="M459.819 436.948C457.756 447.252 454.67 457.908 448.599 466.286C447.727 466.403 446.922 466.52 445.983 466.604C440.75 467.241 435.496 467.693 430.218 467.961C409.874 468.749 389.5 467.773 369.324 465.046C346.784 462.264 324.379 458.243 301.872 455.16C302.925 453.972 304.132 452.929 305.461 452.061C312.189 447.062 317.735 440.647 321.705 433.27C325.676 425.892 327.974 417.733 328.437 409.37C327.103 408.48 325.546 407.981 323.943 407.929C319.683 407.527 314.199 408.448 311.063 408.063C285.001 404.795 219.411 340.909 219.411 340.909L251.996 324.624L300.48 340.909C300.48 340.909 352.62 259.113 373.802 235.639C394.983 212.166 433.187 211.68 433.187 211.68C437.764 211.508 442.34 212.074 446.737 213.355C472.699 220.945 486.082 252.394 487.826 279.017C491.331 331.393 469.948 386.432 459.819 436.948Z" fill="white"/>
<path d="M465.353 153.122C464.917 156.996 463.846 160.771 462.183 164.297C461.227 166.674 459.859 168.863 458.141 170.765C454.787 173.747 454.687 178.79 452.624 182.728C451.214 185.243 449.261 187.413 446.905 189.078C442.191 192.554 436.693 194.817 430.896 195.668C425.099 196.518 419.181 195.929 413.666 193.953L411.989 193.317C411.267 192.187 410.702 190.963 410.312 189.681L417.02 189.446C416.891 187.097 415.941 184.868 414.336 183.147L429.615 182.845C431.702 183.092 433.812 182.643 435.617 181.567C437.422 180.491 438.82 178.849 439.593 176.897C441.907 173.311 444.306 169.391 443.92 165.169C443.528 162.685 442.657 160.3 441.354 158.148C438 151.597 434.646 144.745 433.707 137.49C432.767 130.235 434.931 122.042 440.784 117.518C442.018 116.754 443.109 115.779 444.004 114.636C444.753 113.261 445.013 111.672 444.742 110.129C443.97 103.126 438.52 97.6804 433.388 92.8215L422.034 82.0146C423.309 83.2377 429.111 83.3885 431.007 83.9917C434.198 85.0842 437.327 86.3482 440.381 87.7783C439.912 86.3876 438.704 84.4273 437.648 82.1822C441.674 84.1839 445.432 86.6832 448.834 89.6213C457.42 97.161 462.787 107.901 465.152 119.059C467.265 130.31 467.333 141.848 465.353 153.122Z" fill="black"/>
<path d="M459.819 436.948C457.756 447.252 454.67 457.908 448.599 466.286C447.727 466.403 446.922 466.52 445.983 466.604C422.621 468.933 400.702 470.877 377.491 465.8C373.886 465.012 369.626 463.437 368.989 459.802C368.854 457.7 369.394 455.61 370.531 453.837C386.43 421.768 396.61 384.573 396.174 348.617C387.52 347.528 376.837 364.266 370.531 369.979L347.338 390.99C337.275 400.037 325.703 409.688 312.27 408.633C304.354 408.013 297.277 403.707 290.468 399.518L266.604 384.573C259.577 380.2 251.946 375.022 250.101 366.947C261.321 367.801 271.148 374.302 281.211 379.312C291.273 384.321 303.398 387.991 313.511 383.081C320.79 379.546 325.418 372.325 329.745 365.506C358.163 320.629 389.32 277.543 423.04 236.494C431.174 226.592 432.533 211.831 446.788 213.422C472.749 221.012 486.132 252.461 487.876 279.084C491.331 331.393 469.948 386.432 459.819 436.948Z" fill="url(#paint3_linear)"/>
<path opacity="0.18" d="M140.522 129.045C142.287 126.779 144.502 124.902 147.029 123.533C149.916 121.81 153.092 120.623 156.403 120.031C160.674 119.483 165.015 120.01 169.03 121.564C173.046 123.117 176.609 125.649 179.396 128.928C184.921 135.636 187.786 144.139 187.446 152.82C188.574 152.438 189.8 152.46 190.914 152.882C192.027 153.303 192.96 154.099 193.55 155.133C194.653 157.255 195.063 159.669 194.724 162.036C194.691 164.019 194.111 165.956 193.047 167.632C192.498 168.457 191.707 169.091 190.782 169.448C189.857 169.806 188.844 169.867 187.882 169.625C188.455 172.065 188.469 174.602 187.923 177.048C187.377 179.494 186.285 181.785 184.729 183.75C183.421 185.425 181.727 186.916 181.375 188.977C181.04 191.557 183.052 193.903 185.467 195.026C187.914 195.906 190.412 196.639 192.947 197.221C198.432 199.324 202.943 203.383 205.609 208.614C208.232 213.806 210.198 219.305 211.462 224.983C211.763 226.123 211.998 227.513 211.126 228.334C210.5 228.785 209.731 228.993 208.963 228.921L142.534 230.981C141.779 223.291 141.343 214.595 146.525 208.848C150.534 204.425 156.839 203.068 162.709 201.929C162.637 198.539 161.843 195.203 160.378 192.144C159.998 191.19 159.366 190.356 158.55 189.731C157.662 189.273 156.704 188.961 155.716 188.81C149.192 187.134 145.653 180.114 143.976 173.596C143.762 172.415 143.342 171.281 142.735 170.245C141.775 169.067 140.559 168.122 139.18 167.481C131.08 162.84 129.386 157.663 135.222 150.726C140.471 144.745 135.423 136.066 140.522 129.045Z" fill="#5F6CAD"/>
<path opacity="0.32" d="M19.1185 37.6143L47.0417 175.724H130.442L106.812 37.6143H19.1185Z" fill="#5F6CAD"/>
<path opacity="0.32" d="M44.6603 225.754L72.5667 363.88H155.967L132.337 225.754H44.6603Z" fill="#5F6CAD"/>
<path opacity="0.32" d="M214.782 37.6143L242.689 175.724H326.089L302.459 37.6143H214.782Z" fill="#5F6CAD"/>
<path d="M223.62 23.4399L251.527 161.55H334.927L311.297 23.4399H223.62Z" fill="url(#paint4_linear)"/>
<path d="M34.1787 41.3843L58.8316 163.376H132.488L111.626 41.3843H34.1787Z" fill="url(#paint5_linear)"/>
<path d="M50.899 219.689L78.8055 357.799H162.206L138.576 219.689H50.899Z" fill="url(#paint6_linear)"/>
</g>
<defs>
<linearGradient id="paint0_linear" x1="94.9723" y1="178.288" x2="303.64" y2="637.518" gradientUnits="userSpaceOnUse">
<stop offset="0.01"/>
<stop offset="0.13" stop-opacity="0.69"/>
<stop offset="0.25" stop-opacity="0.32"/>
<stop offset="1" stop-opacity="0"/>
</linearGradient>
<linearGradient id="paint1_linear" x1="37399.3" y1="14099" x2="19350.9" y2="52345.8" gradientUnits="userSpaceOnUse">
<stop offset="0.01"/>
<stop offset="0.13" stop-opacity="0.69"/>
<stop offset="0.25" stop-opacity="0.32"/>
<stop offset="1" stop-opacity="0"/>
</linearGradient>
<linearGradient id="paint2_linear" x1="7064.27" y1="13833.2" x2="3533.91" y2="14752.8" gradientUnits="userSpaceOnUse">
<stop offset="0.01"/>
<stop offset="0.13" stop-opacity="0.69"/>
<stop offset="0.25" stop-opacity="0.32"/>
<stop offset="1" stop-opacity="0"/>
</linearGradient>
<linearGradient id="paint3_linear" x1="138024" y1="45271.2" x2="-31428.7" y2="62586.3" gradientUnits="userSpaceOnUse">
<stop offset="0.01"/>
<stop offset="0.13" stop-opacity="0.69"/>
<stop offset="0.25" stop-opacity="0.32"/>
<stop offset="1" stop-opacity="0"/>
</linearGradient>
<linearGradient id="paint4_linear" x1="203.412" y1="35.0678" x2="976.912" y2="605.565" gradientUnits="userSpaceOnUse">
<stop offset="0.01" stop-color="white"/>
<stop offset="0.13" stop-color="white" stop-opacity="0.69"/>
<stop offset="0.15" stop-color="white" stop-opacity="0.61"/>
<stop offset="0.2" stop-color="white" stop-opacity="0.47"/>
<stop offset="0.25" stop-color="white" stop-opacity="0.34"/>
<stop offset="0.3" stop-color="white" stop-opacity="0.23"/>
<stop offset="0.36" stop-color="white" stop-opacity="0.15"/>
<stop offset="0.44" stop-color="white" stop-opacity="0.08"/>
<stop offset="0.52" stop-color="white" stop-opacity="0.03"/>
<stop offset="0.65" stop-color="white" stop-opacity="0.01"/>
<stop offset="1" stop-color="white" stop-opacity="0"/>
</linearGradient>
<linearGradient id="paint5_linear" x1="990.733" y1="3802.38" x2="46710.8" y2="30951.6" gradientUnits="userSpaceOnUse">
<stop offset="0.01" stop-color="white"/>
<stop offset="0.13" stop-color="white" stop-opacity="0.69"/>
<stop offset="0.15" stop-color="white" stop-opacity="0.61"/>
<stop offset="0.2" stop-color="white" stop-opacity="0.47"/>
<stop offset="0.25" stop-color="white" stop-opacity="0.34"/>
<stop offset="0.3" stop-color="white" stop-opacity="0.23"/>
<stop offset="0.36" stop-color="white" stop-opacity="0.15"/>
<stop offset="0.44" stop-color="white" stop-opacity="0.08"/>
<stop offset="0.52" stop-color="white" stop-opacity="0.03"/>
<stop offset="0.65" stop-color="white" stop-opacity="0.01"/>
<stop offset="1" stop-color="white" stop-opacity="0"/>
</linearGradient>
<linearGradient id="paint6_linear" x1="2087.82" y1="19287.1" x2="60686.2" y2="54086" gradientUnits="userSpaceOnUse">
<stop offset="0.01" stop-color="white"/>
<stop offset="0.13" stop-color="white" stop-opacity="0.69"/>
<stop offset="0.15" stop-color="white" stop-opacity="0.61"/>
<stop offset="0.2" stop-color="white" stop-opacity="0.47"/>
<stop offset="0.25" stop-color="white" stop-opacity="0.34"/>
<stop offset="0.3" stop-color="white" stop-opacity="0.23"/>
<stop offset="0.36" stop-color="white" stop-opacity="0.15"/>
<stop offset="0.44" stop-color="white" stop-opacity="0.08"/>
<stop offset="0.52" stop-color="white" stop-opacity="0.03"/>
<stop offset="0.65" stop-color="white" stop-opacity="0.01"/>
<stop offset="1" stop-color="white" stop-opacity="0"/>
</linearGradient>
<clipPath id="clip0">
<rect width="567" height="469" fill="white"/>
</clipPath>
</defs>
</svg>
