<svg width="565px" height="465px" viewBox="0 0 878 704" fill="none" xmlns="http://www.w3.org/2000/svg">
<path d="M580.598 194.914C580.598 194.914 590.288 188.212 627.531 219.503C664.774 250.794 666.269 279.096 666.269 279.096V155.333C666.269 155.333 646.888 101.624 584.334 80.8408L580.598 194.914Z" fill="#93A18D"/>
<path d="M666.269 280.264C665.969 280.27 665.679 280.159 665.461 279.953C665.243 279.748 665.114 279.465 665.102 279.166C665.102 278.886 663.14 250.934 626.784 220.39C591.222 190.523 581.415 195.848 581.228 195.894C581.044 196.003 580.835 196.061 580.621 196.061C580.408 196.061 580.198 196.003 580.014 195.894C579.834 195.79 579.685 195.64 579.583 195.46C579.48 195.279 579.427 195.074 579.43 194.867L583.166 80.8874C583.167 80.7057 583.212 80.5268 583.296 80.3657C583.38 80.2045 583.501 80.0657 583.65 79.9607C583.798 79.8557 583.969 79.7876 584.149 79.7619C584.329 79.7363 584.512 79.7539 584.684 79.8132C647.075 100.596 667.18 154.538 667.366 155.005C667.387 155.137 667.387 155.271 667.366 155.402V279.166C667.367 279.472 667.247 279.765 667.033 279.984C666.819 280.202 666.528 280.328 666.222 280.334L666.269 280.264ZM583.75 193.209C589.424 193.209 602.267 196.852 628.279 218.709C652.096 238.721 661.436 257.402 665.102 268.541V155.659C657.59 138.631 646.633 123.344 632.921 110.76C619.209 98.1765 603.04 88.5698 585.431 82.5454L581.812 193.209C582.456 193.142 583.106 193.142 583.75 193.209Z" fill="black"/>
<path d="M284.636 236.947V126.797C327.424 111.92 372.765 105.798 417.965 108.793V214.482C417.965 214.482 336.357 216.724 284.636 236.947Z" fill="#93A18D"/>
<path d="M284.66 238.114C284.42 238.121 284.184 238.056 283.983 237.927C283.831 237.812 283.708 237.664 283.623 237.494C283.538 237.324 283.493 237.137 283.492 236.946V126.797C283.489 126.562 283.556 126.332 283.685 126.136C283.814 125.941 283.999 125.788 284.216 125.699C327.211 110.843 372.734 104.699 418.128 107.625C418.422 107.648 418.695 107.782 418.894 107.998C419.093 108.215 419.203 108.498 419.203 108.793V214.482C419.203 214.784 419.086 215.074 418.877 215.292C418.668 215.509 418.383 215.638 418.082 215.65C417.264 215.65 336.006 218.125 284.987 238.044C284.881 238.081 284.771 238.104 284.66 238.114ZM285.827 127.591V235.242C333.858 216.981 406.897 213.688 416.868 213.314V109.89C372.451 107.19 327.936 113.203 285.827 127.591Z" fill="black"/>
<path d="M233.5 298.291C233.5 298.291 193.805 314.777 178.791 363.489V265.972C178.791 265.972 177.927 218.755 233.5 188.772V298.291Z" fill="#93A18D"/>
<path d="M178.674 364.563H178.511C178.232 364.519 177.978 364.377 177.795 364.164C177.611 363.95 177.509 363.678 177.507 363.396V265.973C177.507 265.506 177.507 217.728 232.823 187.745C233.002 187.647 233.202 187.595 233.407 187.595C233.611 187.595 233.811 187.647 233.99 187.745C234.161 187.851 234.302 187.999 234.4 188.175C234.498 188.35 234.55 188.548 234.551 188.749V298.291C234.55 298.522 234.48 298.747 234.351 298.938C234.223 299.129 234.04 299.278 233.827 299.366C220.912 305.835 209.457 314.877 200.166 325.937C190.874 336.996 183.942 349.839 179.795 363.676C179.733 363.927 179.589 364.151 179.386 364.311C179.183 364.472 178.933 364.561 178.674 364.563ZM232.216 190.874C179.795 220.063 179.795 265.599 179.795 265.949V356.367C189.247 330.854 207.94 309.825 232.169 297.451L232.216 190.874Z" fill="black"/>
<path d="M178.674 265.973C178.674 265.973 188.411 308.333 225.888 322.39V436.37C225.888 436.37 183.181 406.876 178.674 363.396V265.973Z" fill="white"/>
<path d="M225.888 437.537C225.653 437.539 225.424 437.465 225.234 437.327C224.79 437.023 182.013 406.97 177.53 363.512V265.972C177.534 265.683 177.642 265.406 177.836 265.191C178.029 264.976 178.294 264.839 178.581 264.805C178.867 264.77 179.156 264.844 179.39 265.013C179.624 265.182 179.785 265.433 179.842 265.716C179.842 266.136 189.906 307.749 226.331 321.292C226.553 321.378 226.743 321.529 226.876 321.725C227.01 321.921 227.08 322.153 227.079 322.39V436.369C227.077 436.582 227.017 436.79 226.906 436.971C226.795 437.152 226.637 437.299 226.448 437.397C226.278 437.494 226.084 437.542 225.888 437.537ZM179.795 273.562V363.395C183.648 400.595 216.501 427.823 224.674 434.057V323.184C197.167 312.466 184.465 286.358 179.795 273.562Z" fill="black"/>
<path d="M487.151 318.327C487.151 318.327 532.263 470.743 550.5 478.379C568.736 486.015 596.826 465.559 599.184 452.552C601.543 439.545 564.813 288.787 564.813 288.787L487.151 318.327Z" fill="white"/>
<path d="M559.303 481.228C556.101 481.279 552.922 480.675 549.963 479.453C542.07 476.161 528.948 448.045 510.781 395.878C497.378 357.231 486.054 319.028 485.937 318.654C485.847 318.372 485.869 318.066 486 317.8C486.131 317.535 486.359 317.33 486.637 317.229L564.299 287.713C564.451 287.649 564.614 287.617 564.778 287.617C564.943 287.617 565.105 287.649 565.257 287.713C565.404 287.791 565.533 287.901 565.634 288.034C565.735 288.167 565.805 288.32 565.841 288.484C567.358 294.648 602.64 439.592 600.258 452.716C598.904 460.071 590.148 469.435 578.963 475.507C572.96 478.955 566.219 480.916 559.303 481.228ZM488.575 319.028C490.467 325.403 500.928 360.08 513.093 395.107C536.443 462.663 546.88 475.6 550.967 477.305C558.112 480.317 567.965 478.916 577.959 473.499C588.397 467.848 596.849 458.927 598.04 452.342C599.862 442.324 576.745 342.776 563.973 290.352L488.575 319.028Z" fill="black"/>
<path d="M565.07 445.406C563.155 396.018 639.953 328.064 639.953 328.064L681.983 354.732C681.983 354.732 650.718 443.819 619.966 473.825C604.765 488.7 566.121 475.764 565.07 445.406Z" fill="white"/>
<path d="M602.99 481.251C597.936 481.201 592.937 480.195 588.257 478.285C576.862 473.755 564.439 462.757 563.786 445.476C562.968 424.693 575.461 398.47 600.772 367.505C612.562 353.184 625.359 339.722 639.066 327.224C639.268 327.072 639.514 326.99 639.767 326.99C640.019 326.99 640.265 327.072 640.467 327.224L682.497 353.868C682.724 354.007 682.896 354.22 682.985 354.471C683.074 354.721 683.075 354.995 682.988 355.246C682.661 356.133 651.302 444.939 620.69 474.899C615.841 479.239 609.492 481.517 602.99 481.251ZM566.121 445.406C566.728 461.566 578.403 471.864 589.12 476.137C600.562 480.691 612.634 479.5 619.125 473.125C647.729 445.103 677.197 364.563 680.536 355.246L639.977 329.559C632.528 336.308 564.346 399.614 566.121 445.383V445.406Z" fill="black"/>
<path d="M598.274 472.331C598.032 472.33 597.796 472.257 597.597 472.121C597.347 471.938 597.178 471.665 597.125 471.36C597.073 471.055 597.142 470.741 597.316 470.486C597.924 469.645 658.026 385.089 669.048 336.728C669.081 336.577 669.143 336.435 669.232 336.308C669.32 336.182 669.433 336.075 669.563 335.992C669.693 335.91 669.839 335.854 669.991 335.828C670.143 335.802 670.298 335.806 670.449 335.841C670.599 335.873 670.741 335.936 670.866 336.025C670.991 336.114 671.097 336.227 671.178 336.358C671.259 336.488 671.312 336.634 671.335 336.786C671.358 336.938 671.351 337.093 671.313 337.242C660.175 386.047 599.838 471 599.231 471.84C599.124 471.994 598.981 472.12 598.814 472.205C598.647 472.291 598.461 472.334 598.274 472.331Z" fill="#93A18D"/>
<path d="M502.609 350.225C537.015 350.225 564.906 322.332 564.906 287.923C564.906 253.515 537.015 225.621 502.609 225.621C468.203 225.621 440.311 253.515 440.311 287.923C440.311 322.332 468.203 350.225 502.609 350.225Z" fill="black"/>
<path d="M502.609 351.393C490.056 351.393 477.786 347.67 467.349 340.696C456.912 333.722 448.778 323.809 443.974 312.212C439.171 300.614 437.914 287.852 440.363 275.541C442.812 263.229 448.856 251.919 457.732 243.043C466.608 234.167 477.916 228.122 490.227 225.673C502.538 223.224 515.299 224.481 526.896 229.284C538.493 234.088 548.404 242.223 555.378 252.661C562.352 263.099 566.074 275.37 566.074 287.923C566.055 304.75 559.363 320.883 547.465 332.782C535.567 344.681 519.435 351.374 502.609 351.393ZM502.609 226.788C490.518 226.788 478.699 230.374 468.646 237.091C458.594 243.809 450.758 253.357 446.132 264.528C441.505 275.699 440.294 287.991 442.653 299.85C445.012 311.709 450.834 322.602 459.383 331.152C467.932 339.701 478.825 345.524 490.683 347.883C502.541 350.242 514.832 349.031 526.002 344.404C537.172 339.777 546.719 331.941 553.437 321.887C560.154 311.834 563.739 300.014 563.739 287.923C563.714 271.717 557.266 256.181 545.807 244.721C534.348 233.262 518.814 226.813 502.609 226.788Z" fill="black"/>
<path d="M414.252 242.247C414.252 242.247 326.059 267.724 308.827 312.676C291.595 357.628 347.238 585.89 347.238 585.89C347.238 585.89 442.739 636.516 538.708 583.321C538.708 583.321 565.677 389.946 551.457 341.235C537.237 292.523 504.36 244.746 483.952 237.577C463.544 230.408 414.252 242.247 414.252 242.247Z" fill="white"/>
<path d="M443.837 608.471C410.25 608.422 377.083 601.001 346.677 586.731C346.531 586.656 346.403 586.551 346.303 586.422C346.202 586.293 346.13 586.143 346.094 585.983C345.954 585.423 332.084 528.188 320.409 466.213C304.788 382.824 300.514 331.007 307.73 312.092C314.945 293.177 335.096 275.43 367.482 259.364C382.46 252.016 397.988 245.848 413.925 240.916C415.933 240.426 463.708 229.24 484.256 236.456C506.251 244.092 538.731 293.761 552.438 340.651C566.588 389.059 540.763 575.312 539.735 583.204C539.717 583.386 539.654 583.559 539.552 583.71C539.451 583.861 539.313 583.984 539.151 584.069C509.998 600.242 477.175 608.645 443.837 608.471ZM348.242 584.909C355.55 588.575 446.896 632.336 537.587 582.387C539.198 570.711 563.902 387.985 550.289 341.375C535.485 290.749 502.866 245.423 483.578 238.628C463.848 231.786 415.98 242.831 414.556 243.158C412.594 243.718 326.643 269.289 309.925 312.886C293.416 356.063 345.3 572.72 348.242 584.909Z" fill="black"/>
<path d="M497.145 597.869C496.841 597.864 496.551 597.742 496.334 597.529C496.117 597.316 495.989 597.029 495.977 596.725C495.977 594.226 491.541 347.703 488.972 328.181C486.124 307.165 440.381 289.137 439.937 288.951C439.653 288.831 439.426 288.607 439.304 288.324C439.182 288.04 439.175 287.721 439.283 287.433C439.338 287.291 439.419 287.161 439.524 287.051C439.629 286.942 439.755 286.854 439.894 286.793C440.033 286.732 440.183 286.699 440.334 286.697C440.486 286.695 440.637 286.722 440.778 286.779C442.716 287.526 488.295 305.46 491.307 327.878C493.922 347.446 498.172 586.45 498.312 596.608C498.315 596.762 498.288 596.914 498.232 597.057C498.176 597.2 498.093 597.33 497.987 597.441C497.881 597.551 497.754 597.64 497.613 597.702C497.473 597.763 497.321 597.796 497.168 597.799L497.145 597.869Z" fill="#93A18D"/>
<path d="M391.766 237.577L395.502 291.543C395.502 291.543 417.732 315.315 440.311 312.559C464.875 309.524 482.504 291.543 482.504 291.543L479.072 253.76L391.766 237.577Z" fill="black"/>
<path d="M436.645 313.96C415.21 313.96 395.642 293.317 394.778 292.383C394.588 292.188 394.473 291.932 394.452 291.659L390.739 237.694C390.722 237.52 390.747 237.344 390.812 237.182C390.877 237.019 390.98 236.874 391.113 236.76C391.245 236.635 391.405 236.545 391.58 236.496C391.755 236.447 391.939 236.441 392.117 236.48L479.422 252.569C479.671 252.619 479.897 252.748 480.065 252.938C480.234 253.127 480.336 253.367 480.356 253.62L483.789 291.403C483.801 291.572 483.779 291.743 483.723 291.904C483.666 292.064 483.578 292.212 483.462 292.337C482.715 293.084 465.249 310.691 440.568 313.727C439.266 313.886 437.956 313.964 436.645 313.96ZM396.763 291.076C399.402 293.761 419.926 313.937 440.288 311.415C462.19 308.706 478.722 293.644 481.407 291.076L478.115 254.717L393.167 239.048L396.763 291.076Z" fill="black"/>
<path d="M498.943 355.292C498.943 355.292 449.628 371.031 449.114 434.688C448.6 498.344 492.381 483.726 517.669 462.71C542.958 441.693 546.904 410.636 544.662 391.884C542.42 373.133 530.419 346.302 498.943 355.292Z" fill="white"/>
<path d="M477.181 481.905C473.225 481.992 469.3 481.194 465.693 479.57C453.714 473.872 447.736 458.81 447.947 434.805C448.46 371.008 498.079 354.429 498.593 354.265C509.894 351.043 519.608 352.07 527.593 357.348C541.743 366.688 545.106 386.234 545.783 391.978C548.375 413.578 542.561 443.795 518.393 463.831C507.232 473.008 491.191 481.905 477.181 481.905ZM499.293 356.414C498.219 356.764 450.795 373.04 450.258 434.735C450.048 457.76 455.582 472.098 466.603 477.375C481.454 484.381 502.936 473.452 516.829 461.94C540.179 442.511 545.923 413.158 543.401 392.142C542.748 386.654 539.549 368.066 526.216 359.192C518.977 354.335 509.894 353.378 499.293 356.414Z" fill="black"/>
<path d="M532.66 409.258C531.749 427.94 512.462 455.471 498.966 460.632C490.724 463.808 479.679 466.563 472.487 458.624C467.934 453.556 464.922 444.192 465.225 427.893C465.973 385.86 497.168 374.301 506.041 372.433C510.152 371.791 514.36 372.565 517.973 374.628C525.935 378.948 533.617 389.223 532.66 409.258Z" fill="white"/>
<path d="M484.98 465.045C482.487 465.122 480.006 464.659 477.709 463.687C475.412 462.716 473.352 461.259 471.67 459.418C466.37 453.533 463.824 442.908 464.105 427.869C464.945 380.419 504.197 371.639 505.854 371.288C510.231 370.62 514.705 371.442 518.557 373.624C524.768 376.94 534.902 385.93 533.874 409.258C532.917 429.014 513.046 456.452 499.433 461.729C494.858 463.708 489.959 464.832 484.98 465.045ZM508.75 373.413C507.965 373.42 507.183 373.506 506.415 373.67C504.804 373.997 467.304 382.38 466.51 427.986C466.253 442.441 468.588 452.505 473.515 457.946C480.403 465.536 491.191 462.617 498.709 459.628C511.552 454.63 530.769 427.706 531.656 409.212C532.707 387.168 523.297 378.854 517.646 375.749C514.922 374.241 511.864 373.438 508.75 373.413Z" fill="black"/>
<path d="M532.66 409.258C531.75 427.94 512.462 455.471 498.966 460.632C490.724 463.808 479.679 466.563 472.487 458.624C480.45 459.488 492.288 456.592 505.177 439.382C522.456 416.334 523.857 391.231 517.95 374.628C525.935 378.948 533.618 389.223 532.66 409.258Z" fill="black"/>
<path d="M484.98 465.045C482.487 465.122 480.006 464.659 477.709 463.688C475.412 462.716 473.352 461.26 471.67 459.418C471.506 459.244 471.399 459.023 471.364 458.787C471.329 458.55 471.368 458.308 471.475 458.094C471.582 457.88 471.752 457.704 471.962 457.59C472.173 457.476 472.413 457.429 472.651 457.456C480.099 458.25 491.588 455.635 504.313 438.775C521.919 415.283 522.363 390.484 516.922 375.095C516.845 374.876 516.835 374.639 516.894 374.415C516.952 374.19 517.076 373.988 517.249 373.834C517.425 373.678 517.644 373.579 517.878 373.55C518.111 373.521 518.348 373.563 518.557 373.67C524.768 376.986 534.902 385.977 533.874 409.305C532.917 429.061 513.046 456.499 499.433 461.776C494.855 463.739 489.956 464.847 484.98 465.045ZM475.639 460.001C482.458 464.905 491.798 462.22 498.523 459.628C511.365 454.631 530.582 427.706 531.469 409.212C532.38 390.297 525.585 381.447 520.028 377.383C524.581 393.449 523.133 417.431 506.018 440.176C494.483 455.728 483.579 459.791 475.663 460.001H475.639Z" fill="black"/>
<path d="M272.611 400.268C272.611 400.268 277.865 559.059 293.626 571.132C309.388 583.204 341.681 570.384 347.331 558.382C352.982 546.379 355.317 391.254 355.317 391.254L272.611 400.268Z" fill="white"/>
<path d="M309.924 577.133C303.848 577.357 297.867 575.576 292.902 572.066C286.084 566.882 280.433 536.338 276.044 481.298C272.798 440.526 271.374 400.688 271.374 400.291C271.372 399.998 271.478 399.715 271.671 399.495C271.865 399.275 272.133 399.135 272.424 399.1L355.013 390.11C355.176 390.09 355.342 390.104 355.498 390.153C355.655 390.201 355.8 390.282 355.924 390.39C356.048 390.503 356.147 390.639 356.215 390.792C356.283 390.945 356.319 391.11 356.321 391.277C356.321 397.629 353.846 546.799 348.218 558.895C345.066 565.667 334.208 572.533 321.88 575.592C317.968 576.567 313.956 577.084 309.924 577.133ZM273.825 401.295C274.059 407.95 275.436 444.145 278.495 481.111C284.169 552.38 290.918 567.512 294.42 570.197C300.608 574.868 310.461 576.035 321.506 573.327C333.041 570.478 343.455 563.986 346.28 557.891C350.577 548.667 353.285 446.504 354.149 392.562L273.825 401.295Z" fill="black"/>
<path d="M329.025 526.507C362.929 490.522 465.202 497.691 465.202 497.691L475.709 546.402C475.709 546.402 390.272 586.567 347.284 585.703C326.129 585.306 308.22 548.574 329.025 526.507Z" fill="white"/>
<path d="M348.569 586.894H347.215C337.057 586.707 327.134 578.558 321.926 566.181C317.256 554.856 316.322 538.299 328.161 525.736C342.428 510.581 369.864 501.077 409.723 497.457C428.194 495.833 446.758 495.529 465.272 496.547C465.527 496.557 465.771 496.652 465.966 496.817C466.161 496.982 466.294 497.208 466.346 497.457L476.854 546.169C476.91 546.429 476.876 546.7 476.757 546.938C476.638 547.175 476.442 547.366 476.2 547.477C475.359 547.85 391.79 586.894 348.569 586.894ZM444.794 498.298C413.295 498.298 353.729 501.871 329.866 527.301C318.798 538.977 319.615 554.622 324.075 565.247C328.861 576.596 338.085 584.372 347.261 584.536C387.19 585.423 465.389 549.882 474.379 545.725L464.245 498.788C461.84 498.648 454.695 498.298 444.794 498.298Z" fill="black"/>
<path d="M336.24 569.824C335.971 569.824 335.71 569.731 335.501 569.561C335.293 569.391 335.15 569.154 335.096 568.89C335.041 568.584 335.108 568.268 335.282 568.011C335.457 567.753 335.725 567.574 336.03 567.512C337.01 567.325 435.524 547.687 466.416 527.815C466.676 527.666 466.982 527.624 467.273 527.695C467.563 527.766 467.815 527.946 467.977 528.197C468.138 528.449 468.197 528.753 468.142 529.046C468.086 529.34 467.92 529.601 467.677 529.776C436.411 549.929 340.536 569.03 336.473 569.824H336.24Z" fill="#93A18D"/>
<path d="M462.47 505.42C462.47 505.42 483.905 485.338 493.432 477.398C502.959 469.459 521.919 458.46 521.452 468.058C520.985 477.655 503.309 482.372 502.632 484.941C502.632 484.941 538.731 479.36 555.567 484.941C572.402 490.522 576.908 495.029 571.912 497.784C566.915 500.54 548.421 494.025 539.922 495.029C531.423 496.033 523.437 497.784 523.437 497.784C523.437 497.784 552.928 499.536 562.408 505.514C571.888 511.492 575.904 517.516 569.903 519.525C563.903 521.533 545.433 507.032 527.453 509.53C527.453 509.53 565.957 522.023 564.93 531.994C563.902 541.966 559.723 540.494 555.59 537.996C551.457 535.497 531.399 526.974 522.41 525.479C522.41 525.479 563.459 558.499 552.438 560.507C541.416 562.515 518.183 537.529 518.183 537.529C518.183 537.529 473.515 558.545 462.517 546.029C451.519 533.512 462.47 505.42 462.47 505.42Z" fill="black"/>
<path d="M551.06 561.674C540.132 561.674 521.405 542.619 517.786 538.813C511.575 541.662 472.277 558.895 461.513 546.682C450.188 533.792 460.859 506.167 461.303 505C461.368 504.837 461.472 504.693 461.606 504.579C461.816 504.369 483.182 484.357 492.615 476.557C498.896 471.327 514.587 460.795 520.378 463.691C521.149 464.107 521.771 464.754 522.156 465.541C522.541 466.329 522.671 467.216 522.526 468.081C522.153 475.086 513.677 479.617 508.073 482.582L507.045 483.119C517.413 481.812 542.397 479.36 555.847 483.82C574.527 489.985 574.784 493.791 574.9 495.052C575.017 496.313 574.62 497.551 572.379 498.788C569.296 500.47 562.782 499.279 555.24 497.878C550.24 496.677 545.11 496.105 539.969 496.173C537.167 496.5 534.411 496.92 531.983 497.317C541.557 498.298 556.501 500.446 562.945 504.509C567.218 507.218 574.34 512.426 573.78 516.909C573.639 518.1 572.892 519.688 570.184 520.599C567.475 521.509 562.992 519.711 556.944 517.166C550.126 514.317 541.977 510.884 533.594 510.417C544.755 514.504 566.868 523.658 566.004 532.111C565.514 536.781 564.323 539.513 562.245 540.541C560.166 541.568 557.341 540.541 554.889 538.976C545.934 534.431 536.597 530.681 526.986 527.768C555.52 551.283 555.567 558.125 555.286 559.362C555.134 559.994 554.785 560.56 554.29 560.98C553.795 561.4 553.179 561.651 552.531 561.698C552.041 561.738 551.548 561.73 551.06 561.674ZM518.136 536.244C518.299 536.242 518.46 536.274 518.609 536.338C518.758 536.402 518.891 536.498 519 536.618C525.328 543.437 543.658 560.81 552.181 559.246C552.998 559.105 553.068 558.825 553.091 558.732C554.119 554.645 535.322 537.295 521.639 526.296C521.435 526.134 521.291 525.908 521.227 525.655C521.164 525.402 521.186 525.135 521.289 524.895C521.394 524.659 521.575 524.463 521.803 524.341C522.032 524.218 522.294 524.175 522.55 524.218C531.469 525.713 551.714 534.236 556.15 536.898C557.972 537.996 560.003 539.023 561.264 538.393C562.128 537.949 563.272 536.454 563.739 531.784C564.416 525.199 541.603 515.251 527.056 510.534C526.903 510.52 526.754 510.476 526.617 510.405C526.481 510.334 526.36 510.236 526.261 510.118C526.062 509.879 525.966 509.571 525.994 509.261C526.022 508.952 526.171 508.666 526.41 508.467C526.649 508.267 526.957 508.171 527.266 508.199C538.334 506.658 549.659 511.398 557.925 514.878C563.085 517.049 567.522 518.917 569.6 518.24C570.861 517.82 571.538 517.236 571.631 516.489C571.841 514.784 569.296 511.118 561.871 506.354C552.741 500.586 523.74 498.788 523.437 498.788C523.157 498.772 522.894 498.653 522.696 498.455C522.498 498.257 522.379 497.993 522.363 497.714C522.334 497.432 522.411 497.148 522.58 496.92C522.748 496.691 522.995 496.533 523.273 496.476C523.273 496.476 531.423 494.702 539.875 493.698C545.244 493.6 550.604 494.188 555.823 495.449C562.034 496.593 569.063 497.784 571.421 496.593C572.052 496.243 572.775 495.706 572.729 495.122C572.682 494.538 571.585 491.292 555.286 485.898C538.988 480.504 503.239 485.898 502.889 485.898C502.697 485.921 502.502 485.899 502.32 485.834C502.138 485.769 501.973 485.663 501.838 485.524C501.713 485.379 501.625 485.205 501.581 485.018C501.536 484.832 501.536 484.637 501.581 484.45C501.908 483.143 503.519 482.255 507.139 480.34C512.276 477.608 520.051 473.475 520.355 467.777C520.355 466.073 519.771 465.722 519.514 465.606C515.918 463.784 503.006 470.883 494.273 478.169C485.54 485.454 465.739 503.856 463.568 505.981C462.54 508.713 453.574 533.792 463.427 545.024C467.607 549.695 478.231 549.695 494.156 545.024C502.205 542.592 510.083 539.628 517.74 536.151C517.877 536.153 518.012 536.185 518.136 536.244Z" fill="black"/>
<path d="M502.936 135.694C502.936 135.694 509.427 198.159 507.932 231.132C506.438 264.104 493.455 274.589 465.902 280.17C438.349 285.751 394.942 261.676 370.471 230.198C346 198.72 343.245 182.164 351.347 135.694H502.936Z" fill="white"/>
<path d="M457.847 281.945C430.807 281.945 392.467 260.275 369.63 230.782C345.323 199.607 341.867 182.654 350.25 135.484C350.295 135.214 350.435 134.969 350.645 134.793C350.854 134.617 351.12 134.523 351.394 134.526H502.982C503.273 134.525 503.553 134.632 503.769 134.826C503.985 135.02 504.121 135.288 504.15 135.577C504.15 136.208 510.641 198.487 509.147 231.179C507.536 266.37 492.802 275.921 466.253 281.245C463.48 281.748 460.665 281.983 457.847 281.945ZM352.328 136.862C344.272 182.981 347.658 198.697 371.452 229.404C396.413 261.489 439.587 284.187 465.739 278.956C491.167 273.866 505.247 264.735 506.765 231.085C508.143 200.892 502.725 145.175 501.885 136.862H352.328Z" fill="black"/>
<path d="M351.347 135.694C351.347 135.694 356.554 157.177 409.512 160.68C462.47 164.183 502.912 150.195 502.912 135.694C502.912 121.192 465.225 107.672 427.118 106.714C389.011 105.757 353.519 122.196 351.347 135.694Z" fill="white"/>
<path d="M426.231 162.408C420.86 162.408 415.264 162.221 409.442 161.848C356.228 158.322 350.437 136.885 350.25 135.974C350.215 135.82 350.215 135.661 350.25 135.507C352.585 121.169 388.544 104.566 427.305 105.547C463.638 106.504 504.243 119.558 504.243 135.694C504.137 137.449 503.667 139.163 502.863 140.727C502.059 142.291 500.939 143.67 499.573 144.778C489.743 153.815 463.427 162.408 426.231 162.408ZM352.585 135.624C352.935 136.651 354.78 141.228 361.551 146.109C368.673 151.246 382.776 157.784 409.629 159.512C452.967 162.385 486.801 153.394 497.845 143.166C498.979 142.275 499.916 141.16 500.599 139.891C501.282 138.621 501.696 137.224 501.815 135.787C501.815 122.5 465.529 108.98 427.095 107.975C390.412 106.808 355.083 122.523 352.585 135.624Z" fill="black"/>
<path d="M379.741 228.797C388.591 232.253 409.396 233.117 406.383 205.025C403.371 176.933 392.373 161.404 373.273 161.357C354.173 161.311 353.939 184.032 356.181 193.022C358.422 202.013 360.664 221.231 379.741 228.797Z" fill="black"/>
<path d="M389.151 231.669C385.794 231.658 382.465 231.049 379.321 229.871C361.691 222.865 357.979 206.379 355.761 196.455C355.527 195.311 355.27 194.26 355.037 193.302C353.402 186.764 353.145 174.224 359.123 166.588C360.785 164.488 362.921 162.813 365.357 161.701C367.793 160.588 370.458 160.07 373.133 160.19C392.443 160.19 404.305 175.695 407.411 204.908C408.578 215.953 406.313 223.776 400.616 228.12C397.283 230.521 393.257 231.767 389.151 231.669ZM380.185 227.699C384.411 229.357 393.237 230.922 399.355 226.251C404.329 222.445 406.36 215.346 405.239 205.235C402.227 177.003 391.463 162.665 373.273 162.618C370.938 162.493 368.608 162.928 366.475 163.886C364.343 164.845 362.47 166.3 361.014 168.129C355.574 175.135 355.877 186.974 357.348 192.835C357.605 193.793 357.839 194.867 358.096 196.034C360.197 205.375 363.746 221.348 380.231 227.793L380.185 227.699Z" fill="black"/>
<path d="M395.502 211.89C394.915 213.414 393.973 214.776 392.755 215.864C391.537 216.953 390.077 217.735 388.497 218.148C375.748 221.301 367.716 206.146 365.451 198.463C363.186 190.78 364.517 171.071 375.771 172.566C377.256 172.594 378.716 172.953 380.045 173.617C384.112 175.616 387.601 178.622 390.178 182.35C395.806 189.823 399.051 203.67 395.502 211.89Z" fill="white"/>
<path d="M385.065 219.736C374.394 219.736 366.875 207.757 364.236 198.72C362.672 193.302 362.509 180.575 367.786 174.411C368.735 173.259 369.962 172.37 371.352 171.826C372.741 171.283 374.246 171.103 375.725 171.305C377.347 171.337 378.941 171.728 380.395 172.449C384.653 174.521 388.31 177.648 391.019 181.533C396.693 188.982 400.359 203.413 396.576 212.264C395.916 213.977 394.855 215.507 393.482 216.726C392.109 217.945 390.463 218.817 388.684 219.269C387.501 219.569 386.285 219.726 385.065 219.736ZM374.487 173.663C373.542 173.652 372.608 173.857 371.754 174.261C370.9 174.666 370.15 175.26 369.56 175.999C365.287 180.972 364.89 192.578 366.478 198.089C368.323 204.371 375.818 220.016 388.124 216.957C389.548 216.607 390.865 215.916 391.963 214.944C393.062 213.972 393.907 212.747 394.428 211.376C397.931 203.273 394.428 189.916 389.151 183.004C386.679 179.452 383.355 176.578 379.484 174.644C378.33 174.062 377.063 173.735 375.771 173.687H375.538L374.487 173.663Z" fill="black"/>
<path d="M351.347 135.694C351.347 135.694 358.749 88.9904 402.717 81.9849C440.778 75.9135 489.719 93.6608 502.936 135.694C502.936 135.694 507.932 164.183 431.485 163.716C355.037 163.249 351.347 135.694 351.347 135.694Z" fill="black"/>
<path d="M433.446 164.86H431.485C354.92 164.346 350.25 137.025 350.25 135.857V135.507C350.25 135.04 358.306 87.9632 402.601 80.911C442.086 74.6528 490.864 93.2874 504.126 135.344C504.312 137.6 504.012 139.87 503.246 142.001C502.481 144.132 501.268 146.074 499.69 147.697C493.059 155.566 476.177 164.86 433.446 164.86ZM352.585 135.694C353.075 137.842 360.314 162.035 431.555 162.502H433.516C475.196 162.502 491.517 153.698 497.892 146.155C499.232 144.79 500.274 143.162 500.953 141.373C501.633 139.585 501.934 137.675 501.838 135.764C491.751 103.819 451.986 75.2832 402.928 83.0827C361.715 89.7846 353.122 132.495 352.585 135.694Z" fill="black"/>
<path d="M317.677 437.163C352.083 437.163 379.975 409.27 379.975 374.861C379.975 340.453 352.083 312.559 317.677 312.559C283.271 312.559 255.379 340.453 255.379 374.861C255.379 409.27 283.271 437.163 317.677 437.163Z" fill="black"/>
<path d="M317.677 438.401C305.125 438.401 292.854 434.679 282.417 427.704C271.981 420.73 263.846 410.818 259.042 399.22C254.239 387.622 252.982 374.861 255.431 362.549C257.88 350.237 263.924 338.928 272.8 330.051C281.676 321.175 292.984 315.13 305.295 312.681C317.606 310.232 330.367 311.489 341.964 316.293C353.561 321.097 363.473 329.232 370.446 339.669C377.42 350.107 381.142 362.378 381.142 374.931C381.123 391.759 374.431 407.892 362.533 419.791C350.635 431.69 334.503 438.382 317.677 438.401ZM317.677 313.797C305.586 313.797 293.767 317.382 283.715 324.1C273.662 330.817 265.827 340.365 261.2 351.536C256.573 362.707 255.362 374.999 257.721 386.858C260.08 398.717 265.902 409.61 274.451 418.16C283 426.71 293.893 432.532 305.751 434.891C317.609 437.25 329.9 436.039 341.07 431.412C352.24 426.785 361.788 418.949 368.505 408.896C375.222 398.842 378.807 387.023 378.807 374.931C378.801 358.713 372.361 343.159 360.9 331.685C349.439 320.21 333.894 313.751 317.677 313.727V313.797Z" fill="black"/>
<path d="M466.066 213.968C469.432 213.968 472.16 209.839 472.16 204.744C472.16 199.65 469.432 195.521 466.066 195.521C462.7 195.521 459.972 199.65 459.972 204.744C459.972 209.839 462.7 213.968 466.066 213.968Z" fill="black"/>
<path d="M493.222 198.463C496.588 198.463 499.316 194.333 499.316 189.239C499.316 184.145 496.588 180.015 493.222 180.015C489.856 180.015 487.128 184.145 487.128 189.239C487.128 194.333 489.856 198.463 493.222 198.463Z" fill="black"/>
<path d="M396.95 218.405C396.779 218.401 396.61 218.359 396.457 218.282C396.303 218.206 396.169 218.096 396.063 217.962L363.536 178.754C363.438 178.636 363.364 178.5 363.319 178.353C363.273 178.207 363.257 178.052 363.271 177.9C363.285 177.747 363.329 177.598 363.401 177.462C363.472 177.326 363.57 177.206 363.688 177.108C363.806 177.01 363.942 176.936 364.089 176.89C364.235 176.845 364.39 176.829 364.542 176.843C364.695 176.857 364.844 176.901 364.98 176.973C365.115 177.044 365.236 177.142 365.334 177.26L397.884 216.56C397.983 216.678 398.057 216.813 398.102 216.96C398.148 217.106 398.163 217.26 398.148 217.412C398.133 217.565 398.087 217.713 398.014 217.847C397.94 217.982 397.841 218.1 397.721 218.195C397.499 218.359 397.224 218.434 396.95 218.405Z" fill="black"/>
<path d="M681.96 354.755C674.326 355.36 666.645 354.935 659.124 353.494C644.507 351.159 637.011 342.519 636.638 325.659C636.264 308.799 631.407 286.709 636.638 280.871C641.868 275.033 663.63 261.185 664.658 267.934C665.685 274.683 650.788 283.556 650.041 287.923C649.293 292.29 654.921 295.676 654.547 305.04C654.547 305.04 662.72 262.703 681.867 258.196C701.014 253.689 702.882 263.824 698.002 267.187C693.121 270.549 684.459 271.32 681.867 275.43C679.275 279.54 677.407 295.676 677.407 295.676C677.407 295.676 697.254 264.198 709.63 271.32C722.005 278.442 722.356 287.433 716.355 286.312C710.354 285.191 703.629 283.416 699.87 288.787C696.11 294.158 690.88 302.798 690.88 302.798C690.88 302.798 713.436 289.301 720.137 292.663C726.839 296.026 732.863 306.674 724.621 306.044C716.378 305.413 708.486 305.04 704.75 309.15C701.014 313.259 699.87 321.9 696.881 330.89C693.892 339.88 692.771 354.639 681.96 354.755Z" fill="black"/>
<path d="M676.286 356.18C670.472 356.132 664.671 355.624 658.937 354.662C643.526 352.163 635.867 342.683 635.47 325.683C635.47 320.335 634.793 314.451 634.233 308.753C632.948 295.699 631.898 284.444 635.774 280.1C640.444 274.986 657.606 263.404 663.607 265.155C664.211 265.304 664.756 265.63 665.173 266.092C665.589 266.555 665.857 267.131 665.942 267.747C666.713 272.418 661.505 277.298 656.906 281.758C654.29 284.257 651.582 286.826 651.325 288.227C651.297 289.985 651.82 291.708 652.819 293.154C653.731 294.827 654.475 296.587 655.038 298.408C658.237 286.148 666.572 260.718 681.727 257.146C696.881 253.573 700.407 259.037 701.107 260.789C701.642 262.108 701.701 263.573 701.275 264.932C700.849 266.291 699.965 267.459 698.772 268.238C696.376 269.72 693.793 270.875 691.09 271.67C687.564 272.931 684.225 274.006 682.941 276.154C681.657 278.302 680.139 285.495 679.322 290.982C685.393 282.459 699.893 264.408 710.307 270.386C719.133 275.477 722.449 281.735 721.141 285.261C720.769 286.197 720.057 286.958 719.148 287.391C718.238 287.824 717.199 287.897 716.238 287.596L714.977 287.339C709.583 286.312 703.979 285.214 700.967 289.675C698.889 292.687 696.297 296.68 694.429 299.716C701.434 295.886 715.304 289.091 720.815 291.846C725.671 294.181 730.855 300.86 729.781 304.76C729.454 305.881 728.427 307.679 724.667 307.422C716.261 306.768 709.046 306.534 705.754 310.154C703.419 312.769 702.088 317.58 700.57 323.137C699.846 325.823 699.099 328.602 698.118 331.474C697.558 333.202 697.044 335.163 696.507 337.218C694.312 345.578 691.604 355.9 682.077 356.133C680.149 356.255 678.216 356.27 676.286 356.18ZM662.113 267.28C656.859 267.28 642.102 276.621 637.525 281.665C634.279 285.238 635.447 297.077 636.544 308.519C637.105 314.264 637.689 320.195 637.805 325.613C638.179 341.538 644.997 350.038 659.311 352.35C666.719 353.747 674.279 354.163 681.797 353.588H681.937C689.736 353.588 692.001 344.808 694.195 336.424C694.756 334.323 695.27 332.338 695.877 330.517C696.811 327.714 697.558 324.959 698.212 322.32C699.799 316.459 701.177 311.415 703.932 308.309C707.925 303.919 715.724 304.129 724.737 304.806C726.302 304.946 727.212 304.62 727.423 303.872C728.053 301.537 724.154 295.909 719.67 293.644C714.627 291.099 697.651 300.066 691.534 303.732C691.308 303.86 691.047 303.911 690.79 303.878C690.533 303.844 690.294 303.727 690.109 303.545C689.927 303.36 689.813 303.119 689.783 302.861C689.754 302.603 689.811 302.343 689.946 302.121C689.946 302.121 695.246 293.411 698.959 288.11C702.672 282.809 709.513 283.767 715.304 284.887L716.565 285.121C717.405 285.284 718.48 285.284 718.9 284.35C719.67 282.225 717.102 276.925 709.093 272.301C699.753 266.907 683.781 287.783 678.434 296.26C678.293 296.483 678.081 296.652 677.832 296.739C677.584 296.826 677.313 296.826 677.063 296.739C676.814 296.653 676.602 296.484 676.461 296.261C676.32 296.039 676.258 295.775 676.286 295.512C676.286 294.835 678.224 279.166 680.956 274.8C682.684 272.044 686.397 270.736 690.296 269.359C692.792 268.609 695.185 267.55 697.418 266.206C698.184 265.735 698.755 265.003 699.025 264.146C699.295 263.288 699.247 262.361 698.889 261.536C697.675 258.804 692.654 256.865 682.194 259.201C664.004 263.474 655.831 304.713 655.761 305.11C655.7 305.398 655.536 305.654 655.3 305.83C655.063 306.007 654.771 306.091 654.477 306.067C654.184 306.032 653.915 305.888 653.725 305.662C653.534 305.437 653.436 305.148 653.45 304.853C653.578 301.043 652.614 297.275 650.671 293.995C649.404 292.112 648.804 289.86 648.967 287.596C649.34 285.448 651.932 282.926 655.224 279.843C659.194 276.061 664.144 271.39 663.584 267.981C663.571 267.805 663.499 267.638 663.381 267.507C663.263 267.376 663.104 267.288 662.93 267.257C662.658 267.228 662.383 267.236 662.113 267.28Z" fill="black"/>
<path d="M249.355 494.188V378.738C249.355 378.738 313.917 421.401 410.47 411.874V524.475C410.47 524.475 347.238 543.694 249.355 494.188Z" fill="white"/>
<path d="M376.799 529.192C348.499 529.192 303.994 523.121 248.818 495.239C248.627 495.138 248.468 494.986 248.357 494.801C248.246 494.616 248.187 494.404 248.187 494.188V378.738C248.179 378.525 248.231 378.315 248.336 378.13C248.441 377.945 248.596 377.793 248.783 377.691C248.97 377.589 249.181 377.541 249.393 377.553C249.606 377.565 249.811 377.635 249.985 377.757C250.639 378.177 315.365 420.07 410.33 410.73C410.489 410.714 410.649 410.731 410.802 410.779C410.954 410.828 411.095 410.906 411.217 411.01C411.334 411.122 411.427 411.256 411.491 411.404C411.555 411.552 411.589 411.712 411.591 411.874V524.475C411.592 524.725 411.514 524.969 411.366 525.17C411.219 525.372 411.011 525.521 410.773 525.596C410.493 525.69 398.351 529.192 376.799 529.192ZM250.522 493.488C340.49 538.767 401.527 525.549 409.302 523.588V413.181C322.907 421.261 261.684 387.495 250.522 380.816V493.488Z" fill="black"/>
<path d="M549.893 427.309V262.306C549.893 262.306 695.223 256.842 755.372 197.833V368.299C755.372 368.299 695.223 416.38 549.893 427.309Z" fill="#5F6CAD"/>
<path d="M549.893 428.477C549.6 428.472 549.319 428.365 549.099 428.173C548.982 428.061 548.889 427.927 548.825 427.779C548.761 427.63 548.727 427.471 548.725 427.309V262.306C548.725 262.005 548.841 261.714 549.05 261.497C549.259 261.279 549.544 261.151 549.846 261.139C551.294 261.139 695.41 254.997 754.509 196.992C754.671 196.831 754.879 196.723 755.103 196.682C755.328 196.64 755.56 196.667 755.77 196.758C755.999 196.841 756.197 196.994 756.335 197.195C756.473 197.396 756.545 197.635 756.54 197.879V368.346C756.541 368.522 756.501 368.695 756.425 368.853C756.348 369.011 756.235 369.149 756.096 369.257C755.489 369.747 694.056 417.688 550.033 428.523L549.893 428.477ZM551.06 263.427V426.048C687.051 415.586 748.438 371.989 754.205 367.669V200.565C696.134 254.74 564.603 262.727 551.06 263.427Z" fill="black"/>
<path d="M479.072 622.879V518.66C479.072 518.66 579.22 517.913 650.741 464.274V571.505C650.741 571.505 585.291 625.938 479.072 622.879Z" fill="#5F6CAD"/>
<path d="M487.384 624.257C484.629 624.257 481.874 624.257 479.048 624.257C478.745 624.245 478.457 624.118 478.244 623.9C478.032 623.683 477.91 623.393 477.904 623.089V518.661C477.91 518.353 478.035 518.059 478.253 517.842C478.471 517.624 478.764 517.499 479.072 517.493C480.076 517.493 579.664 516.139 650.04 463.341C650.216 463.219 650.421 463.147 650.634 463.132C650.847 463.117 651.06 463.159 651.251 463.255C651.442 463.35 651.604 463.495 651.719 463.675C651.835 463.854 651.9 464.061 651.908 464.275V571.506C651.906 571.678 651.867 571.849 651.795 572.005C651.722 572.162 651.618 572.302 651.488 572.416C650.834 573 587.953 624.257 487.384 624.257ZM480.239 621.922C579.734 624.397 643.689 575.662 649.573 571.085V466.703C582.863 515.555 491.564 519.595 480.239 519.898V621.922Z" fill="black"/>
</svg>
