<svg width="406" height="361" viewBox="0 0 406 361" fill="none" xmlns="http://www.w3.org/2000/svg">
<g clip-path="url(#clip0)">
<path opacity="0.18" d="M86.597 44.7898C113.773 40.8443 141.754 43.5619 168.698 38.1468C196.881 32.4802 222.547 18.2179 249.712 8.7466C276.878 -0.724687 308.251 -4.98224 333.454 8.89757C348.884 17.4026 360.238 31.8058 369.145 47.0444C386.702 77.0957 396.218 111.165 396.774 145.964C397.026 163.216 395.023 180.589 389.728 197.015C372.034 251.91 318.477 289.906 262.002 301.622C199.981 314.495 132.544 298.803 82.4602 260.043C39.8143 226.979 -2.35859 168.027 12.105 114.33C21.6971 78.6187 45.8534 50.7081 86.597 44.7898Z" fill="#5F6CAD"/>
<path d="M299.776 191.801L268.836 214.699C268.178 215.186 267.354 215.391 266.544 215.27C265.734 215.149 265.006 214.712 264.518 214.055L251.685 196.713C251.443 196.39 251.272 196.019 251.182 195.626C251.031 195.034 251.06 194.411 251.265 193.836C251.469 193.261 251.839 192.759 252.329 192.395L283.28 169.497C283.645 169.228 284.066 169.042 284.511 168.954C284.956 168.865 285.415 168.875 285.856 168.983C286.551 169.16 287.165 169.569 287.598 170.141L300.431 187.493C300.671 187.819 300.844 188.189 300.941 188.582C301.038 188.974 301.057 189.383 300.996 189.783C300.935 190.183 300.796 190.567 300.587 190.913C300.378 191.259 300.102 191.561 299.776 191.801Z" fill="#5F6CAD"/>
<path d="M285.856 168.983L280.129 194.71L251.182 195.626C251.031 195.034 251.06 194.411 251.265 193.836C251.469 193.261 251.839 192.759 252.329 192.395L283.28 169.497C283.645 169.228 284.066 169.042 284.511 168.954C284.956 168.865 285.415 168.875 285.856 168.983Z" fill="url(#paint0_linear)"/>
<path d="M269.742 195.042L270.688 213.32L299.777 191.801L282.173 185.51L280.129 194.71L269.742 195.042Z" fill="url(#paint1_linear)"/>
<path d="M305.534 45.4138L270.97 94.6625L264.327 76.2333C241.387 82.3263 218.803 89.6886 196.679 98.2859C171.174 108.442 146.616 121.063 139.56 134.108C123.385 164.072 161.381 177.317 161.381 177.317C154.152 177.895 146.883 177.72 139.691 176.794C120.738 174.308 97.2058 165.128 104.02 134.108C109.405 109.599 144.462 88.9858 178.904 74.3008H178.955C183.987 72.1669 189.02 70.164 193.912 68.2617L194.052 68.2013C212.478 61.156 231.27 55.1082 250.347 50.084L247.035 33.9597L305.534 45.4138Z" fill="#5F6CAD"/>
<path d="M139.56 134.108C123.385 164.072 161.381 177.317 161.381 177.317C154.152 177.895 146.883 177.72 139.691 176.794C136.843 173.479 134.181 170.007 131.719 166.397C109.908 134.671 156.691 109.67 156.691 109.67C160.586 95.4475 178.904 83.6813 178.904 83.6813V74.3006H178.955L193.911 68.2616L194.052 68.2012L197.344 95.6991L196.679 98.2657C171.174 108.442 146.615 121.063 139.56 134.108Z" fill="url(#paint2_linear)"/>
<path d="M245.626 237.577C244.705 239.144 244.135 240.892 243.955 242.701C243.986 244.511 244.573 246.268 245.636 247.733C247.82 250.974 251.169 253.248 254.986 254.084C255.486 254.237 256.023 254.213 256.506 254.014C256.837 253.811 257.095 253.508 257.241 253.148C258.157 251.286 257.785 249.072 257.181 247.109C256.577 245.146 255.751 243.153 255.842 241.07C255.993 237.175 261.559 229.656 255.077 227.824C249.672 226.254 247.347 234.105 245.626 237.577Z" fill="#B2857F"/>
<path d="M241.821 242.66C241.821 242.66 239.909 244.23 240.271 245.962C240.634 247.693 247.508 259.761 257.301 258.382C267.095 257.003 251.011 247.31 251.011 247.31L241.821 242.66Z" fill="#5F6CAD"/>
<path d="M244.78 238.201C245.182 238.216 245.564 238.375 245.858 238.648C246.152 238.922 246.338 239.292 246.381 239.691C246.636 240.841 247.181 241.906 247.963 242.787C248.745 243.667 249.738 244.334 250.85 244.724C253.406 245.418 255.741 243.284 256.889 243.888C258.036 244.492 261.257 252.896 260.412 255.292C259.566 257.687 255.6 257.627 252.078 255.986C248.555 254.346 242.133 247.793 241.64 245.207C241.147 242.62 243.381 238.896 244.78 238.201Z" fill="white"/>
<path d="M204.097 251.497C203.147 253.283 202.598 255.255 202.486 257.275C202.625 259.268 203.361 261.172 204.6 262.74C207.185 266.243 211.02 268.615 215.309 269.363C215.87 269.511 216.465 269.458 216.99 269.212C217.345 268.96 217.618 268.61 217.775 268.205C218.701 266.092 218.168 263.646 217.413 261.472C216.658 259.298 215.652 257.154 215.611 254.859C215.611 250.531 221.419 241.885 214.132 240.164C208.042 238.725 205.828 247.562 204.097 251.497Z" fill="#B2857F"/>
<path d="M200.101 257.406C200.101 257.406 198.088 259.247 198.541 261.15C198.994 263.052 207.227 276.147 218.057 274.134C228.887 272.121 210.549 262.207 210.549 262.207L200.101 257.406Z" fill="#5F6CAD"/>
<path d="M203.171 252.252C203.621 252.247 204.058 252.406 204.4 252.698C204.743 252.991 204.967 253.397 205.033 253.843C205.37 255.105 206.025 256.259 206.936 257.195C207.847 258.131 208.984 258.817 210.237 259.187C213.115 259.831 215.622 257.365 216.89 257.969C218.158 258.573 222.184 267.783 221.339 270.47C220.493 273.158 216.095 273.298 212.099 271.648C208.103 269.997 200.645 263.012 200.021 260.163C199.397 257.315 201.651 253.098 203.171 252.252Z" fill="white"/>
<path d="M225.807 146.528C226.081 146.576 226.35 146.647 226.612 146.74C232.974 149.155 240.633 159.925 244.961 165.038C250.587 171.513 255.27 178.751 258.871 186.537C266.178 202.853 266.853 223.124 256.586 237.759L248.695 236.108C248.006 236.032 247.357 235.747 246.833 235.293C246.564 234.898 246.378 234.452 246.286 233.984C246.194 233.515 246.199 233.032 246.3 232.565C246.717 226.928 246.457 221.261 245.525 215.686C245.004 211.865 243.833 208.161 242.062 204.735C239.586 200.276 235.681 196.824 231.876 193.442C219.798 182.743 208.968 171.681 202.979 156.553C208.384 153.896 219.979 145.502 225.807 146.528Z" fill="#473F47"/>
<path d="M207.529 154.741C207.79 154.845 208.037 154.98 208.264 155.144C213.891 158.969 218.833 171.248 221.852 177.207C225.807 184.821 228.673 192.952 230.367 201.363C233.658 218.927 229.602 238.795 216.206 250.682L208.908 247.23C208.259 246.994 207.694 246.57 207.288 246.012C207.119 245.563 207.042 245.085 207.063 244.605C207.084 244.126 207.201 243.656 207.409 243.224C209.13 237.839 210.198 232.266 210.589 226.626C210.975 222.79 210.699 218.915 209.774 215.172C208.415 210.271 205.416 206.003 202.507 201.816C193.297 188.61 185.306 175.314 183.011 159.21C188.879 157.882 202.114 152.426 207.529 154.741Z" fill="#473F47"/>
<path d="M240.312 116.403C240.317 116.447 240.317 116.491 240.312 116.534C240.402 118.215 240.956 119.695 240.523 121.406C240.06 123.308 238.289 125.029 236.356 124.747C234.746 124.516 233.649 123.066 232.411 122.01C231.115 120.972 229.678 120.125 228.143 119.493C226.13 118.557 224.057 117.682 221.983 116.876C220.655 116.353 218.118 116.031 217.555 114.672C216.991 113.313 217.172 111.169 217.011 109.73L214.505 86.8923L237.826 106.016C238.782 108.107 239.527 110.289 240.05 112.528C240.273 113.807 240.361 115.106 240.312 116.403Z" fill="white"/>
<path d="M222.999 118.92C223.14 120.268 223.452 121.607 223.613 122.946C224.459 130.384 223.543 138.265 226.562 145.32C227.247 146.891 228.132 148.561 227.73 150.232C227.238 151.648 226.247 152.836 224.942 153.574C218.782 157.882 211.304 159.804 204.016 161.626C198.531 163.015 190.811 165.541 185.335 163.105C183 162.099 181.994 159.764 181.038 157.469C178.018 150.162 176.428 142.11 174.999 134.319C174.817 133.313 174.626 132.306 174.455 131.249C173.267 124.224 172.338 117.138 171.667 109.992C171.204 104.798 170.993 99.1617 173.952 94.8941C177.877 89.1973 186.191 84.829 192.663 82.816C194.756 82.1422 196.936 81.7794 199.135 81.739C202.267 81.8854 205.351 82.5662 208.254 83.752C211.706 85.0102 214.776 86.057 216.739 89.1168C218.915 92.6712 220.582 96.5133 221.691 100.531C222.735 104.293 223.253 108.181 223.231 112.085C223.231 113.998 222.969 115.93 222.979 117.833C222.947 118.195 222.954 118.559 222.999 118.92Z" fill="white"/>
<path opacity="0.1" d="M197.233 164.414C195.139 165.29 189.946 163.85 188.265 163.74C187.258 163.679 186.252 163.277 185.245 163.156C180.213 162.461 178.069 148.672 177.193 145.039C174.838 135.326 171.758 125.341 170.53 115.477C170.067 111.663 169.735 107.767 170.59 104.033C171.446 100.299 173.61 96.6957 177.082 94.9746C183.121 92.0155 187.198 111.733 188.516 115.759C190.167 120.792 191.828 125.824 193.468 130.857C194.193 133.111 194.425 135.618 195.663 137.681C197.545 140.811 199.135 140.217 202.285 139.694C208.898 138.547 215.078 135.738 221.59 134.168C221.858 134.068 222.143 134.024 222.429 134.037C222.715 134.051 222.994 134.123 223.251 134.249C223.602 134.537 223.841 134.94 223.925 135.386C224.309 136.657 224.519 137.974 224.549 139.301C224.588 139.681 224.532 140.065 224.388 140.419C224.161 140.78 223.846 141.078 223.472 141.284C219.071 144.196 214.237 146.394 209.15 147.796C205.124 148.924 201.309 150.816 198.591 154.178C196.146 157.197 199.326 160.378 197.998 163.649C197.928 163.821 197.825 163.978 197.693 164.11C197.562 164.241 197.405 164.345 197.233 164.414Z" fill="#020202"/>
<path d="M192.643 149.205L231.232 136.191L259.535 152.336L220.151 168.48L192.643 149.205Z" fill="#5F6CAD"/>
<path d="M192.643 149.205L231.232 136.191L259.535 152.336L220.151 168.48L192.643 149.205Z" fill="url(#paint3_linear)"/>
<path d="M194.233 147.122L232.823 134.108L261.126 150.252L221.741 166.397L194.233 147.122Z" fill="#5F6CAD"/>
<path d="M223.633 164.172L255.56 150.071L239.979 141.516L208.233 153.533L223.633 164.172Z" fill="url(#paint4_linear)"/>
<path d="M221.741 166.397H259.797L292.559 145.995L261.126 150.252L221.741 166.397Z" fill="#5F6CAD"/>
<path d="M208.758 72.8816C208.365 74.3008 207.942 75.72 207.489 77.1291C206.483 80.35 204.47 83.289 200.967 84.064C200.193 84.213 199.409 84.3071 198.622 84.3458C198.471 84.3458 198.3 84.3458 198.099 84.3458C198.088 84.3512 198.076 84.3539 198.063 84.3539C198.051 84.3539 198.039 84.3512 198.028 84.3458H197.938C197.545 84.3273 197.151 84.368 196.77 84.4666C196.664 84.4721 196.56 84.5032 196.468 84.5572C195.462 85.0202 195.542 86.6507 195.613 87.5767C195.861 88.6185 195.74 89.7141 195.27 90.6768C195.27 90.6768 195.27 90.7372 195.21 90.7774C194.931 91.0818 194.594 91.3275 194.219 91.5003C193.844 91.6731 193.439 91.7695 193.026 91.7839C191.291 91.9242 189.567 91.3988 188.205 90.3144C187.425 89.5907 186.799 88.7179 186.363 87.7478C186.226 87.4721 186.112 87.1861 186.021 86.8923C185.906 86.3942 185.862 85.8827 185.89 85.3725C185.908 84.5898 185.982 83.8095 186.111 83.0373C186.482 81.5135 186.775 79.9715 186.987 78.4175C187 77.6301 187.054 76.844 187.148 76.0622C187.277 75.5627 187.371 75.0549 187.43 74.5424C187.43 73.0628 186.675 71.6336 186.665 70.1339C186.651 68.6508 186.79 67.1702 187.077 65.7153C187.614 62.8293 188.871 60.1255 190.731 57.8544C194.183 53.8283 200.303 51.8153 205.114 54.1102C207.518 55.2573 209.384 57.2923 210.318 59.7869C211.928 64.0243 209.915 68.7449 208.758 72.8816Z" fill="#B2857F"/>
<path d="M203.745 145.542C204.59 145.441 205.446 145.351 206.291 145.28C206.796 145.209 207.309 145.24 207.801 145.371C208.043 145.434 208.264 145.561 208.441 145.737C208.618 145.914 208.744 146.135 208.808 146.377C208.802 146.561 208.84 146.744 208.918 146.911C209.047 147.06 209.226 147.156 209.422 147.182C212.441 147.967 215.561 149.195 217.363 151.681C217.578 151.917 217.727 152.204 217.798 152.514C217.869 152.825 217.857 153.148 217.766 153.453C217.353 154.298 216.145 154.178 215.239 153.926C215.369 154.112 215.439 154.333 215.439 154.56C215.439 154.787 215.369 155.008 215.239 155.194C215.104 155.377 214.926 155.524 214.72 155.622C214.515 155.72 214.289 155.767 214.062 155.758C213.762 155.703 213.455 155.703 213.156 155.758C212.951 155.853 212.761 155.979 212.592 156.13C212.168 156.41 211.692 156.601 211.192 156.691C210.692 156.781 210.178 156.768 209.683 156.654C208.677 156.503 207.67 156.16 206.664 156.08C205.104 155.959 203.705 156.472 202.255 155.838C200.657 155.047 198.967 154.459 197.223 154.087C196.668 153.998 196.157 153.733 195.763 153.332C195.594 152.991 195.506 152.616 195.506 152.235C195.506 151.854 195.594 151.479 195.763 151.138C196.024 149.903 196.494 148.722 197.152 147.645C198.008 146.438 199.437 146.226 200.836 145.985C201.863 145.814 202.779 145.683 203.745 145.542Z" fill="#B2857F"/>
<path d="M173.932 94.8839C166.534 107.133 159.226 121.325 157.123 135.597C156.569 139.352 156.267 143.78 158.029 147.303C160.907 153.04 170.701 154.157 176.337 154.731C183.087 155.415 189.883 155.506 196.649 155.003C196.797 155.031 196.949 155.022 197.093 154.977C197.237 154.932 197.367 154.852 197.473 154.745C197.578 154.637 197.655 154.505 197.698 154.361C197.74 154.216 197.746 154.063 197.716 153.916L197.997 147.404C198.044 147.1 198.002 146.789 197.877 146.508C197.7 146.303 197.478 146.142 197.228 146.039C196.978 145.936 196.707 145.893 196.437 145.914C192.495 145.598 188.621 144.699 184.943 143.247C181.45 141.858 174.626 138.214 175.119 133.625C175.391 131.048 178.219 127.908 179.618 125.874C182.98 120.993 186.604 116.262 190.308 111.632C190.308 111.632 190.67 85.2919 173.932 94.8839Z" fill="white"/>
<path d="M207.599 66.9634C208.1 66.8475 208.57 66.6271 208.98 66.3166C209.389 66.0061 209.728 65.6125 209.975 65.1617C210.387 66.3192 212.34 65.9669 212.833 64.8295C213.326 63.6922 212.833 62.4038 212.39 61.2665C212.853 61.1576 213.281 60.9353 213.636 60.6195C213.99 60.3038 214.261 59.9046 214.423 59.458C214.585 59.0115 214.633 58.5316 214.562 58.0618C214.492 57.5921 214.306 57.1472 214.021 56.7674C213.689 56.395 213.226 56.0729 213.135 55.5696C213.114 55.1861 213.172 54.8022 213.306 54.4423C213.369 53.8515 213.275 53.2545 213.033 52.7118C212.79 52.1692 212.409 51.7002 211.927 51.3523C210.938 50.6698 209.833 50.172 208.666 49.8828C208.98 49.3734 209.096 48.7672 208.994 48.1779C208.892 47.5886 208.579 47.0567 208.113 46.6821C207.158 45.9534 206.001 45.5384 204.801 45.4944C203.06 45.3032 201.138 45.3837 199.769 46.5009C198.834 45.9208 197.732 45.6692 196.639 45.7859C195.545 45.9026 194.521 46.3809 193.73 47.1451C193.449 47.5349 193.055 47.8298 192.602 47.9906C192.279 48.014 191.954 47.9587 191.656 47.8295C190.387 47.2868 188.983 47.1429 187.63 47.4169C186.954 47.5781 186.363 47.9869 185.973 48.5627C185.584 49.1385 185.425 49.8394 185.527 50.527C185.027 50.587 184.557 50.7986 184.181 51.1333C183.805 51.4679 183.541 51.9096 183.423 52.3991C183.4 52.7061 183.303 53.0031 183.141 53.2647C182.849 53.6069 182.336 53.5868 181.903 53.6271C181.078 53.699 180.31 54.0797 179.752 54.6931C179.195 55.3065 178.89 56.1076 178.898 56.9362C178.905 57.7649 179.225 58.5602 179.794 59.1632C180.362 59.7663 181.137 60.1328 181.964 60.1895C181.868 60.5939 181.858 61.0136 181.932 61.4223C182.007 61.8311 182.165 62.22 182.396 62.5649C182.93 63.4204 183.644 63.4808 184.349 64.0143C184.762 64.3364 184.601 64.3665 184.58 65.0208C184.56 65.6228 184.59 66.2255 184.671 66.8224C184.808 67.9723 185.096 69.0991 185.527 70.1741C185.829 70.9491 186.211 71.694 186.483 72.479C186.857 73.6815 187.107 74.9193 187.228 76.1729L188.929 71.3618C188.948 71.2961 188.948 71.2263 188.929 71.1605C188.895 71.0712 188.83 70.9965 188.747 70.9491C188.006 70.3711 187.484 69.5571 187.268 68.6419C187.052 67.7267 187.155 66.7652 187.56 65.9166C187.673 65.6504 187.853 65.4179 188.082 65.2416C188.311 65.0653 188.582 64.9511 188.868 64.9101C189.553 64.9101 190.076 65.5039 190.408 66.0977C190.762 66.7304 191.029 67.4074 191.203 68.1108C191.664 67.0094 192.299 65.9897 193.086 65.0912C193.418 64.7188 193.82 64.0847 194.354 64.276C194.887 64.4672 195.139 65.4335 195.36 65.7857C196.153 65.4773 196.876 65.0117 197.484 64.4169C197.414 65.1154 197.545 65.8193 197.863 66.4454C198.18 67.0716 198.671 67.5936 199.276 67.9497C200.544 68.5436 202.386 67.6981 202.386 66.289C202.386 66.9231 205.133 65.8562 205.335 65.7354C205.547 66.1423 205.876 66.4765 206.28 66.6953C206.683 66.9141 207.143 67.0074 207.599 66.9634Z" fill="#473F47"/>
<path d="M194.324 84.396C195.135 84.5024 195.953 84.5361 196.77 84.4967C196.664 84.5022 196.56 84.5333 196.468 84.5873C195.462 85.0503 195.542 86.6808 195.612 87.6068C195.86 88.6487 195.739 89.7442 195.27 90.7069C194.957 90.7093 194.645 90.6652 194.344 90.576C194.036 90.4674 193.753 90.2999 193.509 90.0828C192.596 89.3314 191.928 88.3245 191.591 87.1913C191.254 86.058 191.263 84.8499 191.617 83.7217C192.488 84.0569 193.397 84.2834 194.324 84.396Z" fill="#96625E"/>
<path d="M234.212 103.067C234.212 103.067 252.642 116.665 250.095 130.243C247.73 142.874 245.606 152.919 245.606 152.919L236.98 147.887C236.98 147.887 242.748 128.854 230.71 120.58C218.672 112.307 234.212 103.067 234.212 103.067Z" fill="white"/>
<path d="M235.45 147.696L234.625 151.973C234.479 152.515 234.459 153.083 234.564 153.634C234.62 153.909 234.767 154.158 234.98 154.34C235.193 154.523 235.462 154.628 235.742 154.641C236.346 154.641 236.859 153.976 237.463 154.097C237.679 154.161 237.883 154.26 238.067 154.389C239.355 155.094 240.915 154.389 242.274 153.755C242.491 153.633 242.743 153.587 242.989 153.624C243.281 153.705 243.462 153.996 243.714 154.178C243.965 154.329 244.257 154.4 244.55 154.382C244.842 154.364 245.123 154.258 245.354 154.077C245.81 153.698 246.158 153.205 246.361 152.648C246.903 151.457 247.138 150.15 247.044 148.846C246.951 147.541 246.533 146.281 245.827 145.179C245.055 144.225 244.04 143.495 242.889 143.066C241.739 142.638 240.494 142.526 239.285 142.744C236.668 143.156 235.923 145.21 235.45 147.696Z" fill="#B2857F"/>
<path d="M220.151 168.48H258.208L290.97 148.078L259.536 152.336L220.151 168.48Z" fill="#5F6CAD"/>
<path d="M221.742 166.397L220.151 168.48H258.208L259.798 166.397H221.742Z" fill="url(#paint5_linear)"/>
<path d="M292.559 145.995L290.969 148.078L258.207 168.48L259.797 166.397L292.559 145.995Z" fill="#5F6CAD"/>
<path d="M292.559 145.995L290.969 148.078L258.207 168.48L259.797 166.397L292.559 145.995Z" fill="url(#paint6_linear)"/>
<path d="M261.508 151.158L287.537 147.525L260.391 164.172L230.77 164.686L261.508 151.158Z" fill="white"/>
<path d="M217.161 148.904L231.897 143.438L224.791 138.245L209.673 143.438L217.161 148.904Z" fill="url(#paint7_linear)"/>
<path d="M185.628 205.238L127.16 231.931C125.916 232.498 124.497 232.548 123.216 232.071C121.935 231.593 120.895 230.627 120.326 229.384L105.369 196.612C105.083 196.004 104.928 195.342 104.916 194.67C104.877 193.648 105.143 192.638 105.681 191.768C106.219 190.899 107.004 190.21 107.935 189.788L166.404 163.095C167.097 162.784 167.85 162.628 168.61 162.638C169.37 162.648 170.118 162.825 170.802 163.156C171.879 163.676 172.74 164.555 173.238 165.642L188.175 198.424C188.455 199.039 188.611 199.702 188.635 200.377C188.659 201.053 188.549 201.726 188.313 202.358C188.076 202.991 187.717 203.571 187.257 204.065C186.796 204.559 186.243 204.958 185.628 205.238Z" fill="#5F6CAD"/>
<path d="M185.628 205.238L127.16 231.931C125.916 232.498 124.497 232.548 123.216 232.071C121.935 231.593 120.895 230.627 120.326 229.384L105.369 196.612C105.083 196.004 104.928 195.342 104.916 194.67C104.877 193.648 105.143 192.638 105.681 191.768C106.219 190.899 107.004 190.21 107.935 189.788L166.404 163.095C167.097 162.784 167.85 162.628 168.61 162.638C169.37 162.648 170.118 162.825 170.802 163.156C171.879 163.676 172.74 164.555 173.238 165.642L188.175 198.424C188.455 199.039 188.611 199.702 188.635 200.377C188.659 201.053 188.549 201.726 188.313 202.358C188.076 202.991 187.717 203.571 187.257 204.065C186.796 204.559 186.243 204.958 185.628 205.238Z" fill="url(#paint8_linear)"/>
<path d="M188.335 204.06L129.867 230.753C128.623 231.32 127.204 231.37 125.923 230.893C124.642 230.415 123.602 229.449 123.033 228.207L108.076 195.445C107.793 194.835 107.636 194.174 107.613 193.502C107.576 192.48 107.843 191.469 108.381 190.598C108.918 189.728 109.702 189.036 110.632 188.61L169.101 161.928C170.344 161.363 171.76 161.313 173.04 161.788C174.321 162.263 175.361 163.225 175.935 164.464L190.892 197.246C191.172 197.862 191.327 198.526 191.351 199.201C191.374 199.877 191.263 200.55 191.026 201.183C190.788 201.816 190.428 202.396 189.967 202.89C189.505 203.383 188.951 203.781 188.335 204.06Z" fill="#5F6CAD"/>
<path d="M173.479 161.928L155.221 201.967L107.613 193.452C107.576 192.429 107.843 191.419 108.381 190.548C108.918 189.677 109.702 188.985 110.632 188.56L169.101 161.877C169.789 161.563 170.539 161.405 171.295 161.413C172.052 161.422 172.798 161.598 173.479 161.928Z" fill="url(#paint9_linear)"/>
<path d="M138.15 198.907L133.369 229.092L188.335 204.01L161.753 187.644L155.221 201.967L138.15 198.907Z" fill="url(#paint10_linear)"/>
<path d="M313.515 140.308L275.751 132.85C275.353 132.771 274.975 132.616 274.638 132.391C274.301 132.167 274.011 131.878 273.786 131.541C273.561 131.205 273.404 130.827 273.325 130.43C273.246 130.032 273.246 129.623 273.325 129.226L277.502 108.089C277.575 107.693 277.729 107.316 277.955 106.982C278.291 106.471 278.773 106.071 279.338 105.835C279.902 105.598 280.525 105.535 281.125 105.654L318.89 113.112C319.337 113.196 319.759 113.38 320.125 113.65C320.491 113.92 320.791 114.27 321.003 114.672C321.344 115.303 321.458 116.031 321.326 116.735L317.138 137.872C317.061 138.271 316.906 138.65 316.682 138.988C316.458 139.326 316.17 139.617 315.833 139.843C315.496 140.069 315.118 140.227 314.72 140.307C314.323 140.387 313.913 140.387 313.515 140.308Z" fill="#5F6CAD"/>
<path d="M321.003 114.652L298.135 127.736L278.005 106.962C278.341 106.451 278.823 106.051 279.388 105.814C279.952 105.578 280.575 105.515 281.175 105.633L318.94 113.092C319.378 113.183 319.79 113.37 320.147 113.64C320.504 113.909 320.796 114.255 321.003 114.652Z" fill="url(#paint11_linear)"/>
<path d="M290.899 120.278L278.025 133.293L313.515 140.308L306.308 123.056L298.136 127.737L290.899 120.278Z" fill="url(#paint12_linear)"/>
</g>
<path d="M75.3764 335.984C74.6477 329.938 70.071 326.46 64.0114 326.46C57.0952 326.46 51.8153 331.344 51.8153 339.909C51.8153 348.449 57.0057 353.358 64.0114 353.358C70.723 353.358 74.7756 348.896 75.3764 344.077L69.777 344.051C69.2528 346.851 67.054 348.462 64.1009 348.462C60.125 348.462 57.4276 345.509 57.4276 339.909C57.4276 334.463 60.0866 331.357 64.1392 331.357C67.169 331.357 69.3551 333.108 69.777 335.984H75.3764ZM79.2436 353H84.6896V341.891C84.6896 339.474 86.4538 337.812 88.8572 337.812C89.6115 337.812 90.647 337.94 91.1584 338.107V333.274C90.6726 333.159 89.995 333.082 89.4453 333.082C87.2464 333.082 85.4439 334.361 84.728 336.79H84.5234V333.364H79.2436V353ZM102.009 353.384C106.867 353.384 110.14 351.018 110.907 347.375L105.87 347.043C105.32 348.538 103.914 349.318 102.098 349.318C99.3754 349.318 97.6495 347.516 97.6495 344.588V344.575H111.022V343.08C111.022 336.406 106.982 333.108 101.792 333.108C96.0131 333.108 92.2674 337.212 92.2674 343.271C92.2674 349.497 95.962 353.384 102.009 353.384ZM97.6495 341.2C97.7646 338.963 99.4648 337.173 101.881 337.173C104.246 337.173 105.882 338.861 105.895 341.2H97.6495ZM120.175 353.371C123.077 353.371 124.956 352.105 125.915 350.277H126.069V353H131.233V339.756C131.233 335.077 127.27 333.108 122.898 333.108C118.194 333.108 115.1 335.358 114.346 338.938L119.382 339.347C119.753 338.043 120.917 337.084 122.873 337.084C124.726 337.084 125.787 338.017 125.787 339.628V339.705C125.787 340.97 124.445 341.136 121.032 341.469C117.145 341.827 113.655 343.131 113.655 347.516C113.655 351.402 116.429 353.371 120.175 353.371ZM121.735 349.612C120.06 349.612 118.858 348.832 118.858 347.337C118.858 345.803 120.124 345.048 122.042 344.78C123.23 344.614 125.174 344.332 125.826 343.898V345.982C125.826 348.04 124.125 349.612 121.735 349.612ZM145.903 333.364H142.208V328.659H136.762V333.364H134.078V337.455H136.762V347.682C136.737 351.53 139.358 353.435 143.308 353.268C144.714 353.217 145.711 352.936 146.261 352.757L145.404 348.705C145.136 348.756 144.561 348.884 144.049 348.884C142.963 348.884 142.208 348.474 142.208 346.966V337.455H145.903V333.364ZM149.451 353H154.897V333.364H149.451V353ZM152.186 330.832C153.81 330.832 155.14 329.592 155.14 328.071C155.14 326.562 153.81 325.322 152.186 325.322C150.576 325.322 149.246 326.562 149.246 328.071C149.246 329.592 150.576 330.832 152.186 330.832ZM164.705 341.648C164.718 339.116 166.227 337.634 168.425 337.634C170.612 337.634 171.928 339.065 171.915 341.469V353H177.362V340.497C177.362 335.92 174.677 333.108 170.586 333.108C167.671 333.108 165.562 334.54 164.68 336.828H164.45V333.364H159.259V353H164.705V341.648ZM190.5 360.773C196.113 360.773 200.101 358.216 200.101 353.192V333.364H194.694V336.662H194.489C193.76 335.064 192.162 333.108 188.877 333.108C184.569 333.108 180.925 336.457 180.925 343.143C180.925 349.676 184.466 352.719 188.89 352.719C192.022 352.719 193.773 351.146 194.489 349.523H194.719V353.115C194.719 355.812 192.993 356.861 190.628 356.861C188.225 356.861 187.01 355.812 186.563 354.624L181.526 355.301C182.178 358.395 185.208 360.773 190.5 360.773ZM190.615 348.628C187.944 348.628 186.486 346.506 186.486 343.118C186.486 339.781 187.918 337.442 190.615 337.442C193.262 337.442 194.745 339.679 194.745 343.118C194.745 346.582 193.236 348.628 190.615 348.628ZM218.366 353.371C221.268 353.371 223.148 352.105 224.107 350.277H224.26V353H229.425V339.756C229.425 335.077 225.462 333.108 221.089 333.108C216.385 333.108 213.291 335.358 212.537 338.938L217.574 339.347C217.945 338.043 219.108 337.084 221.064 337.084C222.918 337.084 223.979 338.017 223.979 339.628V339.705C223.979 340.97 222.636 341.136 219.223 341.469C215.337 341.827 211.847 343.131 211.847 347.516C211.847 351.402 214.621 353.371 218.366 353.371ZM219.926 349.612C218.251 349.612 217.05 348.832 217.05 347.337C217.05 345.803 218.315 345.048 220.233 344.78C221.422 344.614 223.365 344.332 224.017 343.898V345.982C224.017 348.04 222.317 349.612 219.926 349.612ZM252.426 333.364H248.732V328.659H243.286V333.364H240.601V337.455H243.286V347.682C243.26 351.53 245.881 353.435 249.831 353.268C251.238 353.217 252.235 352.936 252.784 352.757L251.928 348.705C251.659 348.756 251.084 348.884 250.573 348.884C249.486 348.884 248.732 348.474 248.732 346.966V337.455H252.426V333.364ZM261.842 341.648C261.855 339.116 263.402 337.634 265.626 337.634C267.838 337.634 269.142 339.053 269.129 341.469V353H274.575V340.497C274.588 335.895 271.877 333.108 267.787 333.108C264.808 333.108 262.814 334.514 261.919 336.828H261.689V326.818H256.396V353H261.842V341.648ZM278.861 353H284.307V341.891C284.307 339.474 286.071 337.812 288.474 337.812C289.229 337.812 290.264 337.94 290.776 338.107V333.274C290.29 333.159 289.612 333.082 289.062 333.082C286.864 333.082 285.061 334.361 284.345 336.79H284.141V333.364H278.861V353ZM301.626 353.384C306.484 353.384 309.757 351.018 310.524 347.375L305.487 347.043C304.937 348.538 303.531 349.318 301.716 349.318C298.993 349.318 297.267 347.516 297.267 344.588V344.575H310.639V343.08C310.639 336.406 306.599 333.108 301.409 333.108C295.63 333.108 291.885 337.212 291.885 343.271C291.885 349.497 295.579 353.384 301.626 353.384ZM297.267 341.2C297.382 338.963 299.082 337.173 301.498 337.173C303.863 337.173 305.5 338.861 305.512 341.2H297.267ZM319.792 353.371C322.694 353.371 324.574 352.105 325.532 350.277H325.686V353H330.85V339.756C330.85 335.077 326.887 333.108 322.515 333.108C317.811 333.108 314.717 335.358 313.963 338.938L319 339.347C319.37 338.043 320.534 337.084 322.49 337.084C324.343 337.084 325.404 338.017 325.404 339.628V339.705C325.404 340.97 324.062 341.136 320.649 341.469C316.762 341.827 313.272 343.131 313.272 347.516C313.272 351.402 316.047 353.371 319.792 353.371ZM321.352 349.612C319.677 349.612 318.475 348.832 318.475 347.337C318.475 345.803 319.741 345.048 321.659 344.78C322.848 344.614 324.791 344.332 325.443 343.898V345.982C325.443 348.04 323.743 349.612 321.352 349.612ZM342.311 353.32C345.482 353.32 347.131 351.491 347.885 349.855H348.115V353H353.485V326.818H348.051V336.662H347.885C347.157 335.064 345.584 333.108 342.299 333.108C337.99 333.108 334.347 336.457 334.347 343.207C334.347 349.778 337.837 353.32 342.311 353.32ZM344.037 348.986C341.365 348.986 339.908 346.608 339.908 343.182C339.908 339.781 341.34 337.442 344.037 337.442C346.684 337.442 348.167 339.679 348.167 343.182C348.167 346.685 346.658 348.986 344.037 348.986Z" fill="black"/>
<defs>
<linearGradient id="paint0_linear" x1="256.357" y1="153.236" x2="282.939" y2="216.724" gradientUnits="userSpaceOnUse">
<stop offset="0.01" stop-color="white"/>
<stop offset="1" stop-color="white" stop-opacity="0"/>
</linearGradient>
<linearGradient id="paint1_linear" x1="237.05" y1="172.162" x2="362.743" y2="251.347" gradientUnits="userSpaceOnUse">
<stop offset="0.01"/>
<stop offset="0.08" stop-opacity="0.69"/>
<stop offset="0.21" stop-opacity="0.32"/>
<stop offset="1" stop-opacity="0"/>
</linearGradient>
<linearGradient id="paint2_linear" x1="20602.7" y1="23905.1" x2="-4617.57" y2="12656" gradientUnits="userSpaceOnUse">
<stop offset="0.01"/>
<stop offset="0.08" stop-opacity="0.69"/>
<stop offset="0.21" stop-opacity="0.32"/>
<stop offset="1" stop-opacity="0"/>
</linearGradient>
<linearGradient id="paint3_linear" x1="14834.8" y1="4403.5" x2="14442.6" y2="8600.81" gradientUnits="userSpaceOnUse">
<stop offset="0.01"/>
<stop offset="0.08" stop-opacity="0.69"/>
<stop offset="0.21" stop-opacity="0.32"/>
<stop offset="1" stop-opacity="0"/>
</linearGradient>
<linearGradient id="paint4_linear" x1="9813.09" y1="3224.4" x2="11585.3" y2="6208.41" gradientUnits="userSpaceOnUse">
<stop offset="0.01"/>
<stop offset="0.08" stop-opacity="0.69"/>
<stop offset="0.21" stop-opacity="0.32"/>
<stop offset="1" stop-opacity="0"/>
</linearGradient>
<linearGradient id="paint5_linear" x1="8130.82" y1="550.339" x2="8197.31" y2="-211.76" gradientUnits="userSpaceOnUse">
<stop offset="0.01"/>
<stop offset="0.08" stop-opacity="0.69"/>
<stop offset="0.21" stop-opacity="0.32"/>
<stop offset="1" stop-opacity="0"/>
</linearGradient>
<linearGradient id="paint6_linear" x1="8998.8" y1="3355.12" x2="10046.5" y2="5512.39" gradientUnits="userSpaceOnUse">
<stop offset="0.01"/>
<stop offset="0.08" stop-opacity="0.69"/>
<stop offset="0.21" stop-opacity="0.32"/>
<stop offset="1" stop-opacity="0"/>
</linearGradient>
<linearGradient id="paint7_linear" x1="4781.55" y1="1588.18" x2="4921" y2="2007.15" gradientUnits="userSpaceOnUse">
<stop offset="0.01"/>
<stop offset="0.08" stop-opacity="0.69"/>
<stop offset="0.21" stop-opacity="0.32"/>
<stop offset="1" stop-opacity="0"/>
</linearGradient>
<linearGradient id="paint8_linear" x1="13980.8" y1="14940.9" x2="5200.99" y2="21966.4" gradientUnits="userSpaceOnUse">
<stop offset="0.01"/>
<stop offset="0.08" stop-opacity="0.69"/>
<stop offset="0.21" stop-opacity="0.32"/>
<stop offset="1" stop-opacity="0"/>
</linearGradient>
<linearGradient id="paint9_linear" x1="25047.8" y1="3386.36" x2="25808" y2="7958.5" gradientUnits="userSpaceOnUse">
<stop offset="0.01" stop-color="white"/>
<stop offset="1" stop-color="white" stop-opacity="0"/>
</linearGradient>
<linearGradient id="paint10_linear" x1="18927" y1="5117.56" x2="25861.8" y2="13902.8" gradientUnits="userSpaceOnUse">
<stop offset="0.01"/>
<stop offset="0.08" stop-opacity="0.69"/>
<stop offset="0.21" stop-opacity="0.32"/>
<stop offset="1" stop-opacity="0"/>
</linearGradient>
<linearGradient id="paint11_linear" x1="-22683.9" y1="-4156.11" x2="-23363.4" y2="-2799.55" gradientUnits="userSpaceOnUse">
<stop offset="0.01" stop-color="white"/>
<stop offset="1" stop-color="white" stop-opacity="0"/>
</linearGradient>
<linearGradient id="paint12_linear" x1="-19682.5" y1="-3092.74" x2="-19934.5" y2="343.828" gradientUnits="userSpaceOnUse">
<stop offset="0.01"/>
<stop offset="0.08" stop-opacity="0.69"/>
<stop offset="0.21" stop-opacity="0.32"/>
<stop offset="1" stop-opacity="0"/>
</linearGradient>
<clipPath id="clip0">
<rect width="406" height="306" fill="white"/>
</clipPath>
</defs>
</svg>
