<svg width="406" height="361" viewBox="0 0 406 361" fill="none" xmlns="http://www.w3.org/2000/svg">
<g clip-path="url(#clip0)">
<path opacity="0.18" d="M86.597 44.7898C113.773 40.8443 141.754 43.5619 168.698 38.1468C196.881 32.4802 222.547 18.2179 249.712 8.7466C276.878 -0.724687 308.251 -4.98224 333.454 8.89757C348.884 17.4026 360.238 31.8058 369.145 47.0444C386.702 77.0957 396.218 111.165 396.774 145.964C397.026 163.216 395.023 180.589 389.728 197.015C372.034 251.91 318.477 289.906 262.002 301.622C199.981 314.495 132.544 298.803 82.4602 260.043C39.8143 226.979 -2.35859 168.027 12.105 114.33C21.6971 78.6187 45.8534 50.7081 86.597 44.7898Z" fill="#20063B"/>
<path d="M299.776 191.801L268.836 214.699C268.178 215.186 267.354 215.391 266.544 215.27C265.734 215.149 265.006 214.712 264.518 214.055L251.685 196.713C251.443 196.39 251.272 196.019 251.182 195.626C251.031 195.034 251.06 194.411 251.265 193.836C251.469 193.261 251.839 192.759 252.329 192.395L283.28 169.497C283.645 169.228 284.066 169.042 284.511 168.954C284.956 168.865 285.415 168.875 285.856 168.983C286.551 169.161 287.165 169.569 287.598 170.141L300.431 187.493C300.671 187.819 300.844 188.189 300.941 188.582C301.038 188.975 301.057 189.383 300.996 189.783C300.935 190.183 300.796 190.567 300.587 190.913C300.378 191.26 300.102 191.561 299.776 191.801Z" fill="#20063B"/>
<path d="M285.856 168.983L280.129 194.71L251.182 195.626C251.031 195.034 251.06 194.411 251.265 193.836C251.469 193.261 251.839 192.759 252.329 192.395L283.28 169.497C283.645 169.228 284.066 169.042 284.511 168.954C284.956 168.865 285.415 168.875 285.856 168.983Z" fill="url(#paint0_linear)"/>
<path d="M269.742 195.042L270.688 213.32L299.776 191.801L282.172 185.51L280.129 194.71L269.742 195.042Z" fill="url(#paint1_linear)"/>
<path d="M305.533 45.4139L270.97 94.6625L264.327 76.2333C241.387 82.3263 218.803 89.6886 196.679 98.286C171.174 108.442 146.615 121.063 139.559 134.108C123.385 164.072 161.381 177.317 161.381 177.317C154.152 177.895 146.883 177.72 139.69 176.794C120.738 174.308 97.2053 165.128 104.019 134.108C109.404 109.599 144.461 88.9858 178.904 74.3008H178.954C183.987 72.167 189.019 70.164 193.911 68.2617L194.052 68.2013C212.478 61.156 231.27 55.1082 250.346 50.0841L247.035 33.9597L305.533 45.4139Z" fill="#20063B"/>
<path d="M139.56 134.108C123.385 164.072 161.381 177.317 161.381 177.317C154.152 177.895 146.883 177.72 139.691 176.794C136.843 173.479 134.181 170.008 131.719 166.397C109.908 134.671 156.691 109.67 156.691 109.67C160.586 95.4476 178.904 83.6815 178.904 83.6815V74.3008H178.955L193.911 68.2617L194.052 68.2013L197.344 95.6992L196.679 98.2658C171.174 108.442 146.615 121.063 139.56 134.108Z" fill="url(#paint2_linear)"/>
<path d="M245.626 237.577C244.705 239.144 244.135 240.892 243.955 242.7C243.986 244.511 244.573 246.268 245.636 247.733C247.82 250.973 251.169 253.248 254.986 254.084C255.486 254.237 256.023 254.213 256.506 254.014C256.837 253.811 257.095 253.507 257.241 253.148C258.157 251.286 257.785 249.072 257.181 247.109C256.577 245.146 255.751 243.153 255.842 241.07C255.993 237.175 261.559 229.656 255.077 227.824C249.672 226.254 247.347 234.105 245.626 237.577Z" fill="#B2857F"/>
<path d="M241.821 242.66C241.821 242.66 239.909 244.23 240.271 245.962C240.634 247.693 247.508 259.761 257.301 258.382C267.095 257.003 251.011 247.31 251.011 247.31L241.821 242.66Z" fill="#20063B"/>
<path d="M244.78 238.201C245.182 238.216 245.564 238.374 245.858 238.648C246.152 238.922 246.338 239.292 246.381 239.691C246.636 240.841 247.181 241.906 247.963 242.787C248.745 243.667 249.738 244.334 250.85 244.724C253.406 245.418 255.741 243.284 256.889 243.888C258.036 244.492 261.257 252.896 260.412 255.292C259.566 257.687 255.6 257.627 252.078 255.986C248.555 254.346 242.133 247.793 241.64 245.207C241.147 242.62 243.381 238.896 244.78 238.201Z" fill="white"/>
<path d="M204.097 251.497C203.148 253.283 202.598 255.255 202.487 257.275C202.625 259.268 203.362 261.173 204.6 262.74C207.185 266.243 211.021 268.615 215.31 269.363C215.87 269.511 216.465 269.458 216.991 269.212C217.345 268.96 217.618 268.61 217.776 268.205C218.702 266.092 218.168 263.646 217.413 261.472C216.659 259.298 215.652 257.154 215.612 254.859C215.612 250.531 221.419 241.885 214.132 240.164C208.043 238.725 205.828 247.562 204.097 251.497Z" fill="#B2857F"/>
<path d="M200.101 257.406C200.101 257.406 198.088 259.247 198.541 261.15C198.994 263.052 207.227 276.147 218.057 274.134C228.887 272.121 210.549 262.207 210.549 262.207L200.101 257.406Z" fill="#20063B"/>
<path d="M203.171 252.252C203.621 252.247 204.058 252.406 204.4 252.698C204.743 252.991 204.967 253.397 205.033 253.843C205.37 255.105 206.025 256.259 206.936 257.195C207.847 258.131 208.984 258.817 210.237 259.187C213.115 259.831 215.622 257.365 216.89 257.969C218.158 258.573 222.184 267.783 221.339 270.47C220.493 273.158 216.095 273.298 212.099 271.648C208.103 269.997 200.645 263.012 200.021 260.163C199.397 257.315 201.651 253.098 203.171 252.252Z" fill="white"/>
<path d="M225.808 146.528C226.082 146.576 226.351 146.647 226.613 146.74C232.974 149.155 240.634 159.925 244.962 165.038C250.588 171.513 255.271 178.751 258.872 186.537C266.179 202.853 266.853 223.124 256.587 237.758L248.696 236.108C248.007 236.031 247.357 235.747 246.834 235.292C246.564 234.898 246.378 234.452 246.287 233.983C246.195 233.515 246.2 233.032 246.3 232.565C246.717 226.928 246.457 221.261 245.525 215.686C245.005 211.864 243.833 208.161 242.063 204.735C239.587 200.276 235.682 196.824 231.877 193.442C219.799 182.742 208.969 171.681 202.98 156.553C208.385 153.896 219.98 145.501 225.808 146.528Z" fill="#473F47"/>
<path d="M207.529 154.741C207.79 154.845 208.037 154.98 208.264 155.144C213.891 158.969 218.833 171.248 221.852 177.207C225.807 184.821 228.673 192.952 230.367 201.363C233.658 218.927 229.602 238.795 216.206 250.682L208.908 247.23C208.259 246.995 207.694 246.57 207.288 246.012C207.119 245.563 207.042 245.085 207.063 244.605C207.084 244.126 207.201 243.656 207.409 243.224C209.13 237.839 210.198 232.266 210.589 226.626C210.975 222.79 210.699 218.916 209.774 215.172C208.415 210.271 205.416 206.003 202.507 201.816C193.297 188.61 185.306 175.314 183.011 159.21C188.879 157.882 202.114 152.426 207.529 154.741Z" fill="#473F47"/>
<path d="M240.311 116.403C240.316 116.447 240.316 116.491 240.311 116.534C240.402 118.215 240.956 119.694 240.523 121.406C240.06 123.308 238.288 125.029 236.356 124.747C234.745 124.516 233.648 123.066 232.41 122.009C231.115 120.972 229.678 120.125 228.143 119.493C226.13 118.557 224.056 117.681 221.983 116.876C220.654 116.353 218.118 116.031 217.554 114.672C216.99 113.313 217.172 111.169 217.011 109.73L214.504 86.8922L237.825 106.016C238.782 108.107 239.527 110.289 240.05 112.528C240.272 113.807 240.36 115.106 240.311 116.403Z" fill="white"/>
<path d="M222.999 118.919C223.14 120.268 223.452 121.607 223.613 122.946C224.459 130.384 223.543 138.265 226.562 145.32C227.247 146.89 228.132 148.561 227.73 150.232C227.238 151.648 226.247 152.836 224.942 153.574C218.782 157.882 211.304 159.804 204.016 161.626C198.531 163.015 190.811 165.541 185.335 163.105C183 162.099 181.994 159.764 181.038 157.469C178.018 150.162 176.428 142.11 174.999 134.319C174.817 133.313 174.626 132.306 174.455 131.249C173.267 124.224 172.338 117.138 171.667 109.992C171.204 104.798 170.993 99.1616 173.952 94.894C177.877 89.1972 186.191 84.8289 192.663 82.8159C194.756 82.1421 196.936 81.7792 199.135 81.7389C202.267 81.8853 205.351 82.5661 208.254 83.7519C211.706 85.0101 214.776 86.0568 216.739 89.1166C218.915 92.6711 220.582 96.5131 221.691 100.53C222.735 104.292 223.253 108.181 223.231 112.085C223.231 113.998 222.969 115.93 222.979 117.832C222.947 118.194 222.954 118.559 222.999 118.919Z" fill="white"/>
<path opacity="0.1" d="M197.233 164.414C195.139 165.29 189.946 163.85 188.265 163.739C187.258 163.679 186.252 163.276 185.245 163.156C180.213 162.461 178.069 148.672 177.193 145.038C174.838 135.326 171.758 125.341 170.53 115.477C170.067 111.663 169.735 107.767 170.59 104.033C171.446 100.299 173.61 96.6957 177.082 94.9745C183.121 92.0154 187.198 111.733 188.516 115.759C190.167 120.792 191.828 125.824 193.468 130.857C194.193 133.111 194.425 135.618 195.663 137.681C197.545 140.811 199.135 140.217 202.285 139.694C208.898 138.546 215.078 135.738 221.59 134.168C221.858 134.068 222.143 134.024 222.429 134.037C222.715 134.051 222.994 134.123 223.251 134.249C223.602 134.537 223.841 134.94 223.925 135.386C224.309 136.657 224.519 137.974 224.549 139.301C224.588 139.681 224.532 140.065 224.388 140.419C224.161 140.78 223.846 141.078 223.472 141.284C219.071 144.196 214.237 146.394 209.15 147.796C205.124 148.924 201.309 150.816 198.591 154.178C196.146 157.197 199.326 160.378 197.998 163.649C197.928 163.821 197.825 163.978 197.693 164.11C197.562 164.241 197.405 164.344 197.233 164.414Z" fill="#020202"/>
<path d="M192.643 149.205L231.233 136.191L259.536 152.336L220.151 168.48L192.643 149.205Z" fill="#20063B"/>
<path d="M192.643 149.205L231.233 136.191L259.536 152.336L220.151 168.48L192.643 149.205Z" fill="url(#paint3_linear)"/>
<path d="M194.233 147.122L232.823 134.108L261.126 150.252L221.741 166.397L194.233 147.122Z" fill="#20063B"/>
<path d="M223.634 164.172L255.56 150.071L239.979 141.516L208.234 153.533L223.634 164.172Z" fill="url(#paint4_linear)"/>
<path d="M221.741 166.397H259.797L292.559 145.995L261.126 150.252L221.741 166.397Z" fill="#20063B"/>
<path d="M208.757 72.8816C208.365 74.3008 207.942 75.7199 207.489 77.1291C206.482 80.3499 204.469 83.2889 200.967 84.0639C200.193 84.2129 199.409 84.3071 198.622 84.3457C198.471 84.3457 198.3 84.3457 198.098 84.3457C198.087 84.3511 198.075 84.3539 198.063 84.3539C198.051 84.3539 198.039 84.3511 198.028 84.3457H197.937C197.544 84.3273 197.151 84.368 196.77 84.4665C196.663 84.4721 196.56 84.5031 196.468 84.5571C195.461 85.0201 195.542 86.6507 195.612 87.5767C195.86 88.6185 195.739 89.714 195.27 90.6767C195.27 90.6767 195.27 90.7371 195.21 90.7774C194.931 91.0817 194.594 91.3275 194.219 91.5003C193.844 91.6731 193.438 91.7695 193.025 91.7839C191.29 91.9241 189.566 91.3987 188.204 90.3144C187.425 89.5906 186.798 88.7179 186.362 87.7478C186.226 87.4721 186.111 87.186 186.02 86.8922C185.906 86.3942 185.862 85.8826 185.889 85.3724C185.908 84.5898 185.982 83.8094 186.111 83.0373C186.482 81.5134 186.774 79.9714 186.986 78.4174C187 77.6301 187.053 76.844 187.147 76.0622C187.276 75.5626 187.37 75.0548 187.429 74.5423C187.429 73.0627 186.674 71.6335 186.664 70.1338C186.651 68.6507 186.789 67.1702 187.077 65.7152C187.614 62.8292 188.871 60.1254 190.731 57.8543C194.183 53.8283 200.302 51.8153 205.114 54.1101C207.518 55.2572 209.383 57.2922 210.317 59.7868C211.928 64.0243 209.915 68.7448 208.757 72.8816Z" fill="#B2857F"/>
<path d="M203.745 145.542C204.59 145.441 205.446 145.351 206.291 145.28C206.796 145.209 207.309 145.24 207.801 145.371C208.043 145.434 208.264 145.561 208.441 145.737C208.618 145.914 208.744 146.135 208.808 146.377C208.802 146.561 208.84 146.744 208.918 146.911C209.047 147.06 209.226 147.156 209.422 147.182C212.441 147.967 215.561 149.195 217.363 151.681C217.578 151.917 217.727 152.204 217.798 152.514C217.869 152.825 217.857 153.148 217.766 153.453C217.353 154.298 216.145 154.178 215.239 153.926C215.369 154.112 215.439 154.333 215.439 154.56C215.439 154.787 215.369 155.008 215.239 155.194C215.104 155.377 214.926 155.524 214.72 155.622C214.515 155.72 214.289 155.767 214.062 155.758C213.762 155.703 213.455 155.703 213.156 155.758C212.951 155.853 212.761 155.979 212.592 156.13C212.168 156.41 211.692 156.601 211.192 156.691C210.692 156.781 210.178 156.768 209.683 156.654C208.677 156.503 207.67 156.16 206.664 156.08C205.104 155.959 203.705 156.472 202.255 155.838C200.657 155.047 198.967 154.459 197.223 154.087C196.668 153.998 196.157 153.733 195.763 153.332C195.594 152.991 195.506 152.616 195.506 152.235C195.506 151.854 195.594 151.479 195.763 151.138C196.024 149.903 196.494 148.722 197.152 147.645C198.008 146.438 199.437 146.226 200.836 145.985C201.863 145.814 202.779 145.683 203.745 145.542Z" fill="#B2857F"/>
<path d="M173.932 94.8839C166.534 107.133 159.227 121.325 157.123 135.597C156.57 139.352 156.268 143.78 158.029 147.303C160.908 153.04 170.701 154.157 176.338 154.731C183.087 155.415 189.884 155.506 196.649 155.003C196.797 155.031 196.95 155.022 197.093 154.977C197.237 154.932 197.368 154.852 197.473 154.745C197.579 154.637 197.656 154.505 197.698 154.361C197.741 154.216 197.747 154.063 197.716 153.916L197.998 147.404C198.045 147.1 198.003 146.789 197.877 146.508C197.701 146.303 197.478 146.142 197.228 146.039C196.978 145.936 196.707 145.893 196.438 145.914C192.495 145.598 188.622 144.699 184.943 143.247C181.451 141.858 174.627 138.214 175.12 133.625C175.392 131.048 178.22 127.908 179.619 125.874C182.981 120.993 186.604 116.262 190.308 111.632C190.308 111.632 190.67 85.2919 173.932 94.8839Z" fill="white"/>
<path d="M207.6 66.9633C208.1 66.8474 208.571 66.627 208.98 66.3165C209.39 66.006 209.729 65.6124 209.975 65.1616C210.388 66.3191 212.341 65.9668 212.834 64.8295C213.327 63.6921 212.834 62.4038 212.391 61.2664C212.853 61.1576 213.281 60.9352 213.636 60.6195C213.991 60.3037 214.261 59.9045 214.423 59.458C214.585 59.0114 214.633 58.5316 214.563 58.0618C214.493 57.592 214.307 57.1471 214.021 56.7673C213.689 56.3949 213.226 56.0728 213.136 55.5696C213.114 55.186 213.172 54.8022 213.307 54.4423C213.37 53.8514 213.275 53.2544 213.033 52.7118C212.791 52.1692 212.41 51.7001 211.928 51.3523C210.938 50.6697 209.834 50.1719 208.667 49.8828C208.98 49.3733 209.097 48.7671 208.995 48.1778C208.893 47.5885 208.579 47.0567 208.113 46.6821C207.159 45.9533 206.002 45.5384 204.802 45.4944C203.061 45.3031 201.138 45.3837 199.769 46.5009C198.835 45.9208 197.733 45.6691 196.639 45.7858C195.545 45.9025 194.521 46.3808 193.73 47.1451C193.449 47.5349 193.056 47.8298 192.603 47.9905C192.279 48.0139 191.955 47.9587 191.657 47.8295C190.388 47.2867 188.984 47.1428 187.631 47.4168C186.955 47.578 186.363 47.9869 185.974 48.5627C185.584 49.1385 185.425 49.8393 185.527 50.5269C185.027 50.587 184.558 50.7985 184.182 51.1332C183.806 51.4679 183.541 51.9096 183.423 52.399C183.401 52.7061 183.304 53.003 183.142 53.2647C182.85 53.6069 182.336 53.5867 181.904 53.627C181.078 53.6989 180.31 54.0796 179.753 54.693C179.196 55.3065 178.89 56.1075 178.898 56.9362C178.906 57.7648 179.226 58.5601 179.794 59.1632C180.362 59.7663 181.137 60.1327 181.964 60.1895C181.869 60.5939 181.858 61.0136 181.933 61.4223C182.007 61.831 182.165 62.22 182.397 62.5648C182.93 63.4204 183.645 63.4808 184.349 64.0142C184.762 64.3363 184.601 64.3665 184.581 65.0207C184.561 65.6227 184.591 66.2254 184.672 66.8224C184.809 67.9722 185.097 69.0991 185.527 70.1741C185.829 70.9491 186.212 71.6939 186.483 72.479C186.858 73.6815 187.107 74.9193 187.228 76.1729L188.929 71.3618C188.948 71.296 188.948 71.2262 188.929 71.1604C188.895 71.0711 188.831 70.9964 188.748 70.9491C188.006 70.3711 187.484 69.5571 187.268 68.6419C187.052 67.7267 187.155 66.7652 187.56 65.9165C187.673 65.6504 187.853 65.4179 188.082 65.2416C188.312 65.0652 188.582 64.951 188.869 64.91C189.553 64.91 190.077 65.5038 190.409 66.0977C190.762 66.7303 191.03 67.4073 191.204 68.1107C191.664 67.0093 192.3 65.9896 193.086 65.0912C193.418 64.7188 193.821 64.0847 194.354 64.2759C194.888 64.4671 195.139 65.4334 195.361 65.7857C196.154 65.4772 196.876 65.0116 197.484 64.4168C197.414 65.1153 197.546 65.8193 197.863 66.4454C198.181 67.0715 198.671 67.5935 199.276 67.9497C200.544 68.5435 202.386 67.698 202.386 66.2889C202.386 66.923 205.134 65.8561 205.335 65.7353C205.548 66.1422 205.877 66.4765 206.28 66.6952C206.683 66.914 207.143 67.0073 207.6 66.9633Z" fill="#473F47"/>
<path d="M194.324 84.3961C195.134 84.5025 195.953 84.5362 196.77 84.4968C196.663 84.5023 196.559 84.5334 196.468 84.5873C195.461 85.0503 195.542 86.6809 195.612 87.6069C195.86 88.6487 195.739 89.7443 195.27 90.7069C194.956 90.7093 194.644 90.6652 194.344 90.5761C194.036 90.4674 193.752 90.2999 193.508 90.0829C192.596 89.3314 191.928 88.3246 191.591 87.1913C191.254 86.0581 191.262 84.8499 191.616 83.7217C192.488 84.057 193.397 84.2835 194.324 84.3961Z" fill="#96625E"/>
<path d="M234.212 103.067C234.212 103.067 252.641 116.665 250.095 130.243C247.729 142.874 245.606 152.919 245.606 152.919L236.98 147.887C236.98 147.887 242.747 128.854 230.709 120.58C218.671 112.307 234.212 103.067 234.212 103.067Z" fill="white"/>
<path d="M235.45 147.696L234.625 151.973C234.479 152.515 234.459 153.083 234.564 153.634C234.62 153.909 234.767 154.158 234.98 154.34C235.193 154.522 235.462 154.628 235.742 154.641C236.346 154.641 236.859 153.976 237.463 154.097C237.679 154.161 237.883 154.26 238.067 154.389C239.355 155.094 240.915 154.389 242.274 153.755C242.491 153.633 242.743 153.587 242.989 153.624C243.281 153.705 243.462 153.996 243.714 154.178C243.965 154.329 244.257 154.4 244.55 154.382C244.842 154.364 245.123 154.258 245.354 154.077C245.81 153.698 246.158 153.205 246.361 152.648C246.903 151.457 247.138 150.15 247.044 148.846C246.951 147.541 246.533 146.281 245.827 145.179C245.055 144.225 244.04 143.495 242.889 143.066C241.739 142.638 240.494 142.526 239.285 142.744C236.668 143.156 235.923 145.21 235.45 147.696Z" fill="#B2857F"/>
<path d="M220.151 168.48H258.207L290.969 148.078L259.536 152.336L220.151 168.48Z" fill="#20063B"/>
<path d="M221.741 166.397L220.151 168.48H258.207L259.797 166.397H221.741Z" fill="url(#paint5_linear)"/>
<path d="M292.559 145.995L290.969 148.078L258.207 168.48L259.797 166.397L292.559 145.995Z" fill="#20063B"/>
<path d="M292.559 145.995L290.969 148.078L258.207 168.48L259.797 166.397L292.559 145.995Z" fill="url(#paint6_linear)"/>
<path d="M261.508 151.158L287.537 147.525L260.391 164.172L230.77 164.686L261.508 151.158Z" fill="white"/>
<path d="M217.162 148.903L231.897 143.438L224.791 138.245L209.673 143.438L217.162 148.903Z" fill="url(#paint7_linear)"/>
<path d="M185.628 205.238L127.159 231.931C125.915 232.498 124.497 232.548 123.216 232.07C121.934 231.593 120.895 230.627 120.325 229.384L105.368 196.612C105.082 196.004 104.928 195.342 104.915 194.67C104.876 193.648 105.143 192.638 105.681 191.768C106.219 190.899 107.003 190.209 107.935 189.788L166.403 163.095C167.096 162.784 167.849 162.627 168.609 162.638C169.369 162.648 170.117 162.825 170.802 163.156C171.878 163.675 172.74 164.555 173.237 165.642L188.174 198.424C188.454 199.039 188.611 199.702 188.635 200.377C188.658 201.052 188.549 201.726 188.312 202.358C188.076 202.991 187.717 203.571 187.256 204.065C186.796 204.559 186.242 204.958 185.628 205.238Z" fill="#20063B"/>
<path d="M185.628 205.238L127.159 231.931C125.915 232.498 124.497 232.548 123.216 232.07C121.934 231.593 120.895 230.627 120.325 229.384L105.368 196.612C105.082 196.004 104.928 195.342 104.915 194.67C104.876 193.648 105.143 192.638 105.681 191.768C106.219 190.899 107.003 190.209 107.935 189.788L166.403 163.095C167.096 162.784 167.849 162.627 168.609 162.638C169.369 162.648 170.117 162.825 170.802 163.156C171.878 163.675 172.74 164.555 173.237 165.642L188.174 198.424C188.454 199.039 188.611 199.702 188.635 200.377C188.658 201.052 188.549 201.726 188.312 202.358C188.076 202.991 187.717 203.571 187.256 204.065C186.796 204.559 186.242 204.958 185.628 205.238Z" fill="url(#paint8_linear)"/>
<path d="M188.335 204.06L129.867 230.753C128.623 231.32 127.204 231.37 125.923 230.893C124.642 230.415 123.602 229.449 123.033 228.207L108.076 195.445C107.793 194.835 107.636 194.174 107.613 193.502C107.576 192.48 107.843 191.469 108.381 190.598C108.918 189.728 109.702 189.036 110.632 188.61L169.101 161.928C170.344 161.363 171.76 161.313 173.04 161.788C174.321 162.263 175.361 163.225 175.935 164.464L190.892 197.246C191.172 197.862 191.327 198.526 191.351 199.201C191.374 199.877 191.263 200.55 191.026 201.183C190.788 201.816 190.428 202.396 189.967 202.89C189.505 203.383 188.951 203.781 188.335 204.06Z" fill="#20063B"/>
<path d="M173.479 161.928L155.221 201.967L107.613 193.452C107.576 192.429 107.843 191.419 108.381 190.548C108.918 189.677 109.702 188.985 110.632 188.56L169.101 161.877C169.789 161.563 170.539 161.405 171.295 161.413C172.052 161.422 172.798 161.598 173.479 161.928Z" fill="url(#paint9_linear)"/>
<path d="M138.151 198.907L133.37 229.092L188.335 204.01L161.753 187.644L155.221 201.967L138.151 198.907Z" fill="url(#paint10_linear)"/>
<path d="M313.515 140.308L275.751 132.85C275.353 132.771 274.975 132.616 274.638 132.391C274.301 132.166 274.011 131.878 273.786 131.541C273.561 131.204 273.404 130.827 273.325 130.43C273.246 130.032 273.246 129.623 273.325 129.226L277.502 108.089C277.575 107.693 277.729 107.316 277.955 106.982C278.291 106.471 278.773 106.071 279.338 105.834C279.902 105.598 280.525 105.535 281.125 105.654L318.89 113.112C319.337 113.196 319.759 113.38 320.125 113.65C320.491 113.92 320.791 114.27 321.003 114.672C321.344 115.303 321.458 116.031 321.326 116.735L317.138 137.872C317.061 138.27 316.906 138.65 316.682 138.988C316.458 139.326 316.17 139.617 315.833 139.843C315.496 140.069 315.118 140.227 314.72 140.307C314.323 140.386 313.913 140.387 313.515 140.308Z" fill="#20063B"/>
<path d="M321.004 114.652L298.136 127.737L278.005 106.962C278.342 106.451 278.823 106.051 279.388 105.814C279.953 105.578 280.575 105.515 281.176 105.633L318.94 113.092C319.378 113.183 319.791 113.37 320.147 113.64C320.504 113.909 320.797 114.255 321.004 114.652Z" fill="url(#paint11_linear)"/>
<path d="M290.899 120.278L278.025 133.292L313.515 140.308L306.308 123.056L298.136 127.737L290.899 120.278Z" fill="url(#paint12_linear)"/>
</g>
<path d="M75.3764 335.984C74.6477 329.938 70.071 326.46 64.0114 326.46C57.0952 326.46 51.8153 331.344 51.8153 339.909C51.8153 348.449 57.0057 353.358 64.0114 353.358C70.723 353.358 74.7756 348.896 75.3764 344.077L69.777 344.051C69.2528 346.851 67.054 348.462 64.1009 348.462C60.125 348.462 57.4276 345.509 57.4276 339.909C57.4276 334.463 60.0866 331.357 64.1392 331.357C67.169 331.357 69.3551 333.108 69.777 335.984H75.3764ZM79.2436 353H84.6896V341.891C84.6896 339.474 86.4538 337.812 88.8572 337.812C89.6115 337.812 90.647 337.94 91.1584 338.107V333.274C90.6726 333.159 89.995 333.082 89.4453 333.082C87.2464 333.082 85.4439 334.361 84.728 336.79H84.5234V333.364H79.2436V353ZM102.009 353.384C106.867 353.384 110.14 351.018 110.907 347.375L105.87 347.043C105.32 348.538 103.914 349.318 102.098 349.318C99.3754 349.318 97.6495 347.516 97.6495 344.588V344.575H111.022V343.08C111.022 336.406 106.982 333.108 101.792 333.108C96.0131 333.108 92.2674 337.212 92.2674 343.271C92.2674 349.497 95.962 353.384 102.009 353.384ZM97.6495 341.2C97.7646 338.963 99.4648 337.173 101.881 337.173C104.246 337.173 105.882 338.861 105.895 341.2H97.6495ZM120.175 353.371C123.077 353.371 124.956 352.105 125.915 350.277H126.069V353H131.233V339.756C131.233 335.077 127.27 333.108 122.898 333.108C118.194 333.108 115.1 335.358 114.346 338.938L119.382 339.347C119.753 338.043 120.917 337.084 122.873 337.084C124.726 337.084 125.787 338.017 125.787 339.628V339.705C125.787 340.97 124.445 341.136 121.032 341.469C117.145 341.827 113.655 343.131 113.655 347.516C113.655 351.402 116.429 353.371 120.175 353.371ZM121.735 349.612C120.06 349.612 118.858 348.832 118.858 347.337C118.858 345.803 120.124 345.048 122.042 344.78C123.23 344.614 125.174 344.332 125.826 343.898V345.982C125.826 348.04 124.125 349.612 121.735 349.612ZM145.903 333.364H142.208V328.659H136.762V333.364H134.078V337.455H136.762V347.682C136.737 351.53 139.358 353.435 143.308 353.268C144.714 353.217 145.711 352.936 146.261 352.757L145.404 348.705C145.136 348.756 144.561 348.884 144.049 348.884C142.963 348.884 142.208 348.474 142.208 346.966V337.455H145.903V333.364ZM149.451 353H154.897V333.364H149.451V353ZM152.186 330.832C153.81 330.832 155.14 329.592 155.14 328.071C155.14 326.562 153.81 325.322 152.186 325.322C150.576 325.322 149.246 326.562 149.246 328.071C149.246 329.592 150.576 330.832 152.186 330.832ZM164.705 341.648C164.718 339.116 166.227 337.634 168.425 337.634C170.612 337.634 171.928 339.065 171.915 341.469V353H177.362V340.497C177.362 335.92 174.677 333.108 170.586 333.108C167.671 333.108 165.562 334.54 164.68 336.828H164.45V333.364H159.259V353H164.705V341.648ZM190.5 360.773C196.113 360.773 200.101 358.216 200.101 353.192V333.364H194.694V336.662H194.489C193.76 335.064 192.162 333.108 188.877 333.108C184.569 333.108 180.925 336.457 180.925 343.143C180.925 349.676 184.466 352.719 188.89 352.719C192.022 352.719 193.773 351.146 194.489 349.523H194.719V353.115C194.719 355.812 192.993 356.861 190.628 356.861C188.225 356.861 187.01 355.812 186.563 354.624L181.526 355.301C182.178 358.395 185.208 360.773 190.5 360.773ZM190.615 348.628C187.944 348.628 186.486 346.506 186.486 343.118C186.486 339.781 187.918 337.442 190.615 337.442C193.262 337.442 194.745 339.679 194.745 343.118C194.745 346.582 193.236 348.628 190.615 348.628ZM218.366 353.371C221.268 353.371 223.148 352.105 224.107 350.277H224.26V353H229.425V339.756C229.425 335.077 225.462 333.108 221.089 333.108C216.385 333.108 213.291 335.358 212.537 338.938L217.574 339.347C217.945 338.043 219.108 337.084 221.064 337.084C222.918 337.084 223.979 338.017 223.979 339.628V339.705C223.979 340.97 222.636 341.136 219.223 341.469C215.337 341.827 211.847 343.131 211.847 347.516C211.847 351.402 214.621 353.371 218.366 353.371ZM219.926 349.612C218.251 349.612 217.05 348.832 217.05 347.337C217.05 345.803 218.315 345.048 220.233 344.78C221.422 344.614 223.365 344.332 224.017 343.898V345.982C224.017 348.04 222.317 349.612 219.926 349.612ZM252.426 333.364H248.732V328.659H243.286V333.364H240.601V337.455H243.286V347.682C243.26 351.53 245.881 353.435 249.831 353.268C251.238 353.217 252.235 352.936 252.784 352.757L251.928 348.705C251.659 348.756 251.084 348.884 250.573 348.884C249.486 348.884 248.732 348.474 248.732 346.966V337.455H252.426V333.364ZM261.842 341.648C261.855 339.116 263.402 337.634 265.626 337.634C267.838 337.634 269.142 339.053 269.129 341.469V353H274.575V340.497C274.588 335.895 271.877 333.108 267.787 333.108C264.808 333.108 262.814 334.514 261.919 336.828H261.689V326.818H256.396V353H261.842V341.648ZM278.861 353H284.307V341.891C284.307 339.474 286.071 337.812 288.474 337.812C289.229 337.812 290.264 337.94 290.776 338.107V333.274C290.29 333.159 289.612 333.082 289.062 333.082C286.864 333.082 285.061 334.361 284.345 336.79H284.141V333.364H278.861V353ZM301.626 353.384C306.484 353.384 309.757 351.018 310.524 347.375L305.487 347.043C304.937 348.538 303.531 349.318 301.716 349.318C298.993 349.318 297.267 347.516 297.267 344.588V344.575H310.639V343.08C310.639 336.406 306.599 333.108 301.409 333.108C295.63 333.108 291.885 337.212 291.885 343.271C291.885 349.497 295.579 353.384 301.626 353.384ZM297.267 341.2C297.382 338.963 299.082 337.173 301.498 337.173C303.863 337.173 305.5 338.861 305.512 341.2H297.267ZM319.792 353.371C322.694 353.371 324.574 352.105 325.532 350.277H325.686V353H330.85V339.756C330.85 335.077 326.887 333.108 322.515 333.108C317.811 333.108 314.717 335.358 313.963 338.938L319 339.347C319.37 338.043 320.534 337.084 322.49 337.084C324.343 337.084 325.404 338.017 325.404 339.628V339.705C325.404 340.97 324.062 341.136 320.649 341.469C316.762 341.827 313.272 343.131 313.272 347.516C313.272 351.402 316.047 353.371 319.792 353.371ZM321.352 349.612C319.677 349.612 318.475 348.832 318.475 347.337C318.475 345.803 319.741 345.048 321.659 344.78C322.848 344.614 324.791 344.332 325.443 343.898V345.982C325.443 348.04 323.743 349.612 321.352 349.612ZM342.311 353.32C345.482 353.32 347.131 351.491 347.885 349.855H348.115V353H353.485V326.818H348.051V336.662H347.885C347.157 335.064 345.584 333.108 342.299 333.108C337.99 333.108 334.347 336.457 334.347 343.207C334.347 349.778 337.837 353.32 342.311 353.32ZM344.037 348.986C341.365 348.986 339.908 346.608 339.908 343.182C339.908 339.781 341.34 337.442 344.037 337.442C346.684 337.442 348.167 339.679 348.167 343.182C348.167 346.685 346.658 348.986 344.037 348.986Z" fill="black"/>
<defs>
<linearGradient id="paint0_linear" x1="256.357" y1="153.236" x2="282.939" y2="216.724" gradientUnits="userSpaceOnUse">
<stop offset="0.01" stop-color="white"/>
<stop offset="1" stop-color="white" stop-opacity="0"/>
</linearGradient>
<linearGradient id="paint1_linear" x1="237.049" y1="172.162" x2="362.743" y2="251.347" gradientUnits="userSpaceOnUse">
<stop offset="0.01"/>
<stop offset="0.08" stop-opacity="0.69"/>
<stop offset="0.21" stop-opacity="0.32"/>
<stop offset="1" stop-opacity="0"/>
</linearGradient>
<linearGradient id="paint2_linear" x1="20602.7" y1="23905.1" x2="-4617.57" y2="12656" gradientUnits="userSpaceOnUse">
<stop offset="0.01"/>
<stop offset="0.08" stop-opacity="0.69"/>
<stop offset="0.21" stop-opacity="0.32"/>
<stop offset="1" stop-opacity="0"/>
</linearGradient>
<linearGradient id="paint3_linear" x1="14834.8" y1="4403.5" x2="14442.6" y2="8600.81" gradientUnits="userSpaceOnUse">
<stop offset="0.01"/>
<stop offset="0.08" stop-opacity="0.69"/>
<stop offset="0.21" stop-opacity="0.32"/>
<stop offset="1" stop-opacity="0"/>
</linearGradient>
<linearGradient id="paint4_linear" x1="9813.09" y1="3224.4" x2="11585.3" y2="6208.41" gradientUnits="userSpaceOnUse">
<stop offset="0.01"/>
<stop offset="0.08" stop-opacity="0.69"/>
<stop offset="0.21" stop-opacity="0.32"/>
<stop offset="1" stop-opacity="0"/>
</linearGradient>
<linearGradient id="paint5_linear" x1="8130.82" y1="550.339" x2="8197.31" y2="-211.76" gradientUnits="userSpaceOnUse">
<stop offset="0.01"/>
<stop offset="0.08" stop-opacity="0.69"/>
<stop offset="0.21" stop-opacity="0.32"/>
<stop offset="1" stop-opacity="0"/>
</linearGradient>
<linearGradient id="paint6_linear" x1="8998.8" y1="3355.12" x2="10046.5" y2="5512.39" gradientUnits="userSpaceOnUse">
<stop offset="0.01"/>
<stop offset="0.08" stop-opacity="0.69"/>
<stop offset="0.21" stop-opacity="0.32"/>
<stop offset="1" stop-opacity="0"/>
</linearGradient>
<linearGradient id="paint7_linear" x1="4781.55" y1="1588.18" x2="4921" y2="2007.15" gradientUnits="userSpaceOnUse">
<stop offset="0.01"/>
<stop offset="0.08" stop-opacity="0.69"/>
<stop offset="0.21" stop-opacity="0.32"/>
<stop offset="1" stop-opacity="0"/>
</linearGradient>
<linearGradient id="paint8_linear" x1="13980.8" y1="14940.9" x2="5200.99" y2="21966.4" gradientUnits="userSpaceOnUse">
<stop offset="0.01"/>
<stop offset="0.08" stop-opacity="0.69"/>
<stop offset="0.21" stop-opacity="0.32"/>
<stop offset="1" stop-opacity="0"/>
</linearGradient>
<linearGradient id="paint9_linear" x1="25047.8" y1="3386.36" x2="25808" y2="7958.5" gradientUnits="userSpaceOnUse">
<stop offset="0.01" stop-color="white"/>
<stop offset="1" stop-color="white" stop-opacity="0"/>
</linearGradient>
<linearGradient id="paint10_linear" x1="18927" y1="5117.56" x2="25861.8" y2="13902.8" gradientUnits="userSpaceOnUse">
<stop offset="0.01"/>
<stop offset="0.08" stop-opacity="0.69"/>
<stop offset="0.21" stop-opacity="0.32"/>
<stop offset="1" stop-opacity="0"/>
</linearGradient>
<linearGradient id="paint11_linear" x1="-22683.9" y1="-4156.11" x2="-23363.4" y2="-2799.55" gradientUnits="userSpaceOnUse">
<stop offset="0.01" stop-color="white"/>
<stop offset="1" stop-color="white" stop-opacity="0"/>
</linearGradient>
<linearGradient id="paint12_linear" x1="-19682.5" y1="-3092.74" x2="-19934.5" y2="343.828" gradientUnits="userSpaceOnUse">
<stop offset="0.01"/>
<stop offset="0.08" stop-opacity="0.69"/>
<stop offset="0.21" stop-opacity="0.32"/>
<stop offset="1" stop-opacity="0"/>
</linearGradient>
<clipPath id="clip0">
<rect width="406" height="306" fill="white"/>
</clipPath>
</defs>
</svg>
