<svg width="17" height="18" viewBox="0 0 17 18" fill="none" xmlns="http://www.w3.org/2000/svg">
<path d="M16 8.5008L8.90834 15.635C8.03956 16.509 6.86124 17 5.6326 17C4.40396 17 3.22564 16.509 2.35686 15.635C1.48808 14.761 1 13.5756 1 12.3396C1 11.1036 1.48808 9.9182 2.35686 9.04421L9.44851 1.91C10.0277 1.32734 10.8132 1 11.6323 1C12.4514 1 13.237 1.32734 13.8162 1.91C14.3954 2.49266 14.7207 3.28292 14.7207 4.10693C14.7207 4.93094 14.3954 5.7212 13.8162 6.30386L6.7168 13.4381C6.4272 13.7294 6.03443 13.8931 5.62488 13.8931C5.21534 13.8931 4.82256 13.7294 4.53297 13.4381C4.24338 13.1467 4.08068 12.7516 4.08068 12.3396C4.08068 11.9276 4.24338 11.5325 4.53297 11.2411L11.0845 4.6581" stroke="#20063B" stroke-linecap="round" stroke-linejoin="round"/>
</svg>
