<svg width="22" height="21" viewBox="0 0 22 21" fill="none" xmlns="http://www.w3.org/2000/svg">
<path d="M19 1H3C1.89543 1 1 1.89543 1 3V7C1 8.10457 1.89543 9 3 9H19C20.1046 9 21 8.10457 21 7V3C21 1.89543 20.1046 1 19 1Z" stroke="black" stroke-linecap="round" stroke-linejoin="round"/>
<path d="M19 12H3C1.89543 12 1 12.8954 1 14V18C1 19.1046 1.89543 20 3 20H19C20.1046 20 21 19.1046 21 18V14C21 12.8954 20.1046 12 19 12Z" stroke="black" stroke-linecap="round" stroke-linejoin="round"/>
<path d="M5 5H5.01" stroke="black" stroke-linecap="round" stroke-linejoin="round"/>
<path d="M5 16H5.01" stroke="black" stroke-linecap="round" stroke-linejoin="round"/>
</svg>
