<svg width="18" height="19" viewBox="0 0 18 19" fill="none" xmlns="http://www.w3.org/2000/svg">
<path d="M16.2405 12.852V6.07842C16.2402 5.78147 16.1618 5.48981 16.0132 5.23271C15.8646 4.97562 15.651 4.76212 15.3938 4.61364L9.46693 1.22687C9.20951 1.07824 8.91749 1 8.62024 1C8.32299 1 8.03097 1.07824 7.77355 1.22687L1.84669 4.61364C1.58952 4.76212 1.37592 4.97562 1.2273 5.23271C1.07869 5.48981 1.0003 5.78147 1 6.07842V12.852C1.0003 13.1489 1.07869 13.4406 1.2273 13.6977C1.37592 13.9548 1.58952 14.1683 1.84669 14.3167L7.77355 17.7035C8.03097 17.8521 8.32299 17.9304 8.62024 17.9304C8.91749 17.9304 9.20951 17.8521 9.46693 17.7035L15.3938 14.3167C15.651 14.1683 15.8646 13.9548 16.0132 13.6977C16.1618 13.4406 16.2402 13.1489 16.2405 12.852Z" stroke="black" stroke-width="2" stroke-linecap="round" stroke-linejoin="round"/>
<path d="M1.22852 5.19781L8.62015 9.47362L16.0118 5.19781" stroke="black" stroke-width="2" stroke-linecap="round" stroke-linejoin="round"/>
<path d="M8.62012 17.9999V9.46524" stroke="black" stroke-width="2" stroke-linecap="round" stroke-linejoin="round"/>
</svg>
