<svg width="23" height="23" viewBox="0 0 23 23" fill="none" xmlns="http://www.w3.org/2000/svg">
<path d="M22.9997 11.7554C22.9997 10.8098 22.9214 10.1198 22.752 9.4043H11.7344V13.672H18.2014C18.0711 14.7326 17.367 16.3298 15.8024 17.4031L15.7804 17.546L19.264 20.1907L19.5053 20.2143C21.7219 18.2082 22.9997 15.2565 22.9997 11.7554Z" fill="#4285F4"/>
<path d="M11.7345 23C14.9028 23 17.5627 21.9777 19.5055 20.2144L15.8025 17.4032C14.8116 18.0805 13.4816 18.5532 11.7345 18.5532C8.63134 18.5532 5.99757 16.5472 5.0587 13.7744L4.92109 13.7859L1.29884 16.5331L1.25146 16.6621C3.18115 20.4188 7.14488 23 11.7345 23Z" fill="#34A853"/>
<path d="M5.05891 13.7743C4.81118 13.0588 4.66781 12.2921 4.66781 11.4999C4.66781 10.7076 4.81118 9.94101 5.04587 9.22547L5.03931 9.07307L1.37167 6.28174L1.25167 6.33767C0.456354 7.89657 0 9.64714 0 11.4999C0 13.3527 0.456354 15.1031 1.25167 16.662L5.05891 13.7743Z" fill="#FBBC05"/>
<path d="M11.7345 4.44664C13.938 4.44664 15.4243 5.37941 16.2719 6.15891L19.5837 2.99C17.5497 1.13723 14.9028 0 11.7345 0C7.14488 0 3.18115 2.58109 1.25146 6.33773L5.04567 9.22555C5.99757 6.45278 8.63134 4.44664 11.7345 4.44664Z" fill="#EB4335"/>
</svg>
