<svg width="27" height="32" viewBox="0 0 27 32" fill="none" xmlns="http://www.w3.org/2000/svg">
<path d="M13.4576 0L0 7.8692V23.6212L13.4576 31.4903L26.9151 23.6212V7.8692L13.4576 0ZM24.5277 22.2285L13.4576 28.705L2.38742 22.2285V9.26186L13.4576 2.78532L24.5277 9.26186V22.2285Z" fill="#5F6CAD"/>
<path d="M13.4575 6.09473L4.98413 11.1772V21.3287L13.4575 26.4111L21.9307 21.3287V11.1772L13.4575 6.09473ZM19.6361 19.9583L14.5983 22.9785L13.4575 23.6703L12.3165 22.9785L7.27872 19.9583V12.5475L8.41959 11.8557L13.4575 8.83551L18.4952 11.8557L19.6361 12.5475V19.9583Z" fill="#5F6CAD"/>
<path d="M18.6921 12.7839L17.7735 12.3191L17.5109 12.1899L17.2485 12.3191L13.4719 14.2561L9.69524 12.3191L9.43277 12.1899L9.1703 12.3191L8.23708 12.7839L7.97461 12.9131V13.1842V14.1269V14.398L8.23708 14.5272L12.0137 16.4641V20.3381V20.6093L12.2762 20.7383L13.1949 21.2032L13.4573 21.3323L13.7198 21.2032L14.6384 20.7383L14.9008 20.6093V20.3381V16.4641L18.6775 14.5272L18.94 14.398V14.1269V13.1842V12.9131L18.6921 12.7839ZM8.49954 13.1842L9.41819 12.7194L8.49954 13.1842ZM18.4296 13.1842L17.5109 12.7194L18.4296 13.1842Z" fill="#5F6CAD"/>
</svg>
