<svg width="100" height="22" viewBox="0 0 100 22" fill="none" xmlns="http://www.w3.org/2000/svg">
<path className='logo-icon' d="M9.28111 0L0 5.42704V16.2905L9.28111 21.7175L18.5621 16.2905V5.42704L9.28111 0ZM16.9156 15.33L9.28111 19.7966L1.6465 15.33V6.3875L9.28111 1.92091L16.9156 6.3875V15.33Z" fill="#5F6CAD"/>
<path className='logo-icon' d="M9.28093 4.20337L3.43726 7.7085V14.7096L9.28093 18.2147L15.1245 14.7096V7.7085L9.28093 4.20337ZM13.5421 13.7645L10.0677 15.8474L9.28093 16.3245L8.49409 15.8474L5.01973 13.7645V8.6536L5.80654 8.17646L9.28093 6.09357L12.7553 8.17646L13.5421 8.6536V13.7645Z" fill="#5F6CAD"/>
<path className='logo-icon' d="M12.8911 8.81615L12.2576 8.49555L12.0765 8.40649L11.8956 8.49555L9.29098 9.83141L6.6864 8.49555L6.50538 8.40649L6.32437 8.49555L5.68077 8.81615L5.49976 8.90521V9.09222V9.74231V9.92932L5.68077 10.0184L8.28535 11.3542V14.0259V14.2129L8.46636 14.3019L9.09995 14.6226L9.28091 14.7116L9.46196 14.6226L10.0955 14.3019L10.2765 14.2129V14.0259V11.3542L12.8811 10.0184L13.0621 9.92932V9.74231V9.09222V8.90521L12.8911 8.81615ZM5.86178 9.09222L6.49533 8.77162L5.86178 9.09222ZM12.7101 9.09222L12.0765 8.77162L12.7101 9.09222Z" fill="#5F6CAD"/>
<path d="M26.8118 12.0504C26.8118 11.2341 26.9608 10.5175 27.2589 9.90055C27.5662 9.2836 27.9807 8.80902 28.5023 8.47682C29.0239 8.14462 29.6061 7.97852 30.2488 7.97852C30.7983 7.97852 31.278 8.09241 31.6878 8.32021C32.107 8.54801 32.4283 8.84699 32.6519 9.21716V8.09241H35.041V16.0368H32.6519V14.9121C32.419 15.2822 32.093 15.5812 31.6739 15.809C31.264 16.0368 30.7843 16.1507 30.2348 16.1507C29.6014 16.1507 29.0239 15.9846 28.5023 15.6524C27.9807 15.3107 27.5662 14.8314 27.2589 14.2144C26.9608 13.588 26.8118 12.8666 26.8118 12.0504ZM32.6519 12.0646C32.6519 11.4572 32.4842 10.9778 32.1489 10.6266C31.8229 10.2755 31.4224 10.0999 30.9473 10.0999C30.4723 10.0999 30.0671 10.2755 29.7318 10.6266C29.4058 10.9683 29.2428 11.4429 29.2428 12.0504C29.2428 12.6578 29.4058 13.1419 29.7318 13.5026C30.0671 13.8538 30.4723 14.0294 30.9473 14.0294C31.4224 14.0294 31.8229 13.8538 32.1489 13.5026C32.4842 13.1514 32.6519 12.6721 32.6519 12.0646Z" fill="black"/>
<path d="M39.941 16.1507C39.2611 16.1507 38.6556 16.0321 38.1247 15.7948C37.5938 15.5575 37.1747 15.2348 36.8673 14.8266C36.5599 14.409 36.3876 13.9439 36.3503 13.4314H38.7115C38.7395 13.7066 38.8652 13.9297 39.0888 14.1005C39.3123 14.2714 39.5871 14.3568 39.9131 14.3568C40.2111 14.3568 40.4393 14.2999 40.5977 14.186C40.7653 14.0626 40.8492 13.906 40.8492 13.7161C40.8492 13.4883 40.7327 13.3222 40.4999 13.2178C40.267 13.1039 39.8898 12.9805 39.3682 12.8477C38.8093 12.7148 38.3436 12.5772 37.971 12.4348C37.5985 12.2829 37.2771 12.0504 37.007 11.7372C36.7369 11.4144 36.6018 10.9826 36.6018 10.4416C36.6018 9.98597 36.7229 9.57309 36.9651 9.20292C37.2166 8.82326 37.5798 8.52428 38.0549 8.30597C38.5392 8.08767 39.112 7.97852 39.7734 7.97852C40.7514 7.97852 41.5198 8.2253 42.0787 8.71885C42.6468 9.21241 42.9728 9.86733 43.0567 10.6836H40.8492C40.8119 10.4083 40.6908 10.19 40.4859 10.0287C40.2903 9.86733 40.0295 9.78665 39.7035 9.78665C39.4241 9.78665 39.2098 9.8436 39.0608 9.9575C38.9118 10.0619 38.8373 10.209 38.8373 10.3989C38.8373 10.6266 38.9537 10.7975 39.1866 10.9114C39.4287 11.0253 39.8013 11.1392 40.3043 11.2531C40.8818 11.405 41.3521 11.5568 41.7154 11.7087C42.0787 11.8511 42.3953 12.0883 42.6655 12.4205C42.9449 12.7433 43.0893 13.1799 43.0986 13.7304C43.0986 14.1955 42.9682 14.6131 42.7074 14.9833C42.4559 15.3439 42.088 15.6287 41.6036 15.8375C41.1286 16.0463 40.5744 16.1507 39.941 16.1507Z" fill="black"/>
<path d="M48.9055 13.9725V16.0369H47.69C46.8238 16.0369 46.1485 15.8234 45.6641 15.3962C45.1798 14.9596 44.9376 14.2525 44.9376 13.2749V10.1142H43.9875V8.09252H44.9376V6.15625H47.3267V8.09252H48.8915V10.1142H47.3267V13.3034C47.3267 13.5406 47.3826 13.7115 47.4944 13.8159C47.6062 13.9203 47.7924 13.9725 48.0532 13.9725H48.9055Z" fill="black"/>
<path d="M52.6252 9.41633C52.9046 8.97972 53.2539 8.63802 53.6731 8.39124C54.0922 8.13497 54.5579 8.00684 55.0702 8.00684V10.5838H54.4136C53.8174 10.5838 53.3704 10.7167 53.0723 10.9824C52.7742 11.2387 52.6252 11.6943 52.6252 12.3492V16.0367H50.2361V8.09226H52.6252V9.41633Z" fill="black"/>
<path d="M59.7611 16.1507C58.9973 16.1507 58.3081 15.9846 57.6933 15.6524C57.0879 15.3202 56.6082 14.8456 56.2543 14.2287C55.9096 13.6117 55.7373 12.8904 55.7373 12.0646C55.7373 11.2483 55.9143 10.5317 56.2682 9.91479C56.6222 9.28835 57.1065 8.80902 57.7213 8.47682C58.336 8.14462 59.0253 7.97852 59.789 7.97852C60.5528 7.97852 61.2421 8.14462 61.8568 8.47682C62.4716 8.80902 62.9559 9.28835 63.3099 9.91479C63.6638 10.5317 63.8408 11.2483 63.8408 12.0646C63.8408 12.8809 63.6591 13.6022 63.2959 14.2287C62.9419 14.8456 62.4529 15.3202 61.8289 15.6524C61.2141 15.9846 60.5249 16.1507 59.7611 16.1507ZM59.7611 14.0436C60.2175 14.0436 60.604 13.8727 60.9207 13.5311C61.2467 13.1894 61.4097 12.7005 61.4097 12.0646C61.4097 11.4287 61.2514 10.9399 60.9347 10.5982C60.6273 10.2565 60.2454 10.0856 59.789 10.0856C59.3233 10.0856 58.9368 10.2565 58.6294 10.5982C58.322 10.9304 58.1683 11.4192 58.1683 12.0646C58.1683 12.7005 58.3174 13.1894 58.6154 13.5311C58.9228 13.8727 59.3047 14.0436 59.7611 14.0436Z" fill="black"/>
<path d="M67.4975 9.21739C67.7211 8.84722 68.0424 8.54824 68.4616 8.32044C68.8807 8.09265 69.3604 7.97875 69.9006 7.97875C70.5433 7.97875 71.1255 8.14485 71.6471 8.47705C72.1687 8.80926 72.5785 9.28383 72.8766 9.90078C73.1839 10.5177 73.3376 11.2343 73.3376 12.0506C73.3376 12.8669 73.1839 13.5882 72.8766 14.2147C72.5785 14.8316 72.1687 15.3109 71.6471 15.6526C71.1255 15.9848 70.5433 16.1509 69.9006 16.1509C69.3511 16.1509 68.8714 16.0418 68.4616 15.8235C68.0517 15.5957 67.7304 15.2967 67.4975 14.9265V16.037H65.1084V5.50146H67.4975V9.21739ZM70.9066 12.0506C70.9066 11.4432 70.7389 10.9686 70.4036 10.6269C70.0776 10.2757 69.6724 10.1001 69.1881 10.1001C68.713 10.1001 68.3079 10.2757 67.9726 10.6269C67.6466 10.9781 67.4836 11.4574 67.4836 12.0648C67.4836 12.6723 67.6466 13.1516 67.9726 13.5028C68.3079 13.854 68.713 14.0296 69.1881 14.0296C69.6631 14.0296 70.0683 13.854 70.4036 13.5028C70.7389 13.1421 70.9066 12.6581 70.9066 12.0506Z" fill="black"/>
<path d="M82.289 8.09229V16.0367H79.9V14.9546C79.6578 15.3058 79.3272 15.5906 78.908 15.8089C78.4982 16.0177 78.0418 16.1221 77.5388 16.1221C76.9427 16.1221 76.4165 15.9892 75.9601 15.7235C75.5037 15.4482 75.1497 15.0543 74.8982 14.5418C74.6467 14.0292 74.521 13.4265 74.521 12.7336V8.09229H76.8961V12.4062C76.8961 12.9377 77.0312 13.3506 77.3013 13.6448C77.5714 13.9391 77.9347 14.0862 78.3911 14.0862C78.8568 14.0862 79.2247 13.9391 79.4948 13.6448C79.765 13.3506 79.9 12.9377 79.9 12.4062V8.09229H82.289Z" fill="black"/>
<path d="M85.2066 7.26671C84.7874 7.26671 84.4428 7.14332 84.1727 6.89654C83.9119 6.64027 83.7815 6.32705 83.7815 5.95688C83.7815 5.57722 83.9119 5.264 84.1727 5.01722C84.4428 4.76095 84.7874 4.63281 85.2066 4.63281C85.6164 4.63281 85.9517 4.76095 86.2125 5.01722C86.4826 5.264 86.6177 5.57722 86.6177 5.95688C86.6177 6.32705 86.4826 6.64027 86.2125 6.89654C85.9517 7.14332 85.6164 7.26671 85.2066 7.26671ZM86.3942 8.09247V16.0369H84.005V8.09247H86.3942Z" fill="black"/>
<path d="M90.5149 5.50146V16.037H88.1257V5.50146H90.5149Z" fill="black"/>
<path d="M91.7708 12.0506C91.7708 11.2343 91.9198 10.5177 92.2178 9.90078C92.5252 9.28383 92.9397 8.80926 93.4613 8.47705C93.9829 8.14485 94.5651 7.97875 95.2077 7.97875C95.72 7.97875 96.1857 8.0879 96.6049 8.30621C97.0333 8.52451 97.3687 8.81875 97.6108 9.18892V5.50146H100V16.037H97.6108V14.8981C97.3873 15.2777 97.0659 15.5815 96.6468 15.8092C96.237 16.037 95.7573 16.1509 95.2077 16.1509C94.5651 16.1509 93.9829 15.9848 93.4613 15.6526C92.9397 15.3109 92.5252 14.8316 92.2178 14.2147C91.9198 13.5882 91.7708 12.8669 91.7708 12.0506ZM97.6108 12.0648C97.6108 11.4574 97.4432 10.9781 97.1079 10.6269C96.7819 10.2757 96.3813 10.1001 95.9063 10.1001C95.4313 10.1001 95.0261 10.2757 94.6908 10.6269C94.3648 10.9686 94.2018 11.4432 94.2018 12.0506C94.2018 12.6581 94.3648 13.1421 94.6908 13.5028C95.0261 13.854 95.4313 14.0296 95.9063 14.0296C96.3813 14.0296 96.7819 13.854 97.1079 13.5028C97.4432 13.1516 97.6108 12.6723 97.6108 12.0648Z" fill="black"/>
</svg>
