<svg width="18" height="23" viewBox="0 0 18 23" fill="none" xmlns="http://www.w3.org/2000/svg">
<path d="M10.9998 1H2.99996C2.46954 1 1.96084 1.2119 1.58577 1.58907C1.21071 1.96625 1 2.47781 1 3.01122V19.101C1 19.6344 1.21071 20.146 1.58577 20.5231C1.96084 20.9003 2.46954 21.1122 2.99996 21.1122H14.9997C15.5301 21.1122 16.0388 20.9003 16.4139 20.5231C16.789 20.146 16.9997 19.6344 16.9997 19.101V7.03366L10.9998 1Z" stroke="black" stroke-width="2" stroke-linecap="round" stroke-linejoin="round"/>
<path d="M11 1V7.03366H16.9999" stroke="black" stroke-width="2" stroke-linecap="round" stroke-linejoin="round"/>
<path d="M12.9998 12.0617H5" stroke="black" stroke-width="2" stroke-linecap="round" stroke-linejoin="round"/>
<path d="M12.9998 16.0842H5" stroke="black" stroke-width="2" stroke-linecap="round" stroke-linejoin="round"/>
<path d="M6.99996 8.03928H5.99998H5" stroke="black" stroke-width="2" stroke-linecap="round" stroke-linejoin="round"/>
</svg>
